<svg width="24" height="24" viewBox="0 0 24 24" fill="none" xmlns="http://www.w3.org/2000/svg">
<path fill-rule="evenodd" clip-rule="evenodd" d="M13.0799 14.7843L15.284 12.5803C15.8927 11.9716 16.0436 11.0416 15.6586 10.2716L15.5337 10.0219C15.1487 9.2519 15.2996 8.32196 15.9084 7.71324L18.6412 4.98043C18.8364 4.78517 19.153 4.78517 19.3483 4.98043C19.3863 5.01843 19.4179 5.06231 19.4419 5.11038L20.5459 7.31833C21.3905 9.00744 21.0594 11.0475 19.7241 12.3828L13.7252 18.3816C12.2717 19.8352 10.1217 20.3427 8.17154 19.6927L5.75706 18.8879C5.49509 18.8005 5.35351 18.5174 5.44083 18.2554C5.46538 18.1818 5.50673 18.1149 5.56162 18.06L8.21289 15.4087C8.82161 14.8 9.75156 14.6491 10.5215 15.0341L10.7713 15.1589C11.5413 15.5439 12.4712 15.393 13.0799 14.7843Z" fill="#505F98"/>
<path opacity="0.3" fill-rule="evenodd" clip-rule="evenodd" d="M14.313 4.01369L14.4981 2.02227C11.2606 1.72144 8.04098 2.85235 5.69666 5.19667C3.35559 7.53774 2.22447 10.7517 2.52107 13.9851L4.51271 13.8024C4.26982 11.1546 5.19444 8.52732 7.11088 6.61088C9.02997 4.69179 11.6618 3.76734 14.313 4.01369ZM13.9567 7.99794L14.148 6.00712C12.0812 5.80844 10.0223 6.5279 8.52509 8.02509C7.0328 9.51738 6.31301 11.5678 6.50525 13.6284L8.49661 13.4426C8.35908 11.9685 8.87243 10.5062 9.9393 9.43931C11.0097 8.36893 12.4781 7.85581 13.9567 7.99794Z" fill="#505F98"/>
</svg>
