<svg width="153" height="58" viewBox="0 0 153 58" fill="none" xmlns="http://www.w3.org/2000/svg">
<g clip-path="url(#clip0_1_14141)">
<path fill-rule="evenodd" clip-rule="evenodd" d="M106.162 45.2889H102.327C101.919 45.2889 101.511 44.8809 101.511 44.3913V39.5769C101.511 39.1689 101.919 38.7609 102.327 38.7609H106.162C106.652 38.7609 107.06 39.1689 107.06 39.5769V44.3913C107.06 44.8809 106.652 45.2889 106.162 45.2889ZM19.0129 45.2889H15.0961C14.6065 45.2889 14.1985 44.7993 14.1985 44.3913V30.3561C14.1985 26.684 13.5457 25.7048 10.6897 25.7048C9.22084 25.7048 7.50724 26.1944 5.71203 27.1736V44.3913C5.71203 44.7993 5.30403 45.2889 4.81442 45.2889H0.897604C0.408002 45.2889 0 44.7993 0 44.3913V4.65194C0 4.24394 0.408002 3.83594 0.897604 3.83594H4.81442C5.30403 3.83594 5.71203 4.24394 5.71203 4.65194V22.5224C7.34404 21.5432 9.13924 20.972 12.1585 20.972C18.1153 20.972 19.9105 25.1336 19.9105 30.3561V44.3913C19.9105 44.7993 19.5025 45.2889 19.0129 45.2889ZM35.4146 31.5801C35.4146 28.0713 33.8642 25.7864 30.8449 25.7864C27.8257 25.7864 26.1937 28.0713 26.1937 31.5801V35.0073C26.1937 38.5161 27.8257 40.7193 30.8449 40.7193C33.8642 40.7193 35.4146 38.5161 35.4146 35.0073V31.5801ZM30.8449 45.6153C24.0721 45.6153 20.5633 41.1273 20.5633 35.0073V31.5801C20.5633 25.46 24.0721 20.972 30.8449 20.972C37.5362 20.972 41.1266 25.46 41.1266 31.5801V35.0073C41.1266 41.1273 37.5362 45.6153 30.8449 45.6153ZM53.7747 45.2889C52.7139 45.4521 51.8162 45.6153 50.837 45.6153C45.941 45.6153 43.9826 44.5545 43.9826 38.8425V25.46L39.9842 24.8888C39.4946 24.8072 39.0866 24.4808 39.0866 23.9912V22.1144C39.0866 21.6248 39.4946 21.2168 39.9842 21.2168H43.9826V17.708C43.9826 17.3 44.3906 16.9736 44.8802 16.892L48.8786 16.2392H49.0418C49.4498 16.2392 49.6946 16.4024 49.6946 16.8104V21.2168H53.6115C54.0195 21.2168 54.4275 21.6248 54.4275 22.1144V24.5624C54.4275 25.052 54.0195 25.46 53.6115 25.46H49.6946V38.8425C49.6946 40.9641 49.8578 41.2089 51.4082 41.2089H53.6931C54.2643 41.2089 54.5907 41.4537 54.5907 41.8617V44.5545C54.5907 44.9625 54.3459 45.2073 53.7747 45.2889ZM69.6867 31.0089C69.6867 27.7449 67.8915 25.7864 65.1987 25.7864C62.5059 25.7864 60.6291 27.6633 60.6291 31.0089V31.1721H69.6867V31.0089ZM74.5828 35.1705H60.5475V35.3337C60.5475 37.7817 61.6083 40.7193 65.6883 40.7193C68.8707 40.7193 71.8083 40.4745 73.6036 40.3113H73.7668C74.1748 40.3113 74.5012 40.5561 74.5012 40.9641V43.7385C74.5012 44.4729 74.4196 44.7177 73.6036 44.8809C70.8291 45.3705 69.1971 45.6153 65.2803 45.6153C60.9555 45.6153 54.9171 43.3305 54.9171 34.9257V31.7433C54.9171 25.1336 58.5891 20.972 65.1987 20.972C71.8083 20.972 75.4804 25.3784 75.4804 31.7433V34.1097C75.4804 34.8441 75.154 35.1705 74.5828 35.1705ZM81.5188 53.7754H77.5204C77.0308 53.7754 76.6228 53.2858 76.6228 52.8778V13.7096C76.6228 13.22 77.0308 12.812 77.5204 12.812H81.5188C82.0084 12.812 82.3348 13.22 82.3348 13.7096V52.8778C82.3348 53.2858 82.0084 53.7754 81.5188 53.7754ZM91.8004 45.6153C90.1684 45.6153 86.4964 45.3705 84.13 44.7177C83.5588 44.6361 83.314 44.3097 83.314 43.7385V41.2089C83.314 40.8825 83.5588 40.5561 84.0484 40.5561H84.2116C86.2516 40.8009 90.1684 40.9641 91.3924 40.9641C94.0853 40.9641 94.4933 40.1481 94.4933 38.9241C94.4933 38.1897 94.0036 37.6185 92.6164 36.8025L86.6596 33.2121C85.6067 32.6238 84.7232 31.7742 84.0943 30.7451C83.4654 29.716 83.1124 28.5421 83.0692 27.3369C83.0692 23.0936 85.762 20.972 91.2292 20.972C94.7381 20.972 96.6965 21.2984 98.8997 21.788C99.4709 21.9512 99.7157 22.2776 99.7157 22.7672V25.2152C99.7157 25.7864 99.4709 26.0312 98.9813 26.0312H98.8181C97.5941 25.868 94.1669 25.5416 91.7188 25.5416C89.6788 25.5416 88.7812 26.0312 88.7812 27.3369C88.7812 27.9897 89.434 28.3977 90.4948 29.0505L96.1253 32.4777C99.7157 34.6809 100.287 36.8025 100.287 38.9241C100.287 42.6777 97.4309 45.6153 91.8004 45.6153ZM127.541 45.2889H123.625C123.135 45.2889 122.727 44.7993 122.727 44.3913V30.5193C122.727 26.7656 122.401 25.7048 119.055 25.7048C117.586 25.7048 116.036 26.276 114.241 27.2552V44.3913C114.241 44.7993 113.833 45.2889 113.343 45.2889H109.426C108.937 45.2889 108.529 44.7993 108.529 44.3913V22.1144C108.529 21.6248 108.937 21.2168 109.426 21.2168H113.18C113.588 21.2168 113.996 21.6248 113.996 22.1144V23.012C116.525 21.38 118.157 20.972 121.013 20.972C127.215 20.972 128.439 25.052 128.439 30.5193V44.3913C128.439 44.7993 128.031 45.2889 127.541 45.2889ZM145.004 29.1321C145.004 27.0921 144.106 25.5416 140.434 25.5416C136.762 25.5416 135.783 27.1737 135.783 29.1321V29.5401C135.783 31.0905 136.354 32.8857 140.434 32.8857C143.943 32.8857 145.004 31.6617 145.004 29.5401V29.1321ZM145.493 46.9209C145.493 46.0233 144.922 45.4521 140.434 44.3913L136.599 43.4937C135.946 44.3913 135.457 44.9625 135.457 46.4313V46.8393C135.457 48.553 136.599 49.6138 140.597 49.6138C144.759 49.6138 145.493 48.7978 145.493 47.2473V46.9209ZM150.961 25.1336L149.492 25.7048C150.226 26.684 150.553 27.5817 150.553 29.0505V29.3769C150.553 34.6809 146.881 37.1289 140.434 37.1289C138.149 37.1289 136.599 36.7209 135.701 36.3945C135.212 36.7209 134.967 37.1289 134.967 37.5369C134.967 38.3529 135.457 38.6793 136.436 38.9241L141.495 40.1481C147.37 41.4537 151.124 42.3513 151.124 46.9209V47.2473C151.124 51.5722 147.942 53.9386 140.597 53.9386C133.661 53.9386 129.908 51.3274 129.908 46.8393V46.4313C129.908 44.7177 130.724 43.0041 132.111 41.7801C131.518 41.3156 131.04 40.7206 130.715 40.0412C130.389 39.3619 130.225 38.6166 130.234 37.8633V37.7817C130.234 36.4761 130.724 35.1705 131.948 34.3545C130.642 33.0489 130.153 31.4985 130.153 29.3769V29.0505C130.153 24.8072 132.927 21.2168 140.434 21.2168H150.471C151.124 21.2168 151.614 21.788 151.614 22.3592V24.1544C151.614 24.8072 151.45 24.8888 150.961 25.1336Z" fill="black" fill-opacity="0.5"/>
</g>
<defs>
<clipPath id="clip0_1_14141">
<rect width="152.103" height="57.2835" fill="white"/>
</clipPath>
</defs>
</svg>
