<svg width="105" height="105" viewBox="0 0 105 105" fill="none" xmlns="http://www.w3.org/2000/svg">
<path d="M58.4169 57.7569C58.4608 57.6763 58.4964 57.5915 58.5352 57.5088L72.5939 26.9543C72.709 26.7052 72.8252 26.4571 72.9383 26.2068C72.9781 26.121 73.0178 26.0456 73.133 26.0467C73.3916 26.0467 73.6512 26.0467 73.9464 26.0467C73.8815 26.2037 73.8418 26.3199 73.7873 26.4319C68.7748 37.3601 63.7626 48.2878 58.7508 59.2153C58.5509 59.6508 58.3446 60.0852 58.152 60.5239C57.9824 60.9112 58.0075 61.2881 58.2881 61.6168C58.4102 61.7702 58.5737 61.8854 58.7593 61.9485C58.9449 62.0116 59.1447 62.02 59.335 61.9728C59.7538 61.888 59.9631 61.598 60.1265 61.2399C65.1285 50.3544 70.1288 39.4709 75.1273 28.5896C75.6047 27.551 76.0695 26.5094 76.5616 25.4751C76.8317 24.9014 76.6129 24.0942 75.8591 23.9382V23.8691H72.084C72.0877 23.8798 72.089 23.8911 72.0879 23.9023C72.0869 23.9135 72.0834 23.9243 72.0777 23.934C71.6674 24.0241 71.4496 24.3141 71.2811 24.6669C70.7227 25.8827 70.1644 27.0981 69.606 28.3132C65.6362 36.9772 61.6622 45.6392 57.6841 54.2991C57.6275 54.4236 57.5679 54.5461 57.4998 54.6906C57.3428 54.5859 57.3407 54.4121 57.2559 54.2897C56.9648 53.8709 57.036 53.4846 57.2465 53.0271C61.3419 44.1195 65.4248 35.2066 69.4951 26.2885C69.6228 26.0079 69.7547 25.7284 69.8814 25.451C70.1808 24.7852 69.8615 24.1193 69.1548 23.9278C69.1514 23.9078 69.1435 23.8888 69.1318 23.8723H65.431C65.4368 23.8938 65.4337 23.9168 65.4227 23.9361C65.0144 24.0188 64.7725 24.2889 64.6071 24.6501C63.9692 26.0425 63.3303 27.4341 62.6903 28.8251L54.2785 47.1457C54.2398 47.2284 54.2 47.31 54.1477 47.4168C53.9781 47.2368 53.9383 47.0064 53.8231 46.8232C53.6075 46.482 53.642 46.1773 53.8127 45.8078C56.8933 39.1363 59.9642 32.4606 63.0253 25.7808C63.1562 25.496 63.2546 25.2123 63.1823 24.8888C63.1419 24.6799 63.037 24.4889 62.8825 24.3427C62.728 24.1964 62.5315 24.1022 62.3207 24.0733C62.1957 24.0584 62.0697 24.0525 61.9439 24.0555C60.9828 24.0555 60.0218 24.0733 59.0618 24.0482C58.4399 24.0314 58.0557 24.2973 57.8055 24.8501C56.1193 28.5379 54.4265 32.224 52.727 35.9084C52.1261 37.217 51.5252 38.5256 50.9243 39.8342C50.8824 39.9274 50.8322 40.0164 50.7631 40.1535C50.5956 39.7871 50.449 39.4584 50.293 39.1286C50.2354 39.0019 50.3244 38.9088 50.3694 38.8145C50.8657 37.7216 51.3643 36.63 51.8654 35.5399C53.3786 32.2359 54.8913 28.9315 56.4037 25.6269C56.6131 25.1725 56.5513 24.7213 56.2394 24.3842C56.1535 24.2837 56.0471 24.2028 55.9274 24.1468C55.8077 24.0909 55.6774 24.0611 55.5453 24.0597C54.4125 24.0597 53.2798 24.0503 52.1471 24.0597C51.6603 24.0597 51.3451 24.3476 51.1483 24.7757L50.0177 27.237C49.2032 29.0125 48.3877 30.7863 47.5711 32.5583C47.5303 32.6484 47.5125 32.7572 47.3984 32.8232L46.5514 30.988C45.6312 28.9842 44.7037 26.9826 43.7971 24.9726C43.5877 24.5004 43.3406 24.0858 42.8454 23.8723H42.3649C42.278 23.9853 42.1325 24.0042 42.0236 24.0817C41.6687 24.3371 41.4908 24.6711 41.5442 25.1128C41.5758 25.2697 41.6312 25.4208 41.7085 25.5609C43.1742 28.7616 44.6398 31.9612 46.1055 35.1598C46.1544 35.2479 46.1811 35.3466 46.1831 35.4474C46.1851 35.5481 46.1624 35.6478 46.117 35.7377C44.3366 39.5966 42.5617 43.4571 40.7925 47.3195C40.7657 47.4062 40.7178 47.4849 40.6533 47.5487C40.5665 47.4347 40.4986 47.3074 40.4523 47.1718C37.0415 39.7473 33.6311 32.3221 30.221 24.8961C30.1681 24.7698 30.1051 24.648 30.0326 24.5318C29.7185 24.0628 29.149 23.9037 28.681 24.1549C28.1367 24.4439 27.9336 24.9925 28.1691 25.5473C28.2099 25.6426 28.255 25.7347 28.2968 25.8289L39.5488 50.3889C39.5932 50.4961 39.6432 50.601 39.6985 50.703C40.1246 51.4358 41.0804 51.4547 41.5358 50.7459C41.6169 50.6082 41.6886 50.4651 41.7504 50.3178L47.2309 38.4209C47.2731 38.2975 47.3353 38.1818 47.4151 38.0786C47.5753 38.3078 47.6465 38.5758 47.7826 38.8114C47.8935 39.0019 47.8674 39.1663 47.7773 39.3579C47.3021 40.3723 46.8351 41.392 46.3724 42.4095C44.6974 46.0548 43.0224 49.7001 41.3474 53.3454C41.2748 53.4885 41.2365 53.6465 41.2356 53.8069C41.2347 53.9674 41.2712 54.1259 41.3421 54.2698C41.4311 54.4561 41.5159 54.6435 41.6007 54.8309C42.0477 55.8202 42.4968 56.8085 42.9386 57.7999C43.0873 58.1328 43.3113 58.3725 43.6714 58.4646C44.2504 58.6123 44.7298 58.384 44.9916 57.8229C45.536 56.6514 46.073 55.4779 46.6132 54.3043C47.9393 51.4177 49.2674 48.5318 50.5977 45.6465C50.6406 45.5534 50.6552 45.4372 50.7798 45.3764C50.8918 45.6204 50.9819 45.857 51.1044 46.0747C51.2268 46.2925 51.2028 46.4652 51.1044 46.6819C49.0001 51.2582 46.8987 55.8373 44.8 60.4192C44.7476 60.5333 44.6901 60.6464 44.6492 60.7647C44.5978 60.9021 44.5765 61.049 44.5867 61.1954C44.5968 61.3418 44.6383 61.4843 44.7083 61.6133C44.7782 61.7422 44.875 61.8547 44.9922 61.9431C45.1093 62.0315 45.2441 62.0937 45.3873 62.1256C45.895 62.2565 46.3693 62.0209 46.6122 61.4975C47.1705 60.2936 47.724 59.0889 48.2725 57.8836C49.5902 55.0179 50.9086 52.1526 52.2277 49.2876C52.2758 49.1829 52.2905 49.0479 52.4308 48.9861C52.5135 49.163 52.5909 49.3284 52.6674 49.4938C52.8254 49.8362 52.9731 50.1848 53.1447 50.5198C53.2288 50.6972 53.361 50.8475 53.5263 50.9533C53.6916 51.0592 53.8833 51.1165 54.0796 51.1186C54.5099 51.1343 54.8124 50.9092 55.0323 50.5523C55.0938 50.4426 55.1494 50.3297 55.1987 50.2141L65.4939 27.8473C65.7374 27.3176 65.9817 26.7882 66.2267 26.2592C66.2748 26.1545 66.3073 26.0404 66.458 26.0498C66.7072 26.0613 66.9585 26.0278 67.2128 26.0718C67.2233 26.2529 67.1186 26.3859 67.0548 26.5251C63.7982 33.6314 60.5396 40.7363 57.2789 47.8398C56.4588 49.6265 55.6384 51.4128 54.8177 53.1988C54.7498 53.3251 54.711 53.4651 54.7041 53.6083C54.6972 53.7516 54.7224 53.8946 54.7779 54.0269C55.3362 55.2685 55.8967 56.5077 56.4592 57.7444C56.6508 58.1631 57.0004 58.3463 57.4527 58.3495C57.6538 58.3559 57.8523 58.3032 58.0237 58.1978C58.195 58.0925 58.3318 57.9392 58.4169 57.7569ZM48.7017 35.209C49.138 34.2543 49.5769 33.2999 50.0187 32.3458C50.918 30.3954 51.8215 28.4472 52.7092 26.4916C52.8139 26.255 52.9437 26.1608 53.196 26.1901C53.399 26.2009 53.6024 26.2009 53.8053 26.1901L49.0797 36.4915C48.908 36.1198 48.7729 35.8215 48.6337 35.5263C48.5761 35.4027 48.6609 35.3085 48.7059 35.209H48.7017ZM49.4628 43.0063C48.8347 44.3777 48.2066 45.7477 47.5784 47.1164C46.4611 49.5549 45.343 51.9956 44.2242 54.4383C44.1635 54.5713 44.1007 54.7021 44.0201 54.8749C43.9973 54.8509 43.9763 54.8254 43.9572 54.7984C43.8117 54.476 43.5804 54.163 43.5469 53.829C43.5155 53.5149 43.774 53.2208 43.9112 52.9214C45.5681 49.2928 47.2277 45.6671 48.8902 42.0442C48.933 41.911 49.0044 41.7888 49.0996 41.6861C49.2566 42.0295 49.4136 42.3572 49.556 42.687C49.6063 42.8084 49.5183 42.9058 49.467 43.0063H49.4628ZM52.4276 43.7852C52.2601 43.4229 52.1293 43.1319 51.99 42.843C51.9167 42.6912 52.0036 42.576 52.0591 42.4556C52.5972 41.281 53.1374 40.1078 53.6797 38.936C55.5809 34.8042 57.4817 30.6722 59.3821 26.5398C59.4156 26.4675 59.4533 26.3963 59.4868 26.322C59.5017 26.2797 59.5305 26.2437 59.5686 26.2199C59.6066 26.1961 59.6516 26.186 59.6962 26.1911C59.9464 26.1911 60.1955 26.1911 60.4971 26.1911L52.4276 43.7852Z" fill="black" fill-opacity="0.5"/>
<path d="M17.3359 71.2132L14.4695 79.0272L13.566 81.4245C13.5545 81.457 11.7528 81.5229 11.7528 81.5229C11.746 81.4785 11.7355 81.4347 11.7214 81.3921C10.8867 79.3276 10.0506 77.2635 9.21304 75.1997C9.18896 75.1401 9.1785 75.0689 9.09998 75.0511C9.08729 75.0706 9.07575 75.0909 9.06543 75.1118L6.4681 81.5229H4.68839C4.71247 81.3889 4.63395 81.2801 4.59207 81.1649C4.11818 79.8877 3.64394 78.6136 3.16935 77.3427C2.52237 75.5979 1.87505 73.8552 1.22737 72.1145L1.219 72.0915L0.942618 71.3555L0.895508 71.2278C1.65346 71.2278 2.4135 71.2278 3.17145 71.209C3.3714 71.209 3.41746 71.3137 3.47295 71.4623C3.99221 72.8282 4.51391 74.1937 5.03805 75.5588C5.23486 76.0676 5.43063 76.5764 5.65362 77.1553C5.71748 77.0108 5.75831 76.925 5.79286 76.8412C6.51381 75.0706 7.23512 73.3021 7.95678 71.5356C8.10962 71.1629 8.02901 71.2215 8.44777 71.2142C8.97121 71.2142 9.49466 71.2142 10.0254 71.2142C10.328 71.2142 10.329 71.2142 10.4442 71.499C11.133 73.264 11.8215 75.0298 12.5097 76.7962C12.5495 76.9009 12.5966 77.0056 12.6646 77.1647C12.7243 77.0245 12.7693 76.9386 12.7986 76.8507L14.9113 71.5335C15.0379 71.2132 15.039 71.2132 15.3677 71.2132H17.3359Z" fill="black" fill-opacity="0.5"/>
<path d="M41.2229 77.7549C41.2229 75.6409 41.2229 73.5266 41.2229 71.4118C41.2229 71.1082 41.2229 71.1061 40.9256 71.1051C40.2975 71.1051 39.6694 71.1208 39.0412 71.0967C38.7429 71.0852 38.5764 71.1752 38.4236 71.4422C37.4636 73.1172 36.4837 74.7807 35.508 76.4463C35.4483 76.551 35.4106 76.6704 35.2818 76.7426C35.2138 76.6264 35.1541 76.5332 35.0997 76.4285C34.1575 74.7409 33.2216 73.0555 32.293 71.3626C32.2574 71.2748 32.194 71.201 32.1125 71.1526C32.0311 71.1042 31.9359 71.0838 31.8418 71.0946C31.1561 71.1114 30.4703 71.0946 29.7846 71.102C29.3449 71.102 29.3858 71.0496 29.3858 71.5081C29.3858 74.6286 29.3858 77.749 29.3858 80.8694C29.3858 81.0861 29.391 81.3039 29.3941 81.5206H31.5926V75.4015C31.7036 75.4246 31.7193 75.4968 31.7496 75.5523C32.8217 77.4639 33.893 79.3759 34.9636 81.2882C34.9886 81.3387 35.0103 81.3908 35.0285 81.4442C35.128 81.5039 35.1688 81.4348 35.2117 81.3625L35.8932 80.2109C36.8005 78.6755 37.7096 77.1432 38.6204 75.6141C38.6687 75.4929 38.7508 75.3883 38.857 75.3125V75.591C38.857 77.4419 38.857 79.2914 38.857 81.1395C38.857 81.2652 38.8633 81.3908 38.8664 81.5164H41.201C41.2314 81.3943 41.2395 81.2677 41.225 81.1427C41.2243 80.0162 41.2236 78.887 41.2229 77.7549Z" fill="black" fill-opacity="0.5"/>
<path d="M27.4728 79.4598C25.3581 79.4598 23.243 79.4598 21.1276 79.4598C20.8051 79.4598 20.803 79.4598 20.802 79.153C20.802 78.6045 20.802 78.0549 20.802 77.5063C20.802 77.209 20.802 77.2079 21.1004 77.2048H21.271C22.6089 77.2048 23.9469 77.2048 25.2848 77.2048C25.5486 77.2048 25.5528 77.2048 25.5538 76.9462C25.5538 76.4552 25.5538 75.9632 25.5538 75.4711C25.5538 75.1497 25.5538 75.178 25.2471 75.1759C24.4473 75.1707 23.6464 75.1759 22.8466 75.1759C22.2519 75.1759 21.6573 75.1759 21.0669 75.1759C20.8114 75.1759 20.8072 75.1696 20.8051 74.9069C20.8051 74.4494 20.8051 73.9919 20.8051 73.5344C20.8051 73.2978 20.8114 73.2926 21.0564 73.2926C21.8332 73.2926 22.611 73.2926 23.3889 73.2926C24.7491 73.2926 26.1101 73.2926 27.4717 73.2926C27.7324 73.2926 27.7355 73.2926 27.7376 73.0277C27.7376 72.5472 27.7376 72.0667 27.7376 71.5872C27.7376 71.2009 27.7837 71.2208 27.366 71.2208C24.5303 71.2208 21.695 71.2208 18.86 71.2208C18.3481 71.2208 18.4172 71.1642 18.4172 71.65C18.4172 74.9421 18.4172 78.2349 18.4172 81.5284H27.8894C27.8894 80.9799 27.902 80.4313 27.902 79.8827C27.8957 79.3991 27.946 79.465 27.4728 79.4598Z" fill="black" fill-opacity="0.5"/>
<path d="M99.0471 75.1516C100.63 73.8221 102.212 72.4915 103.794 71.1598V71.0918C102.852 71.0918 101.919 71.1085 100.982 71.0981C100.732 71.0889 100.489 71.1746 100.3 71.3378C98.8646 72.5082 97.4238 73.6717 95.9777 74.8281C95.896 74.8931 95.8342 75.0124 95.6824 74.9768V74.6994C95.6824 73.5897 95.6824 72.4803 95.6824 71.3713C95.6824 71.1106 95.6772 71.1065 95.4155 71.1054C94.7978 71.1054 94.1805 71.1054 93.5635 71.1054C93.2997 71.1054 93.2997 71.1054 93.2934 71.3682C93.2934 71.4362 93.2934 71.5053 93.2934 71.5776V80.3945C93.2934 80.6687 93.3008 80.9441 93.2934 81.2173C93.2872 81.3921 93.3437 81.4581 93.5258 81.456C94.1665 81.4466 94.8062 81.4476 95.4469 81.456C95.6175 81.456 95.7097 81.4141 95.6877 81.2267C95.6833 81.157 95.6833 81.0871 95.6877 81.0174C95.6877 80.0675 95.6877 79.1183 95.6877 78.1698C95.6877 78.0651 95.6604 77.9405 95.7746 77.8557C96.1598 77.5703 96.5437 77.2824 96.9261 76.9921C96.9403 76.978 96.9576 76.9675 96.9766 76.9614C96.9956 76.9553 97.0157 76.9538 97.0354 76.957C97.0551 76.9601 97.0738 76.9679 97.0899 76.9796C97.106 76.9914 97.1191 77.0067 97.1282 77.0245C97.1701 77.079 97.214 77.1292 97.258 77.1847C98.3684 78.5366 99.4781 79.8888 100.587 81.2414C100.635 81.3099 100.7 81.365 100.775 81.4016C100.85 81.4383 100.934 81.4552 101.017 81.4508C101.818 81.4393 102.619 81.4508 103.419 81.4434C103.49 81.4434 103.579 81.4874 103.628 81.3953C103.584 81.2898 103.517 81.195 103.434 81.1168C101.955 79.2841 100.476 77.4513 98.9958 75.6185C98.7917 75.3662 98.7414 75.4081 99.0471 75.1516Z" fill="black" fill-opacity="0.5"/>
<path d="M52.9947 80.219C51.6233 77.3317 50.255 74.4437 48.8899 71.555C48.7622 71.2828 48.6166 71.1886 48.3246 71.2074C47.9139 71.2325 47.502 71.2325 47.0913 71.2074C46.8149 71.1917 46.6726 71.2807 46.5532 71.5414C45.4467 73.9597 44.3223 76.3696 43.2032 78.7837C42.7844 79.6945 42.3657 80.6095 41.9521 81.5224H44.2166C44.5966 80.754 44.9798 79.9887 45.3504 79.2192C45.431 79.0528 45.543 79.0245 45.7052 79.0256C46.6883 79.0256 47.6723 79.0256 48.6564 79.0256C48.9768 79.0256 49.2971 79.0256 49.6175 79.0256C49.6735 79.0191 49.7302 79.0311 49.7788 79.0599C49.8273 79.0886 49.8652 79.1324 49.8865 79.1847C50.255 79.9332 50.6309 80.6776 51.0025 81.425C51.0116 81.4591 51.0148 81.4946 51.0119 81.5297H53.5517C53.6019 81.425 53.5266 81.357 53.4899 81.2785C53.3287 80.9246 53.1612 80.5697 52.9947 80.219ZM46.2517 77.183L47.6556 74.4339C48.1361 75.3897 48.5779 76.2722 49.0385 77.1893L46.2517 77.183Z" fill="black" fill-opacity="0.5"/>
<path d="M67.068 76.2447C66.957 76.1703 66.8199 76.1295 66.7361 76.0196C66.7445 76.0007 66.7466 75.9892 66.7539 75.9829C66.7989 75.9473 66.8439 75.9128 66.89 75.8782C67.4721 75.4595 67.8154 74.9004 67.8636 74.1823C67.9683 72.6967 67.2355 71.5954 65.8023 71.2437C65.3558 71.143 64.8989 71.0963 64.4413 71.1044C62.3824 71.1044 60.3236 71.1044 58.2647 71.1044C57.9632 71.1044 57.959 71.1044 57.959 71.4007C57.959 74.6488 57.959 77.8973 57.959 81.1462C57.959 81.4446 57.959 81.4446 58.2594 81.4477H58.3966C60.3187 81.4477 62.2404 81.4477 64.1618 81.4477C64.5734 81.4502 64.9849 81.4285 65.394 81.3828C67.0408 81.1933 68.2719 80.0742 68.186 78.2222C68.1787 77.8257 68.0726 77.4372 67.8774 77.0919C67.6821 76.7466 67.404 76.4554 67.068 76.2447ZM60.3469 73.4547C60.3469 73.2045 60.3532 73.1961 60.5856 73.1961C61.8084 73.1961 63.0319 73.1979 64.256 73.2013C64.485 73.1984 64.7131 73.2305 64.9323 73.2966C65.3249 73.4222 65.4966 73.6829 65.4903 74.1341C65.484 74.5602 65.3019 74.8146 64.9229 74.9319C64.6461 75.0049 64.36 75.0367 64.0739 75.0261C63.5588 75.0313 63.0448 75.0261 62.5297 75.0261C61.8901 75.0261 61.2494 75.0261 60.6087 75.0261C60.3522 75.0261 60.349 75.0198 60.3469 74.756C60.3441 74.3233 60.3441 73.8895 60.3469 73.4547ZM65.2097 79.1592C64.8046 79.3466 64.3659 79.3539 63.9325 79.3686C63.4635 79.3811 62.9903 79.3686 62.5255 79.3686C61.8974 79.3686 61.2692 79.3686 60.6411 79.3686C60.3532 79.3686 60.349 79.3686 60.348 79.0943C60.348 78.5101 60.348 77.927 60.348 77.3439C60.348 77.1806 60.4014 77.1261 60.5647 77.1272C61.821 77.1345 63.0772 77.1272 64.3335 77.1418C64.6089 77.1444 64.8817 77.1951 65.1396 77.2915C65.55 77.4454 65.7468 77.7543 65.7677 78.1856C65.7887 78.6169 65.6243 78.9687 65.2097 79.1592Z" fill="black" fill-opacity="0.5"/>
<path d="M91.5805 71.1004C91.0423 71.1098 90.5053 71.1004 89.9672 71.1004C89.5736 71.1004 89.6018 71.0679 89.6018 71.4751C89.6018 73.3044 89.6018 75.134 89.6018 76.964C89.6018 77.0781 89.6406 77.2058 89.5286 77.3409C89.4312 77.2299 89.3516 77.1315 89.2637 77.0425C87.3967 75.1399 85.5308 73.2374 83.666 71.3349C83.5969 71.2537 83.5098 71.1898 83.4116 71.1482C83.3135 71.1066 83.207 71.0884 83.1006 71.0951C82.6547 71.1119 82.2087 71.0951 81.7627 71.1004C81.344 71.1004 81.366 71.0553 81.366 71.4793V81.051C81.366 81.1201 81.366 81.1882 81.366 81.2604C81.3586 81.386 81.4068 81.4489 81.5418 81.4478C82.1595 81.4478 82.7772 81.4478 83.3948 81.4478C83.5225 81.4478 83.5885 81.4049 83.5843 81.2719C83.5843 81.1798 83.5843 81.0887 83.5843 80.9966C83.5843 79.1562 83.5843 77.315 83.5843 75.4732C83.5685 75.3495 83.5774 75.2239 83.6105 75.1037C83.7277 75.1152 83.7717 75.2083 83.8324 75.2659C84.2439 75.6784 84.6521 76.0951 85.0625 76.5096C86.6203 78.0883 88.1781 79.6681 89.7358 81.2489C89.7947 81.3167 89.8684 81.3701 89.9511 81.405C90.0339 81.4398 90.1236 81.4552 90.2132 81.4499C90.632 81.4363 91.0601 81.4499 91.4831 81.4499C91.817 81.4499 91.8171 81.4499 91.8202 81.1128V71.538C91.8202 71.4689 91.815 71.3998 91.8202 71.3286C91.8369 71.1527 91.7574 71.0972 91.5805 71.1004Z" fill="black" fill-opacity="0.5"/>
<path d="M78.1935 76.9987C77.3016 75.1206 76.411 73.2425 75.5219 71.3643C75.4329 71.1749 75.3303 71.0901 75.1126 71.0984C74.6446 71.1152 74.1704 71.1173 73.7076 71.0984C73.4784 71.089 73.3663 71.1644 73.27 71.3738C71.7695 74.6303 70.2644 77.8847 68.7548 81.1371C68.714 81.226 68.6354 81.3087 68.6826 81.4511C69.3589 81.4511 70.0435 81.4511 70.725 81.4511C70.8936 81.4511 70.9344 81.337 70.9857 81.2271C71.328 80.5424 71.6777 79.8661 72.0085 79.171C72.0393 79.0875 72.0975 79.0169 72.1735 78.9707C72.2495 78.9245 72.339 78.9054 72.4273 78.9166C73.6731 78.926 74.9189 78.9281 76.1647 78.9166C76.4034 78.9166 76.529 78.9836 76.6326 79.2055C76.953 79.8871 77.3016 80.556 77.6397 81.2292C77.6952 81.3412 77.7329 81.4532 77.9004 81.4522C78.6772 81.4448 79.454 81.4522 80.257 81.4522C80.2491 81.3344 80.2132 81.2203 80.1523 81.1193C79.4983 79.7436 78.8454 78.3701 78.1935 76.9987ZM72.9978 77.1034C73.024 76.8731 74.0447 74.8285 74.3588 74.3815L75.7271 77.1034H72.9978Z" fill="black" fill-opacity="0.5"/>
</svg>
