<svg width="136" height="42" viewBox="0 0 136 42" fill="none" xmlns="http://www.w3.org/2000/svg">
<g clip-path="url(#clip0_1_14116)">
<path fill-rule="evenodd" clip-rule="evenodd" d="M20.936 0C32.4918 0 41.8598 9.36786 41.8598 20.9235C41.8598 32.4792 32.4918 41.8471 20.936 41.8471C9.38051 41.8471 0.0126953 32.4792 0.0126953 20.9235C0.0126953 9.36786 9.38051 0 20.936 0Z" fill="black" fill-opacity="0.5"/>
<path fill-rule="evenodd" clip-rule="evenodd" d="M27.9103 6.53711C31.2677 6.53711 33.9896 9.25896 33.9896 12.6164C33.9896 15.9739 31.2677 18.6957 27.9103 18.6957C24.5527 18.6957 21.8311 15.9739 21.8311 12.6164C21.8311 9.25896 24.5527 6.53711 27.9103 6.53711Z" fill="white"/>
<path fill-rule="evenodd" clip-rule="evenodd" d="M60.0542 32.175C60.0542 29.8697 58.526 28.2411 55.3947 27.5896C52.1883 26.913 51.3865 26.2867 51.3865 25.2593C51.3865 23.9313 52.3636 23.0543 55.019 23.0543C56.8976 23.0543 58.4258 23.6055 59.478 24.7331H59.5783V23.1547C59.5783 21.7264 58.4258 20.0224 54.4175 20.0224C50.3844 20.0224 47.9795 22.7286 47.9795 25.585C47.9795 27.9153 49.6328 29.3686 52.5387 29.995C56.1712 30.7718 56.6222 31.298 56.6222 32.4756C56.6222 33.8537 55.7956 34.7307 53.2152 34.7307C51.1361 34.7307 49.583 33.9038 48.4305 32.8765H48.3555V34.4051C48.3555 36.4345 50.134 37.7876 53.5909 37.7876C57.7495 37.7876 60.0542 35.5575 60.0542 32.175ZM62.3128 24.5076V32.626C62.3128 35.783 63.9663 37.6374 67.3733 37.6374C69.3272 37.6374 70.3293 36.7602 70.3293 35.3822V34.1794H70.204C69.678 34.5051 68.8513 34.6557 67.7742 34.6557C66.4213 34.6557 65.6445 33.9791 65.6445 32.225V26.9381H68.3252C69.7028 26.9381 70.3293 26.0362 70.3293 25.3344V23.9563H65.6445V20.8994H64.868C64.3418 20.8994 63.7407 21.3002 63.2897 21.8265C62.5633 22.6784 62.3128 23.1796 62.3128 24.5076ZM83.1094 28.8926C83.1094 25.6602 80.504 23.6557 77.6982 23.6557C73.8404 23.6557 71.0848 26.4872 71.0848 30.9973C71.0848 35.1316 74.3665 37.7876 77.7235 37.7876C81.4311 37.7876 82.6085 36.4595 82.6085 34.7307V33.6783H82.4828C81.4058 34.6806 79.7525 34.9564 78.3494 34.9564C76.3703 34.9564 74.8172 33.8788 74.5667 32.175H76.7711C81.2304 32.175 83.1094 31.3732 83.1094 28.8926ZM79.9528 28.4916C79.9528 29.4436 79.2264 29.7946 76.0448 29.7946H74.5419L74.5667 29.3436C74.6422 27.79 75.7692 26.4622 77.3976 26.4622C78.9507 26.4622 79.9528 27.1385 79.9528 28.4916ZM92.8583 27.2388V26.0362C92.8583 25.0089 92.1316 23.8311 90.0525 23.8311C86.4953 23.8311 85.0675 26.4118 85.0675 29.1181V35.332C85.0675 36.7352 86.0193 37.487 87.5222 37.487H88.4492V29.7194C88.4492 27.6648 89.2759 26.8378 90.7788 26.8378C91.6556 26.8378 92.2318 27.0385 92.7331 27.2388H92.8583ZM100.778 35.5826V34.8561H99.8768C98.2985 34.8561 97.5971 34.4301 97.5971 33.077V21.7012C97.5971 20.4233 96.8707 19.4461 95.1921 19.4461H94.2403V33.4029C94.2403 36.1339 95.7435 37.6124 98.5241 37.6124C100.002 37.6124 100.778 37.036 100.778 35.5826ZM105.718 21.0247C105.718 19.9474 104.816 19.0703 103.739 19.0703C102.662 19.0703 101.785 19.9474 101.785 21.0247C101.785 22.1022 102.662 23.0042 103.739 23.0042C104.816 23.0042 105.718 22.1022 105.718 21.0247ZM108.123 35.5826V34.8561H107.496C106.019 34.8561 105.442 34.4301 105.442 33.077V26.7626C105.442 25.059 104.541 24.257 103.037 24.257H102.085C102.085 24.257 102.085 32.626 102.085 33.4029C102.085 36.1339 103.513 37.6124 106.119 37.6124C107.547 37.6124 108.123 37.036 108.123 35.5826ZM121.279 37.487V29.6191C121.279 25.7854 118.649 23.6557 115.467 23.6557C111.258 23.6557 109.379 26.5873 109.379 29.4436V35.282C109.379 36.5348 110.306 37.487 111.734 37.487H112.736V29.6692C112.736 27.74 113.738 26.6375 115.191 26.6375C116.92 26.6375 117.922 27.6398 117.922 29.9199V35.282C117.922 36.5348 118.874 37.487 120.377 37.487H121.279ZM135.737 31.8742V29.5691C135.737 26.1112 133.583 23.6557 130.226 23.6557C125.867 23.6557 123.362 26.7377 123.362 30.5464C123.362 33.7284 125.692 36.0088 128.973 36.0088C130.902 36.0088 132.18 34.9814 132.455 34.0042V34.3298C132.455 34.4552 132.481 34.8057 132.481 35.0065C132.506 35.2319 132.506 35.5074 132.506 35.7079C132.506 37.6623 131.404 38.8149 128.973 38.8149C127.045 38.8149 125.491 38.2136 124.69 37.3615H124.539V38.8902C124.539 40.4939 126.443 41.8468 129.224 41.8468C133.583 41.8468 135.838 38.8149 135.838 35.4324C135.838 34.9814 135.812 34.2546 135.787 33.7034C135.762 33.1021 135.737 32.3254 135.737 31.8742ZM129.85 26.6375C131.329 26.6375 132.38 27.6648 132.38 29.7695C132.38 31.9243 131.178 33.1771 129.499 33.1771C127.896 33.1771 126.819 31.8742 126.819 30.1202C126.819 28.0908 128.122 26.6375 129.85 26.6375Z" fill="black" fill-opacity="0.5"/>
</g>
<defs>
<clipPath id="clip0_1_14116">
<rect width="135.919" height="41.8471" fill="white"/>
</clipPath>
</defs>
</svg>
