<svg width="115" height="80" viewBox="0 0 115 80" fill="none" xmlns="http://www.w3.org/2000/svg">
<g clip-path="url(#clip0_1_14137)">
<path d="M99.2292 49.7119C96.2755 53.308 92.5932 56.2373 88.425 58.3068C84.2004 60.4555 79.5752 61.4631 74.4644 61.4631C70.0456 61.4631 65.9546 60.6497 62.1306 59.0352C58.3998 57.4837 54.9848 55.2619 52.0547 52.4798C49.1914 49.7161 46.9127 46.4052 45.3537 42.7438C43.7048 38.9781 42.8613 34.9093 42.8772 30.7984L47.4417 20.8682L52.2611 31.3326L56.9591 41.3356C58.7837 43.7637 61.064 45.813 63.6723 47.369C64.6071 47.976 65.6147 48.5101 66.6951 48.9836C69.1667 50.0654 71.8394 50.6115 74.5373 50.586C78.167 50.586 81.4568 49.7848 84.2732 48.1095C87.0782 46.4643 89.483 44.2171 91.3142 41.5299L99.2292 49.7119ZM54.6283 6.24002C60.1864 2.11043 66.9458 -0.0815825 73.8696 0.000258043C78.9682 0.000258043 83.6056 1.06854 87.8301 3.15656C91.8845 5.16249 95.4739 7.99515 98.3673 11.4722L90.4402 19.5936C88.6144 16.9719 86.2039 14.8108 83.3992 13.281C80.4869 11.6605 77.2022 10.8278 73.8696 10.8652C71.126 10.8652 68.5039 11.4115 66.0274 12.4798C63.6514 13.5049 61.4863 14.9621 59.642 16.7772L54.6283 6.24002Z" fill="black" fill-opacity="0.5"/>
<path d="M57.6391 40.6681L52.9289 30.5923L47.3568 18.5862L27.4357 61.3176H14.8105L42.853 2.01562H51.8485L74.4646 49.8457C67.9577 49.6514 61.2445 45.6211 57.6269 40.656L57.6391 40.6681Z" fill="black" fill-opacity="0.5"/>
<path d="M12.6252 79.7824H10.1244L9.04401 77.5001L7.38088 73.8097L6.31259 71.4546L5.22003 73.7369L2.81639 78.9083L2.41578 79.7824H0L5.43854 68.2255H7.16237L12.6009 79.7581L12.6252 79.7824ZM21.4021 79.7824H13.8391V68.2255H21.4143V70.1071H15.9757V72.8507H21.3536V74.6716H15.9757V77.8279H21.4143V79.7702L21.4021 79.7824ZM30.9317 79.7824H23.1502V68.2255H25.4325V77.5487H30.9317V79.7702V79.7824ZM40.0607 79.7824H32.2064V68.2255H34.4765V77.5487H39.9757V79.7702H40.0486L40.0607 79.7824ZM53.0015 79.7824H50.525L49.7845 78.2285L49.4446 77.5001L47.5023 73.3363L46.6282 71.4546L44.6859 75.6185L43.4719 78.2285L42.7435 79.7824H40.2549L45.6935 68.2376H47.4416L53.0015 79.7702V79.7824ZM69.1715 77.6944C68.5905 78.3779 67.8864 78.9461 67.0956 79.3696C66.2944 79.7824 65.3475 79.9766 64.3399 79.9766C63.478 79.9766 62.6646 79.8552 61.9241 79.5032C60.4879 78.8789 59.3244 77.7585 58.6464 76.3469C58.3065 75.6185 58.1608 74.8901 58.1608 74.0039C58.1508 73.2114 58.3077 72.4256 58.6214 71.6977C58.9352 70.9699 59.3987 70.3162 59.9818 69.7793C60.5159 69.2452 61.1958 68.8446 61.9241 68.5047C62.6646 68.1648 63.478 68.0312 64.352 68.0312C65.3475 68.0312 66.2215 68.2376 67.0956 68.6382C67.8841 69.0393 68.5887 69.5873 69.1715 70.2528L67.6297 71.8552C67.2952 71.3164 66.8038 70.8927 66.2215 70.6413C65.6968 70.3656 65.1172 70.2106 64.525 70.1875C63.9327 70.1644 63.3428 70.2738 62.7982 70.5077C62.3352 70.714 61.9056 70.9881 61.5235 71.3211C61.179 71.6847 60.8851 72.093 60.6495 72.535C60.4395 72.9966 60.3278 73.4969 60.3217 74.0039C60.3217 74.5381 60.4431 75.0115 60.6495 75.485C60.8558 75.9584 61.1229 76.359 61.5235 76.6989C61.8634 77.0267 62.264 77.2938 62.7982 77.5001C63.2716 77.6944 63.8058 77.8279 64.3399 77.8279C65.0804 77.8279 65.6753 77.7065 66.2215 77.3666C66.7557 77.0267 67.2291 76.6261 67.5569 76.0919L69.1715 77.6944ZM79.041 79.7824H76.5523L75.7511 77.1602C75.6783 76.8932 75.5448 76.6261 75.4112 76.359C75.3141 76.1193 75.1548 75.9098 74.9499 75.752C74.7666 75.5559 74.5305 75.4168 74.2701 75.3514C73.9858 75.2691 73.692 75.2242 73.396 75.2179H72.5948V79.7824H70.3854V68.2255H74.9499C75.4112 68.2255 75.8847 68.2862 76.2853 68.4926C76.6859 68.6989 77.0865 68.8932 77.3657 69.1602C77.6935 69.4273 77.8998 69.84 78.0941 70.2407C78.3005 70.6413 78.3612 71.1147 78.3612 71.576C78.3612 71.9159 78.3005 72.2558 78.2398 72.5836C78.0941 72.9235 77.9605 73.1906 77.7542 73.4576C77.567 73.7306 77.3422 73.9758 77.0865 74.186C76.8228 74.3866 76.5328 74.55 76.2246 74.6716C76.5523 74.793 76.8923 74.9994 77.0865 75.2786C77.2929 75.5335 77.4992 75.8006 77.6328 76.2133C77.6935 76.3347 77.7542 76.5411 77.827 76.6746C77.8998 76.8082 77.9605 77.0146 78.0334 77.2209L78.2276 77.8279C78.3031 78.0574 78.3964 78.2807 78.5068 78.4956L78.7739 79.2968C78.8346 79.4182 78.8953 79.6246 79.041 79.7702V79.7824ZM76.1517 71.7217C76.1517 71.4546 76.091 71.1875 76.0182 70.9933L75.6176 70.3863L75.0106 69.9857C74.7435 69.9129 74.5372 69.8522 74.2822 69.8522H72.6677V73.4698H74.2701C74.5372 73.4698 74.8164 73.3969 75.0106 73.3363C75.2777 73.2634 75.4841 73.1299 75.6176 72.9963C75.806 72.8669 75.9467 72.6793 76.0182 72.4622C76.091 72.268 76.1517 71.9888 76.1517 71.7338V71.7217ZM88.0243 79.7824H80.4492V68.2255H88.0121V70.1071H82.5857V72.8507H87.9514V74.6716H82.5857V77.8279H88.0121V79.7702L88.0243 79.7824ZM100.042 74.0039C100.055 75.4936 99.5041 76.9331 98.5008 78.0343C98.0225 78.5717 97.4233 78.9878 96.7527 79.2482C96.059 79.5753 95.2977 79.7334 94.5311 79.7095H89.7117V68.1769H94.5311C95.2977 68.1531 96.059 68.3112 96.7527 68.6382C97.4203 68.9781 98.0273 69.3666 98.5008 69.8522C98.9621 70.3863 99.3627 70.9933 99.6419 71.661C99.9043 72.4144 100.04 73.2061 100.042 74.0039ZM97.7602 73.9432C97.7602 73.3969 97.6874 72.8628 97.4932 72.4015C97.3126 71.9414 97.0629 71.5116 96.7527 71.1268C96.4127 70.7869 96.0243 70.447 95.5387 70.2528C95.0332 70.0317 94.488 69.916 93.9363 69.9129H91.9939V77.9007H93.9363C94.5432 77.9007 95.0774 77.8279 95.5387 77.6337C96.0243 77.4273 96.4127 77.1602 96.7527 76.8203C97.0926 76.4925 97.3596 76.0919 97.481 75.6064C97.6267 75.0844 97.7602 74.5381 97.7602 73.9432ZM104 79.7702H101.778V68.2376H104V79.7702ZM114.064 70.2528H110.907V79.7824H108.625V70.2528H105.469V68.2255H114.064V70.2407V70.2528Z" fill="#283947"/>
</g>
<defs>
<clipPath id="clip0_1_14137">
<rect width="114.112" height="80" fill="white"/>
</clipPath>
</defs>
</svg>
