<svg width="156" height="45" viewBox="0 0 156 45" fill="none" xmlns="http://www.w3.org/2000/svg">
<path fill-rule="evenodd" clip-rule="evenodd" d="M70.9452 10.9886C68.9112 11.2931 66.683 12.4783 65.4328 13.9203L64.839 14.6055L64.838 13.078L64.8371 11.5504H63.0406H61.2441V28.1044V44.6584H63.0406H64.8371V37.2033V29.7483L65.8196 30.7197C66.5448 31.4367 67.1185 31.8442 68.0113 32.2763C69.6234 33.0569 70.6336 33.2909 72.3895 33.2909C77.564 33.2909 81.5026 29.8589 82.4424 24.5311C83.5271 18.3806 80.2104 12.5423 74.8731 11.2074C73.7676 10.9309 71.9911 10.8319 70.9452 10.9886ZM93.4381 10.9986C88.2052 11.7825 84.6703 16.2687 84.6703 22.1261C84.6703 24.3239 85.104 26.0691 86.1561 28.1044C86.5978 28.9591 87.0481 29.5419 87.9705 30.453C89.3781 31.8434 90.6273 32.5688 92.3749 33.0107C93.7251 33.3521 95.9759 33.3817 97.2905 33.0752C98.9309 32.693 100.979 31.4879 101.875 30.378C102.095 30.1044 102.324 29.8806 102.384 29.8806C102.443 29.8806 102.491 30.52 102.491 31.3016V32.7225H104.288H106.084V22.1365V11.5504H104.288H102.491V12.9714C102.491 13.7529 102.45 14.3923 102.4 14.3923C102.35 14.3923 101.836 13.9483 101.258 13.4055C100.158 12.3723 98.5016 11.4568 97.1738 11.1485C96.1626 10.9136 94.4613 10.8452 93.4381 10.9986ZM118.234 10.9899C114.377 11.5821 111.284 14.2673 109.979 18.1578C109.223 20.411 109.136 23.1918 109.749 25.5467C110.058 26.7354 111.106 28.8024 111.89 29.7696C113.653 31.9443 116.027 33.1137 118.962 33.2529C121.822 33.3886 124.14 32.5767 126.093 30.7548L127.102 29.8137L127.03 32.6535C126.932 36.5325 126.526 37.9209 125.035 39.4794C122.674 41.9476 117.505 41.8217 115.059 39.2363C114.217 38.3455 113.572 36.9862 113.443 35.8264L113.342 34.925L111.491 34.885L109.639 34.8451L109.739 35.7376C110.015 38.2236 110.828 39.9702 112.477 41.6212C113.444 42.5894 113.85 42.8798 114.995 43.4218C116.795 44.2738 118.211 44.5772 120.313 44.5612C125.177 44.5242 128.885 41.9393 130.209 37.6634C130.736 35.9617 130.804 34.252 130.804 22.6898V11.5504H128.936H127.067V13.0117V14.473L126.015 13.4524C123.982 11.4812 121.059 10.5562 118.234 10.9899ZM143.021 10.9986C138.542 11.6697 135.304 15.0073 134.451 19.8336C133.999 22.393 134.417 25.5311 135.494 27.6507C136.91 30.4402 139.37 32.425 142.23 33.0858C143.762 33.4399 146.345 33.3162 147.759 32.8207C149.001 32.386 150.5 31.4216 151.347 30.5127C151.671 30.165 151.968 29.8806 152.006 29.8806C152.043 29.8806 152.074 30.52 152.074 31.3016V32.7225H153.871H155.667V22.1365V11.5504H153.871H152.074V13.0676V14.5846L151.286 13.7862C150.005 12.4894 148.37 11.5385 146.757 11.1529C145.76 10.9144 144.053 10.844 143.021 10.9986ZM73.5261 14.4678C76.9874 15.3591 79.1018 18.5338 78.8722 22.4948C78.6368 26.5568 76.3914 29.3276 72.8691 29.9028C70.2674 30.3275 67.7933 29.2918 66.2627 27.1369C64.4782 24.6247 64.1974 20.8322 65.5902 18.0572C66.4357 16.3728 68.3693 14.8112 70.1113 14.406C70.985 14.2026 72.6109 14.2321 73.5261 14.4678ZM97.2514 14.4695C98.5426 14.7999 99.2708 15.2003 100.282 16.1353C104.062 19.6319 103.11 27.1288 98.611 29.2848C96.8253 30.1405 94.4761 30.2062 92.7443 29.4488C88.9353 27.7829 87.2506 22.2433 89.2985 18.1179C89.8697 16.9668 91.3276 15.4615 92.343 14.9742C93.8674 14.2427 95.6492 14.0594 97.2514 14.4695ZM121.622 14.393C123.511 14.7416 125.457 16.1979 126.337 17.9212C127.004 19.2282 127.26 20.361 127.256 21.9944C127.245 26.4853 124.716 29.5797 120.744 29.9625C117.945 30.2322 115.354 28.7503 114.068 26.1443C113.364 24.7199 113.127 23.6715 113.127 21.9944C113.127 20.2979 113.37 19.2635 114.085 17.9177C115.559 15.1443 118.426 13.8034 121.622 14.393ZM147.547 14.6652C150.991 15.8632 152.828 19.7132 152.004 24.0067C151.238 27.9983 147.885 30.4837 144.047 29.9028C140.651 29.3887 138.324 26.5728 138.039 22.6335C137.759 18.7514 139.897 15.4184 143.291 14.4475C144.248 14.1739 146.46 14.287 147.547 14.6652Z" fill="black" fill-opacity="0.5"/>
<path fill-rule="evenodd" clip-rule="evenodd" d="M40.9265 13.4758C40.9265 15.7525 39.0809 17.5981 36.8042 17.5981C34.5275 17.5981 32.6819 15.7525 32.6819 13.4758C32.6819 11.1991 34.5275 9.35352 36.8042 9.35352C39.0809 9.35352 40.9265 11.1991 40.9265 13.4758ZM11.6235 15.3279C11.6235 17.6046 9.77789 19.4502 7.50121 19.4502C5.22452 19.4502 3.37891 17.6046 3.37891 15.3279C3.37891 13.0512 5.22452 11.2056 7.50121 11.2056C9.77789 11.2056 11.6235 13.0512 11.6235 15.3279ZM23.369 43.4526C25.6457 43.4526 27.4914 41.607 27.4914 39.3303C27.4914 37.0536 25.6457 35.208 23.369 35.208C21.0924 35.208 19.2467 37.0536 19.2467 39.3303C19.2467 41.607 21.0924 43.4526 23.369 43.4526Z" fill="black" fill-opacity="0.5"/>
<path fill-rule="evenodd" clip-rule="evenodd" d="M14.1313 11.0017C15.725 11.0017 17.0169 9.70976 17.0169 8.11608C17.0169 6.5224 15.725 5.23047 14.1313 5.23047C12.5376 5.23047 11.2457 6.5224 11.2457 8.11608C11.2457 9.70976 12.5376 11.0017 14.1313 11.0017ZM42.3314 22.9158C42.3314 24.5094 41.0395 25.8014 39.4458 25.8014C37.8521 25.8014 36.5602 24.5094 36.5602 22.9158C36.5602 21.3221 37.8521 20.0301 39.4458 20.0301C41.0395 20.0301 42.3314 21.3221 42.3314 22.9158ZM16.57 36.8909C16.57 38.4846 15.2781 39.7765 13.6844 39.7765C12.0908 39.7765 10.7988 38.4846 10.7988 36.8909C10.7988 35.2972 12.0908 34.0053 13.6844 34.0053C15.2781 34.0053 16.57 35.2972 16.57 36.8909Z" fill="black" fill-opacity="0.5"/>
<path fill-rule="evenodd" clip-rule="evenodd" d="M32.3977 6.18345C32.3977 9.59848 29.6293 12.3669 26.2143 12.3669C22.7992 12.3669 20.0308 9.59848 20.0308 6.18345C20.0308 2.76843 22.7992 0 26.2143 0C29.6293 0 32.3977 2.76843 32.3977 6.18345ZM41.5481 34.006C41.5481 37.6487 38.5951 40.6017 34.9524 40.6017C31.3097 40.6017 28.3567 37.6487 28.3567 34.006C28.3567 30.3633 31.3097 27.4103 34.9524 27.4103C38.5951 27.4103 41.5481 30.3633 41.5481 34.006ZM6.59568 34.5867C10.2384 34.5867 13.1914 31.6337 13.1914 27.991C13.1914 24.3483 10.2384 21.3953 6.59568 21.3953C2.95299 21.3953 0 24.3483 0 27.991C0 31.6337 2.95299 34.5867 6.59568 34.5867Z" fill="black" fill-opacity="0.5"/>
</svg>
