<svg width="337" height="63" viewBox="0 0 337 63" fill="none" xmlns="http://www.w3.org/2000/svg">
<g clip-path="url(#clip0_45_3980)">
<rect y="-4" width="288" height="80" fill="white"/>
<path d="M94.876 47V32.544H89.312V28.67H105.25V32.544H99.686V47H94.876ZM107.27 47V28.67H112.08V47H107.27ZM124.675 47.286C122.682 47.286 120.957 46.896 119.501 46.116C118.063 45.336 116.945 44.2353 116.147 42.814C115.367 41.3927 114.977 39.7287 114.977 37.822C114.977 35.9153 115.367 34.26 116.147 32.856C116.945 31.4347 118.063 30.334 119.501 29.554C120.957 28.774 122.682 28.384 124.675 28.384C125.941 28.384 127.093 28.5573 128.133 28.904C129.173 29.2333 130.049 29.71 130.759 30.334L129.329 34.104C128.532 33.532 127.795 33.1333 127.119 32.908C126.461 32.6653 125.707 32.544 124.857 32.544C123.297 32.544 122.093 33.0033 121.243 33.922C120.411 34.8233 119.995 36.1233 119.995 37.822C119.995 39.538 120.411 40.8553 121.243 41.774C122.093 42.6753 123.297 43.126 124.857 43.126C125.707 43.126 126.461 43.0133 127.119 42.788C127.795 42.5453 128.532 42.138 129.329 41.566L130.759 45.336C130.049 45.96 129.173 46.4453 128.133 46.792C127.093 47.1213 125.941 47.286 124.675 47.286ZM133.27 47V28.67H138.08V36.522H138.132L145.152 28.67H150.768L141.876 38.316V36.418L151.262 47H145.464L138.132 38.732H138.08V47H133.27ZM151.577 47V28.67H164.733V32.336H156.179V35.846H164.109V39.538H156.179V43.308H164.733V47H151.577ZM171.556 47V32.544H165.992V28.67H181.93V32.544H176.366V47H171.556ZM191.465 47V28.67H204.621V32.336H196.067V35.846H203.997V39.538H196.067V43.308H204.621V47H191.465ZM204.59 47L213.17 28.67H217.07L225.702 47H220.892L218.682 41.956L220.528 43.282H209.764L211.584 41.956L209.4 47H204.59ZM215.094 33.61L212.052 40.864L211.324 39.642H218.942L218.292 40.864L215.224 33.61H215.094ZM233.496 47.286C232.023 47.286 230.619 47.1127 229.284 46.766C227.967 46.402 226.857 45.9167 225.956 45.31L227.308 41.592C227.88 41.956 228.504 42.268 229.18 42.528C229.856 42.788 230.558 42.996 231.286 43.152C232.031 43.2907 232.785 43.36 233.548 43.36C234.692 43.36 235.481 43.2127 235.914 42.918C236.365 42.6233 236.59 42.242 236.59 41.774C236.59 41.358 236.443 41.0373 236.148 40.812C235.853 40.5693 235.299 40.3613 234.484 40.188L231.312 39.538C229.631 39.1913 228.374 38.5933 227.542 37.744C226.71 36.8773 226.294 35.7507 226.294 34.364C226.294 33.1507 226.615 32.102 227.256 31.218C227.915 30.3167 228.833 29.6233 230.012 29.138C231.191 28.6353 232.569 28.384 234.146 28.384C235.446 28.384 236.668 28.566 237.812 28.93C238.956 29.2767 239.892 29.762 240.62 30.386L239.268 33.87C238.575 33.3673 237.795 32.986 236.928 32.726C236.061 32.4487 235.099 32.31 234.042 32.31C233.037 32.31 232.274 32.466 231.754 32.778C231.251 33.0727 231 33.4973 231 34.052C231 34.4333 231.147 34.7627 231.442 35.04C231.754 35.3 232.317 35.5167 233.132 35.69L236.252 36.314C237.933 36.6433 239.19 37.2327 240.022 38.082C240.871 38.9313 241.296 40.0407 241.296 41.41C241.296 42.5887 240.967 43.62 240.308 44.504C239.667 45.388 238.765 46.0727 237.604 46.558C236.443 47.0433 235.073 47.286 233.496 47.286ZM244.049 47V28.67H257.205V32.336H248.651V35.846H256.581V39.538H248.651V43.308H257.205V47H244.049Z" fill="#031839"/>
<path d="M64.286 12.5974C67.9826 14.6808 73.4199 19.4229 73.4199 19.4229C73.4199 19.4229 66.1381 17.962 62.4162 17.719C58.5922 17.4694 54.8201 17.932 51.6254 18.7129C45.1843 20.2874 39.0599 23.6824 39.0599 23.6824L34.5008 15.9986C34.5008 15.9986 47.0104 9.84743 54.5361 10.1939L54.5506 10.1946C58.8751 10.3937 60.5094 10.4689 64.286 12.5974Z" fill="#21334F"/>
<circle cx="51.8388" cy="7.42476" r="3.97555" fill="#21334F"/>
<path d="M71.6055 47.8081C70.0177 51.7432 66.0186 57.748 66.0186 57.748C66.0186 57.748 66.5255 50.3385 66.2851 46.6164C66.0381 42.7922 65.0916 39.1116 63.9041 36.0447C61.5098 29.8613 57.3514 24.2273 57.3514 24.2273L64.381 18.7129C64.381 18.7129 72.0983 30.322 72.728 37.8293L72.7292 37.8438C73.091 42.1577 73.2277 43.788 71.6055 47.8081Z" fill="#505F98"/>
<circle cx="75.1247" cy="34.7961" r="3.97554" transform="rotate(82.5698 75.1247 34.7961)" fill="#505F98"/>
<path d="M38.1709 58.3421C34.0476 57.3403 27.5273 54.252 27.5273 54.252C27.5273 54.252 34.9323 53.6816 38.5805 52.9052C42.3287 52.1076 45.8337 50.6386 48.6964 49.0199C54.4684 45.7563 59.4415 40.8266 59.4415 40.8266L65.915 46.9844C65.915 46.9844 55.5444 56.3 48.2072 58.0091L48.193 58.0124C43.9768 58.9945 42.3835 59.3657 38.1709 58.3421Z" fill="#21334F"/>
<circle cx="51.5546" cy="59.9412" r="3.97555" transform="rotate(164.252 51.5546 59.9412)" fill="#21334F"/>
<path d="M28.1325 23.5789C28.6443 19.3665 30.9473 12.5293 30.9473 12.5293C30.9473 12.5293 32.3814 19.8164 33.5799 23.3485C34.8113 26.9774 36.6809 30.2861 38.6239 32.9394C42.5414 38.2892 48.02 42.6504 48.02 42.6504L42.6631 49.8008C42.6631 49.8008 32.1964 40.5933 29.6393 33.5069L29.6343 33.4933C28.165 29.4212 27.6096 27.8823 28.1325 23.5789Z" fill="#505F98"/>
<circle cx="28.1116" cy="37.0575" r="3.97555" transform="rotate(-112.478 28.1116 37.0575)" fill="#505F98"/>
</g>
<defs>
<clipPath id="clip0_45_3980">
<rect width="337" height="66.6406" fill="white" transform="translate(0 -4)"/>
</clipPath>
</defs>
</svg>
