<svg width="231" height="56" viewBox="0 0 231 56" fill="none" xmlns="http://www.w3.org/2000/svg">
<rect width="231" height="56" rx="6" fill="#505F98"/>
<path fill-rule="evenodd" clip-rule="evenodd" d="M66.5 38C72.0228 38 76.5 33.5228 76.5 28C76.5 22.4772 72.0228 18 66.5 18C60.9772 18 56.5 22.4772 56.5 28C56.5 33.5228 60.9772 38 66.5 38Z" fill="white"/>
<path fill-rule="evenodd" clip-rule="evenodd" d="M67.5 23C67.5 22.4477 67.0523 22 66.5 22C65.9477 22 65.5 22.4477 65.5 23V27H61.5C60.9477 27 60.5 27.4477 60.5 28C60.5 28.5523 60.9477 29 61.5 29H65.5V33C65.5 33.5523 65.9477 34 66.5 34C67.0523 34 67.5 33.5523 67.5 33V29H71.5C72.0523 29 72.5 28.5523 72.5 28C72.5 27.4477 72.0523 27 71.5 27H67.5V23Z" fill="#505F98"/>
<path d="M94.1 33.126C93.092 33.126 92.2333 32.9207 91.524 32.51C90.8147 32.0993 90.2687 31.516 89.886 30.76C89.5127 29.9947 89.326 29.094 89.326 28.058C89.326 27.022 89.5127 26.126 89.886 25.37C90.2687 24.614 90.8147 24.0307 91.524 23.62C92.2333 23.2093 93.092 23.004 94.1 23.004C94.8 23.004 95.4253 23.1067 95.976 23.312C96.5267 23.5173 97.0073 23.816 97.418 24.208L96.914 25.37C96.466 24.9873 96.0273 24.712 95.598 24.544C95.178 24.376 94.688 24.292 94.128 24.292C93.064 24.292 92.252 24.6187 91.692 25.272C91.132 25.9253 90.852 26.854 90.852 28.058C90.852 29.262 91.132 30.1953 91.692 30.858C92.252 31.5113 93.064 31.838 94.128 31.838C94.688 31.838 95.178 31.754 95.598 31.586C96.0273 31.418 96.466 31.138 96.914 30.746L97.418 31.908C97.0073 32.3 96.5267 32.6033 95.976 32.818C95.4253 33.0233 94.8 33.126 94.1 33.126ZM99.092 33V27.694C99.092 27.4047 99.0827 27.1153 99.064 26.826C99.0547 26.5273 99.036 26.2333 99.008 25.944H100.38L100.534 27.764H100.31C100.403 27.3253 100.562 26.9613 100.786 26.672C101.01 26.3827 101.281 26.168 101.598 26.028C101.925 25.888 102.265 25.818 102.62 25.818C102.769 25.818 102.895 25.8273 102.998 25.846C103.101 25.8553 103.203 25.874 103.306 25.902L103.292 27.162C103.133 27.0967 102.993 27.0593 102.872 27.05C102.76 27.0313 102.62 27.022 102.452 27.022C102.041 27.022 101.691 27.1153 101.402 27.302C101.113 27.4793 100.893 27.722 100.744 28.03C100.595 28.338 100.52 28.6693 100.52 29.024V33H99.092ZM107.564 33.126C106.425 33.126 105.529 32.804 104.876 32.16C104.222 31.516 103.896 30.6247 103.896 29.486C103.896 28.7487 104.036 28.1047 104.316 27.554C104.605 27.0033 105.002 26.5787 105.506 26.28C106.019 25.972 106.612 25.818 107.284 25.818C107.946 25.818 108.502 25.958 108.95 26.238C109.398 26.518 109.738 26.9147 109.972 27.428C110.205 27.932 110.322 28.5293 110.322 29.22V29.668H105.002V28.856H109.356L109.118 29.038C109.118 28.338 108.959 27.7967 108.642 27.414C108.334 27.022 107.886 26.826 107.298 26.826C106.644 26.826 106.14 27.0547 105.786 27.512C105.431 27.96 105.254 28.5807 105.254 29.374V29.514C105.254 30.3447 105.454 30.97 105.856 31.39C106.266 31.81 106.845 32.02 107.592 32.02C108.002 32.02 108.385 31.964 108.74 31.852C109.104 31.7307 109.449 31.5347 109.776 31.264L110.238 32.23C109.911 32.5193 109.514 32.7433 109.048 32.902C108.581 33.0513 108.086 33.126 107.564 33.126ZM114.646 33.126C114.021 33.126 113.475 32.9813 113.008 32.692C112.542 32.4027 112.178 31.9827 111.916 31.432C111.664 30.8813 111.538 30.228 111.538 29.472C111.538 28.7067 111.664 28.0533 111.916 27.512C112.178 26.9707 112.542 26.5553 113.008 26.266C113.475 25.9673 114.021 25.818 114.646 25.818C115.262 25.818 115.799 25.972 116.256 26.28C116.714 26.588 117.017 27.008 117.166 27.54H117.012L117.152 25.944H118.524C118.496 26.2333 118.468 26.5227 118.44 26.812C118.422 27.092 118.412 27.3673 118.412 27.638V33H116.998V31.432H117.152C117.003 31.9547 116.695 32.37 116.228 32.678C115.771 32.9767 115.244 33.126 114.646 33.126ZM114.996 32.02C115.603 32.02 116.088 31.8053 116.452 31.376C116.826 30.9467 117.012 30.312 117.012 29.472C117.012 28.632 116.826 28.002 116.452 27.582C116.088 27.1527 115.603 26.938 114.996 26.938C114.38 26.938 113.886 27.1527 113.512 27.582C113.148 28.002 112.966 28.632 112.966 29.472C112.966 30.312 113.148 30.9467 113.512 31.376C113.876 31.8053 114.371 32.02 114.996 32.02ZM123.219 33.126C122.454 33.126 121.875 32.9207 121.483 32.51C121.091 32.09 120.895 31.4647 120.895 30.634V27.036H119.523V25.944H120.895V24.082L122.309 23.704V25.944H124.269V27.036H122.309V30.508C122.309 31.0307 122.403 31.404 122.589 31.628C122.776 31.852 123.047 31.964 123.401 31.964C123.579 31.964 123.733 31.95 123.863 31.922C124.003 31.8847 124.129 31.8427 124.241 31.796V32.944C124.101 33 123.938 33.042 123.751 33.07C123.565 33.1073 123.387 33.126 123.219 33.126ZM128.755 33.126C127.616 33.126 126.72 32.804 126.067 32.16C125.414 31.516 125.087 30.6247 125.087 29.486C125.087 28.7487 125.227 28.1047 125.507 27.554C125.796 27.0033 126.193 26.5787 126.697 26.28C127.21 25.972 127.803 25.818 128.475 25.818C129.138 25.818 129.693 25.958 130.141 26.238C130.589 26.518 130.93 26.9147 131.163 27.428C131.396 27.932 131.513 28.5293 131.513 29.22V29.668H126.193V28.856H130.547L130.309 29.038C130.309 28.338 130.15 27.7967 129.833 27.414C129.525 27.022 129.077 26.826 128.489 26.826C127.836 26.826 127.332 27.0547 126.977 27.512C126.622 27.96 126.445 28.5807 126.445 29.374V29.514C126.445 30.3447 126.646 30.97 127.047 31.39C127.458 31.81 128.036 32.02 128.783 32.02C129.194 32.02 129.576 31.964 129.931 31.852C130.295 31.7307 130.64 31.5347 130.967 31.264L131.429 32.23C131.102 32.5193 130.706 32.7433 130.239 32.902C129.772 33.0513 129.278 33.126 128.755 33.126ZM136.994 33V23.13H141.11C142.174 23.13 142.991 23.354 143.56 23.802C144.139 24.25 144.428 24.88 144.428 25.692C144.428 26.2987 144.246 26.8073 143.882 27.218C143.518 27.6287 143.019 27.904 142.384 28.044V27.834C143.112 27.9273 143.677 28.184 144.078 28.604C144.479 29.024 144.68 29.5793 144.68 30.27C144.68 31.1473 144.381 31.824 143.784 32.3C143.196 32.7667 142.365 33 141.292 33H136.994ZM138.408 31.866H141.138C141.801 31.866 142.319 31.74 142.692 31.488C143.075 31.236 143.266 30.8113 143.266 30.214C143.266 29.6167 143.075 29.192 142.692 28.94C142.319 28.688 141.801 28.562 141.138 28.562H138.408V31.866ZM138.408 27.442H140.886C141.595 27.442 142.127 27.3067 142.482 27.036C142.837 26.7653 143.014 26.3687 143.014 25.846C143.014 25.3233 142.837 24.9267 142.482 24.656C142.127 24.3853 141.595 24.25 140.886 24.25H138.408V27.442ZM149.476 33.126C148.776 33.126 148.169 32.9813 147.656 32.692C147.143 32.3933 146.746 31.9733 146.466 31.432C146.186 30.8813 146.046 30.228 146.046 29.472C146.046 28.716 146.186 28.0673 146.466 27.526C146.746 26.9753 147.143 26.5553 147.656 26.266C148.169 25.9673 148.776 25.818 149.476 25.818C150.176 25.818 150.783 25.9673 151.296 26.266C151.819 26.5553 152.22 26.9753 152.5 27.526C152.789 28.0673 152.934 28.716 152.934 29.472C152.934 30.228 152.789 30.8813 152.5 31.432C152.22 31.9733 151.819 32.3933 151.296 32.692C150.783 32.9813 150.176 33.126 149.476 33.126ZM149.476 32.02C150.092 32.02 150.582 31.8053 150.946 31.376C151.31 30.9467 151.492 30.312 151.492 29.472C151.492 28.632 151.31 28.002 150.946 27.582C150.582 27.1527 150.092 26.938 149.476 26.938C148.869 26.938 148.384 27.1527 148.02 27.582C147.656 28.002 147.474 28.632 147.474 29.472C147.474 30.312 147.651 30.9467 148.006 31.376C148.37 31.8053 148.86 32.02 149.476 32.02ZM157.289 33.126C156.663 33.126 156.117 32.9813 155.651 32.692C155.184 32.4027 154.82 31.9827 154.559 31.432C154.307 30.8813 154.181 30.228 154.181 29.472C154.181 28.7067 154.307 28.0533 154.559 27.512C154.82 26.9707 155.184 26.5553 155.651 26.266C156.117 25.9673 156.663 25.818 157.289 25.818C157.905 25.818 158.441 25.972 158.899 26.28C159.356 26.588 159.659 27.008 159.809 27.54H159.655L159.795 25.944H161.167C161.139 26.2333 161.111 26.5227 161.083 26.812C161.064 27.092 161.055 27.3673 161.055 27.638V33H159.641V31.432H159.795C159.645 31.9547 159.337 32.37 158.871 32.678C158.413 32.9767 157.886 33.126 157.289 33.126ZM157.639 32.02C158.245 32.02 158.731 31.8053 159.095 31.376C159.468 30.9467 159.655 30.312 159.655 29.472C159.655 28.632 159.468 28.002 159.095 27.582C158.731 27.1527 158.245 26.938 157.639 26.938C157.023 26.938 156.528 27.1527 156.155 27.582C155.791 28.002 155.609 28.632 155.609 29.472C155.609 30.312 155.791 30.9467 156.155 31.376C156.519 31.8053 157.013 32.02 157.639 32.02ZM163.09 33V27.694C163.09 27.4047 163.081 27.1153 163.062 26.826C163.053 26.5273 163.034 26.2333 163.006 25.944H164.378L164.532 27.764H164.308C164.401 27.3253 164.56 26.9613 164.784 26.672C165.008 26.3827 165.279 26.168 165.596 26.028C165.923 25.888 166.263 25.818 166.618 25.818C166.767 25.818 166.893 25.8273 166.996 25.846C167.099 25.8553 167.201 25.874 167.304 25.902L167.29 27.162C167.131 27.0967 166.991 27.0593 166.87 27.05C166.758 27.0313 166.618 27.022 166.45 27.022C166.039 27.022 165.689 27.1153 165.4 27.302C165.111 27.4793 164.891 27.722 164.742 28.03C164.593 28.338 164.518 28.6693 164.518 29.024V33H163.09ZM171.002 33.126C170.386 33.126 169.84 32.9813 169.364 32.692C168.897 32.4027 168.533 31.9827 168.272 31.432C168.02 30.8813 167.894 30.228 167.894 29.472C167.894 28.7067 168.02 28.0533 168.272 27.512C168.533 26.9707 168.897 26.5553 169.364 26.266C169.84 25.9673 170.386 25.818 171.002 25.818C171.608 25.818 172.14 25.972 172.598 26.28C173.064 26.5787 173.372 26.9893 173.522 27.512H173.354V22.696H174.768V33H173.368V31.404H173.536C173.377 31.936 173.069 32.356 172.612 32.664C172.154 32.972 171.618 33.126 171.002 33.126ZM171.352 32.02C171.958 32.02 172.448 31.8053 172.822 31.376C173.195 30.9467 173.382 30.312 173.382 29.472C173.382 28.632 173.195 28.002 172.822 27.582C172.448 27.1527 171.958 26.938 171.352 26.938C170.736 26.938 170.241 27.1527 169.868 27.582C169.504 28.002 169.322 28.632 169.322 29.472C169.322 30.312 169.504 30.9467 169.868 31.376C170.241 31.8053 170.736 32.02 171.352 32.02Z" fill="white"/>
</svg>
