<svg width="231" height="56" viewBox="0 0 231 56" fill="none" xmlns="http://www.w3.org/2000/svg">
<rect width="231" height="56" rx="6" fill="#505F98"/>
<path fill-rule="evenodd" clip-rule="evenodd" d="M40 38C45.5228 38 50 33.5228 50 28C50 22.4772 45.5228 18 40 18C34.4772 18 30 22.4772 30 28C30 33.5228 34.4772 38 40 38Z" fill="white"/>
<path fill-rule="evenodd" clip-rule="evenodd" d="M41 23C41 22.4477 40.5523 22 40 22C39.4477 22 39 22.4477 39 23V27H35C34.4477 27 34 27.4477 34 28C34 28.5523 34.4477 29 35 29H39V33C39 33.5523 39.4477 34 40 34C40.5523 34 41 33.5523 41 33V29H45C45.5523 29 46 28.5523 46 28C46 27.4477 45.5523 27 45 27H41V23Z" fill="#505F98"/>
<path d="M67.6 33.126C66.592 33.126 65.7333 32.9207 65.024 32.51C64.3147 32.0993 63.7687 31.516 63.386 30.76C63.0127 29.9947 62.826 29.094 62.826 28.058C62.826 27.022 63.0127 26.126 63.386 25.37C63.7687 24.614 64.3147 24.0307 65.024 23.62C65.7333 23.2093 66.592 23.004 67.6 23.004C68.3 23.004 68.9253 23.1067 69.476 23.312C70.0267 23.5173 70.5073 23.816 70.918 24.208L70.414 25.37C69.966 24.9873 69.5273 24.712 69.098 24.544C68.678 24.376 68.188 24.292 67.628 24.292C66.564 24.292 65.752 24.6187 65.192 25.272C64.632 25.9253 64.352 26.854 64.352 28.058C64.352 29.262 64.632 30.1953 65.192 30.858C65.752 31.5113 66.564 31.838 67.628 31.838C68.188 31.838 68.678 31.754 69.098 31.586C69.5273 31.418 69.966 31.138 70.414 30.746L70.918 31.908C70.5073 32.3 70.0267 32.6033 69.476 32.818C68.9253 33.0233 68.3 33.126 67.6 33.126ZM72.592 33V27.694C72.592 27.4047 72.5827 27.1153 72.564 26.826C72.5547 26.5273 72.536 26.2333 72.508 25.944H73.88L74.034 27.764H73.81C73.9033 27.3253 74.062 26.9613 74.286 26.672C74.51 26.3827 74.7807 26.168 75.098 26.028C75.4247 25.888 75.7653 25.818 76.12 25.818C76.2693 25.818 76.3953 25.8273 76.498 25.846C76.6007 25.8553 76.7033 25.874 76.806 25.902L76.792 27.162C76.6333 27.0967 76.4933 27.0593 76.372 27.05C76.26 27.0313 76.12 27.022 75.952 27.022C75.5413 27.022 75.1913 27.1153 74.902 27.302C74.6127 27.4793 74.3933 27.722 74.244 28.03C74.0947 28.338 74.02 28.6693 74.02 29.024V33H72.592ZM81.0636 33.126C79.925 33.126 79.029 32.804 78.3756 32.16C77.7223 31.516 77.3956 30.6247 77.3956 29.486C77.3956 28.7487 77.5356 28.1047 77.8156 27.554C78.105 27.0033 78.5016 26.5787 79.0056 26.28C79.519 25.972 80.1116 25.818 80.7836 25.818C81.4463 25.818 82.0016 25.958 82.4496 26.238C82.8976 26.518 83.2383 26.9147 83.4716 27.428C83.705 27.932 83.8216 28.5293 83.8216 29.22V29.668H78.5016V28.856H82.8556L82.6176 29.038C82.6176 28.338 82.459 27.7967 82.1416 27.414C81.8336 27.022 81.3856 26.826 80.7976 26.826C80.1443 26.826 79.6403 27.0547 79.2856 27.512C78.931 27.96 78.7536 28.5807 78.7536 29.374V29.514C78.7536 30.3447 78.9543 30.97 79.3556 31.39C79.7663 31.81 80.345 32.02 81.0916 32.02C81.5023 32.02 81.885 31.964 82.2396 31.852C82.6036 31.7307 82.949 31.5347 83.2756 31.264L83.7376 32.23C83.411 32.5193 83.0143 32.7433 82.5476 32.902C82.081 33.0513 81.5863 33.126 81.0636 33.126ZM88.1462 33.126C87.5209 33.126 86.9749 32.9813 86.5082 32.692C86.0415 32.4027 85.6775 31.9827 85.4162 31.432C85.1642 30.8813 85.0382 30.228 85.0382 29.472C85.0382 28.7067 85.1642 28.0533 85.4162 27.512C85.6775 26.9707 86.0415 26.5553 86.5082 26.266C86.9749 25.9673 87.5209 25.818 88.1462 25.818C88.7622 25.818 89.2989 25.972 89.7562 26.28C90.2135 26.588 90.5169 27.008 90.6662 27.54H90.5122L90.6522 25.944H92.0242C91.9962 26.2333 91.9682 26.5227 91.9402 26.812C91.9215 27.092 91.9122 27.3673 91.9122 27.638V33H90.4982V31.432H90.6522C90.5029 31.9547 90.1949 32.37 89.7282 32.678C89.2709 32.9767 88.7435 33.126 88.1462 33.126ZM88.4962 32.02C89.1029 32.02 89.5882 31.8053 89.9522 31.376C90.3255 30.9467 90.5122 30.312 90.5122 29.472C90.5122 28.632 90.3255 28.002 89.9522 27.582C89.5882 27.1527 89.1029 26.938 88.4962 26.938C87.8802 26.938 87.3855 27.1527 87.0122 27.582C86.6482 28.002 86.4662 28.632 86.4662 29.472C86.4662 30.312 86.6482 30.9467 87.0122 31.376C87.3762 31.8053 87.8709 32.02 88.4962 32.02ZM96.7195 33.126C95.9541 33.126 95.3755 32.9207 94.9835 32.51C94.5915 32.09 94.3955 31.4647 94.3955 30.634V27.036H93.0235V25.944H94.3955V24.082L95.8095 23.704V25.944H97.7695V27.036H95.8095V30.508C95.8095 31.0307 95.9028 31.404 96.0895 31.628C96.2761 31.852 96.5468 31.964 96.9015 31.964C97.0788 31.964 97.2328 31.95 97.3635 31.922C97.5035 31.8847 97.6295 31.8427 97.7415 31.796V32.944C97.6015 33 97.4381 33.042 97.2515 33.07C97.0648 33.1073 96.8875 33.126 96.7195 33.126ZM102.255 33.126C101.116 33.126 100.22 32.804 99.567 32.16C98.9137 31.516 98.587 30.6247 98.587 29.486C98.587 28.7487 98.727 28.1047 99.007 27.554C99.2964 27.0033 99.693 26.5787 100.197 26.28C100.71 25.972 101.303 25.818 101.975 25.818C102.638 25.818 103.193 25.958 103.641 26.238C104.089 26.518 104.43 26.9147 104.663 27.428C104.896 27.932 105.013 28.5293 105.013 29.22V29.668H99.693V28.856H104.047L103.809 29.038C103.809 28.338 103.65 27.7967 103.333 27.414C103.025 27.022 102.577 26.826 101.989 26.826C101.336 26.826 100.832 27.0547 100.477 27.512C100.122 27.96 99.945 28.5807 99.945 29.374V29.514C99.945 30.3447 100.146 30.97 100.547 31.39C100.958 31.81 101.536 32.02 102.283 32.02C102.694 32.02 103.076 31.964 103.431 31.852C103.795 31.7307 104.14 31.5347 104.467 31.264L104.929 32.23C104.602 32.5193 104.206 32.7433 103.739 32.902C103.272 33.0513 102.778 33.126 102.255 33.126ZM110.158 28.058C110.158 27.022 110.34 26.126 110.704 25.37C111.068 24.614 111.595 24.0307 112.286 23.62C112.986 23.2093 113.817 23.004 114.778 23.004C115.73 23.004 116.551 23.2093 117.242 23.62C117.933 24.0307 118.465 24.614 118.838 25.37C119.221 26.126 119.412 27.0173 119.412 28.044C119.412 29.08 119.221 29.9807 118.838 30.746C118.465 31.502 117.928 32.09 117.228 32.51C116.537 32.9207 115.721 33.126 114.778 33.126C113.817 33.126 112.991 32.9207 112.3 32.51C111.609 32.09 111.077 31.502 110.704 30.746C110.34 29.9807 110.158 29.0847 110.158 28.058ZM111.684 28.058C111.684 29.2527 111.945 30.186 112.468 30.858C112.991 31.53 113.761 31.866 114.778 31.866C115.767 31.866 116.533 31.5347 117.074 30.872C117.615 30.2 117.886 29.262 117.886 28.058C117.886 26.854 117.615 25.9207 117.074 25.258C116.542 24.5953 115.777 24.264 114.778 24.264C113.761 24.264 112.991 24.5953 112.468 25.258C111.945 25.9207 111.684 26.854 111.684 28.058ZM121.25 33V27.694C121.25 27.4047 121.241 27.1153 121.222 26.826C121.213 26.5273 121.194 26.2333 121.166 25.944H122.538L122.692 27.764H122.468C122.562 27.3253 122.72 26.9613 122.944 26.672C123.168 26.3827 123.439 26.168 123.756 26.028C124.083 25.888 124.424 25.818 124.778 25.818C124.928 25.818 125.054 25.8273 125.156 25.846C125.259 25.8553 125.362 25.874 125.464 25.902L125.45 27.162C125.292 27.0967 125.152 27.0593 125.03 27.05C124.918 27.0313 124.778 27.022 124.61 27.022C124.2 27.022 123.85 27.1153 123.56 27.302C123.271 27.4793 123.052 27.722 122.902 28.03C122.753 28.338 122.678 28.6693 122.678 29.024V33H121.25ZM129.638 36.136C129.003 36.136 128.424 36.0613 127.902 35.912C127.388 35.7627 126.926 35.5387 126.516 35.24L126.866 34.204C127.155 34.4 127.44 34.554 127.72 34.666C128 34.7873 128.294 34.876 128.602 34.932C128.91 34.988 129.227 35.016 129.554 35.016C130.226 35.016 130.73 34.8433 131.066 34.498C131.411 34.162 131.584 33.672 131.584 33.028V31.138H131.724C131.574 31.6607 131.266 32.076 130.8 32.384C130.342 32.6827 129.81 32.832 129.204 32.832C128.56 32.832 128 32.692 127.524 32.412C127.057 32.1227 126.693 31.7167 126.432 31.194C126.18 30.662 126.054 30.0367 126.054 29.318C126.054 28.5993 126.18 27.9787 126.432 27.456C126.693 26.9333 127.057 26.532 127.524 26.252C128 25.9627 128.56 25.818 129.204 25.818C129.82 25.818 130.352 25.972 130.8 26.28C131.257 26.5787 131.56 26.9893 131.71 27.512L131.584 27.4L131.71 25.944H133.082C133.044 26.2333 133.016 26.5227 132.998 26.812C132.979 27.092 132.97 27.3673 132.97 27.638V32.86C132.97 33.924 132.685 34.736 132.116 35.296C131.556 35.856 130.73 36.136 129.638 36.136ZM129.54 31.726C130.156 31.726 130.646 31.516 131.01 31.096C131.383 30.676 131.57 30.0833 131.57 29.318C131.57 28.5527 131.383 27.9647 131.01 27.554C130.646 27.1433 130.156 26.938 129.54 26.938C128.905 26.938 128.401 27.1433 128.028 27.554C127.664 27.9647 127.482 28.5527 127.482 29.318C127.482 30.0833 127.664 30.676 128.028 31.096C128.401 31.516 128.905 31.726 129.54 31.726ZM137.734 33.126C137.109 33.126 136.563 32.9813 136.096 32.692C135.629 32.4027 135.265 31.9827 135.004 31.432C134.752 30.8813 134.626 30.228 134.626 29.472C134.626 28.7067 134.752 28.0533 135.004 27.512C135.265 26.9707 135.629 26.5553 136.096 26.266C136.563 25.9673 137.109 25.818 137.734 25.818C138.35 25.818 138.887 25.972 139.344 26.28C139.801 26.588 140.105 27.008 140.254 27.54H140.1L140.24 25.944H141.612C141.584 26.2333 141.556 26.5227 141.528 26.812C141.509 27.092 141.5 27.3673 141.5 27.638V33H140.086V31.432H140.24C140.091 31.9547 139.783 32.37 139.316 32.678C138.859 32.9767 138.331 33.126 137.734 33.126ZM138.084 32.02C138.691 32.02 139.176 31.8053 139.54 31.376C139.913 30.9467 140.1 30.312 140.1 29.472C140.1 28.632 139.913 28.002 139.54 27.582C139.176 27.1527 138.691 26.938 138.084 26.938C137.468 26.938 136.973 27.1527 136.6 27.582C136.236 28.002 136.054 28.632 136.054 29.472C136.054 30.312 136.236 30.9467 136.6 31.376C136.964 31.8053 137.459 32.02 138.084 32.02ZM143.563 33V27.638C143.563 27.3673 143.549 27.092 143.521 26.812C143.503 26.5227 143.479 26.2333 143.451 25.944H144.823L144.949 27.428H144.781C144.996 26.9053 145.327 26.5087 145.775 26.238C146.223 25.958 146.741 25.818 147.329 25.818C148.16 25.818 148.785 26.0467 149.205 26.504C149.635 26.9613 149.849 27.6707 149.849 28.632V33H148.435V28.716C148.435 28.0907 148.309 27.6427 148.057 27.372C147.815 27.092 147.441 26.952 146.937 26.952C146.34 26.952 145.864 27.1387 145.509 27.512C145.155 27.876 144.977 28.3707 144.977 28.996V33H143.563ZM151.862 33V25.944H153.276V33H151.862ZM151.75 24.474V23.004H153.388V24.474H151.75ZM154.999 33V32.062L159.591 26.686L159.605 27.036H154.999V25.944H160.893V26.882L156.259 32.3L156.245 31.922H161.047V33H154.999ZM165.297 33.126C164.671 33.126 164.125 32.9813 163.659 32.692C163.192 32.4027 162.828 31.9827 162.567 31.432C162.315 30.8813 162.189 30.228 162.189 29.472C162.189 28.7067 162.315 28.0533 162.567 27.512C162.828 26.9707 163.192 26.5553 163.659 26.266C164.125 25.9673 164.671 25.818 165.297 25.818C165.913 25.818 166.449 25.972 166.907 26.28C167.364 26.588 167.667 27.008 167.817 27.54H167.663L167.803 25.944H169.175C169.147 26.2333 169.119 26.5227 169.091 26.812C169.072 27.092 169.063 27.3673 169.063 27.638V33H167.649V31.432H167.803C167.653 31.9547 167.345 32.37 166.879 32.678C166.421 32.9767 165.894 33.126 165.297 33.126ZM165.647 32.02C166.253 32.02 166.739 31.8053 167.103 31.376C167.476 30.9467 167.663 30.312 167.663 29.472C167.663 28.632 167.476 28.002 167.103 27.582C166.739 27.1527 166.253 26.938 165.647 26.938C165.031 26.938 164.536 27.1527 164.163 27.582C163.799 28.002 163.617 28.632 163.617 29.472C163.617 30.312 163.799 30.9467 164.163 31.376C164.527 31.8053 165.021 32.02 165.647 32.02ZM173.87 33.126C173.105 33.126 172.526 32.9207 172.134 32.51C171.742 32.09 171.546 31.4647 171.546 30.634V27.036H170.174V25.944H171.546V24.082L172.96 23.704V25.944H174.92V27.036H172.96V30.508C172.96 31.0307 173.053 31.404 173.24 31.628C173.427 31.852 173.697 31.964 174.052 31.964C174.229 31.964 174.383 31.95 174.514 31.922C174.654 31.8847 174.78 31.8427 174.892 31.796V32.944C174.752 33 174.589 33.042 174.402 33.07C174.215 33.1073 174.038 33.126 173.87 33.126ZM176.212 33V25.944H177.626V33H176.212ZM176.1 24.474V23.004H177.738V24.474H176.1ZM182.722 33.126C182.022 33.126 181.415 32.9813 180.902 32.692C180.389 32.3933 179.992 31.9733 179.712 31.432C179.432 30.8813 179.292 30.228 179.292 29.472C179.292 28.716 179.432 28.0673 179.712 27.526C179.992 26.9753 180.389 26.5553 180.902 26.266C181.415 25.9673 182.022 25.818 182.722 25.818C183.422 25.818 184.029 25.9673 184.542 26.266C185.065 26.5553 185.466 26.9753 185.746 27.526C186.035 28.0673 186.18 28.716 186.18 29.472C186.18 30.228 186.035 30.8813 185.746 31.432C185.466 31.9733 185.065 32.3933 184.542 32.692C184.029 32.9813 183.422 33.126 182.722 33.126ZM182.722 32.02C183.338 32.02 183.828 31.8053 184.192 31.376C184.556 30.9467 184.738 30.312 184.738 29.472C184.738 28.632 184.556 28.002 184.192 27.582C183.828 27.1527 183.338 26.938 182.722 26.938C182.115 26.938 181.63 27.1527 181.266 27.582C180.902 28.002 180.72 28.632 180.72 29.472C180.72 30.312 180.897 30.9467 181.252 31.376C181.616 31.8053 182.106 32.02 182.722 32.02ZM187.833 33V27.638C187.833 27.3673 187.819 27.092 187.791 26.812C187.772 26.5227 187.749 26.2333 187.721 25.944H189.093L189.219 27.428H189.051C189.266 26.9053 189.597 26.5087 190.045 26.238C190.493 25.958 191.011 25.818 191.599 25.818C192.43 25.818 193.055 26.0467 193.475 26.504C193.904 26.9613 194.119 27.6707 194.119 28.632V33H192.705V28.716C192.705 28.0907 192.579 27.6427 192.327 27.372C192.084 27.092 191.711 26.952 191.207 26.952C190.61 26.952 190.134 27.1387 189.779 27.512C189.424 27.876 189.247 28.3707 189.247 28.996V33H187.833ZM198.554 33.126C197.966 33.126 197.424 33.0513 196.93 32.902C196.435 32.7527 196.024 32.5427 195.698 32.272L196.132 31.306C196.477 31.5673 196.86 31.7633 197.28 31.894C197.7 32.0247 198.129 32.09 198.568 32.09C199.081 32.09 199.468 32.0013 199.73 31.824C199.991 31.6373 200.122 31.3853 200.122 31.068C200.122 30.8253 200.038 30.6293 199.87 30.48C199.711 30.3307 199.445 30.2187 199.072 30.144L197.728 29.878C197.13 29.7473 196.678 29.5233 196.37 29.206C196.062 28.8887 195.908 28.4827 195.908 27.988C195.908 27.568 196.02 27.1947 196.244 26.868C196.477 26.5413 196.804 26.2847 197.224 26.098C197.653 25.9113 198.152 25.818 198.722 25.818C199.244 25.818 199.73 25.8927 200.178 26.042C200.626 26.1913 200.999 26.406 201.298 26.686L200.85 27.624C200.56 27.3813 200.234 27.1947 199.87 27.064C199.506 26.924 199.137 26.854 198.764 26.854C198.241 26.854 197.854 26.952 197.602 27.148C197.35 27.344 197.224 27.6007 197.224 27.918C197.224 28.1607 197.298 28.3613 197.448 28.52C197.606 28.6693 197.854 28.786 198.19 28.87L199.534 29.136C200.168 29.2667 200.644 29.4813 200.962 29.78C201.279 30.0787 201.438 30.48 201.438 30.984C201.438 31.4227 201.316 31.8053 201.074 32.132C200.831 32.4587 200.495 32.706 200.066 32.874C199.636 33.042 199.132 33.126 198.554 33.126Z" fill="white"/>
</svg>
