<?xml version="1.0" standalone="no"?>
<!DOCTYPE svg PUBLIC "-//W3C//DTD SVG 20010904//EN"
 "http://www.w3.org/TR/2001/REC-SVG-20010904/DTD/svg10.dtd">
<svg version="1.0" xmlns="http://www.w3.org/2000/svg"
 width="480.000000pt" height="526.000000pt" viewBox="0 0 480.000000 526.000000"
 preserveAspectRatio="xMidYMid meet">
<metadata>
Created by potrace 1.16, written by Peter Selinger 2001-2019
</metadata>
<g transform="translate(0.000000,526.000000) scale(0.100000,-0.100000)"
fill="#000000" stroke="none">
<path d="M2706 5244 c-86 -47 -208 -73 -486 -104 -102 -11 -222 -30 -268 -40
-169 -40 -330 -134 -467 -274 -134 -136 -194 -265 -242 -519 -22 -120 -26
-580 -5 -639 8 -21 17 -38 20 -38 4 0 9 -188 11 -418 2 -303 7 -435 17 -484
64 -313 270 -595 528 -725 140 -70 371 -130 541 -139 87 -5 135 -2 230 14 158
27 313 73 401 117 233 118 425 364 508 651 34 115 35 133 41 644 3 245 10 483
16 530 16 115 6 449 -16 560 -54 278 -122 388 -345 559 -52 40 -98 79 -102 86
-4 7 2 40 15 73 21 58 21 62 5 78 -16 16 -21 16 -85 -8 -108 -41 -106 -41 -98
-21 5 10 8 29 9 43 1 37 -31 37 -103 0 -34 -16 -61 -29 -61 -26 0 2 7 20 15
40 9 20 13 41 10 46 -9 15 -56 11 -89 -6z m272 -606 c72 -85 112 -125 193
-189 168 -133 233 -265 265 -533 18 -153 39 -252 59 -283 13 -19 13 -30 -1
-90 -10 -44 -19 -155 -24 -313 -10 -271 -23 -355 -72 -463 -39 -84 -105 -147
-209 -200 -62 -32 -83 -38 -124 -35 -56 3 -53 0 -123 159 -33 74 -64 102 -157
146 -54 25 -74 28 -186 31 -97 3 -133 0 -162 -12 -33 -13 -41 -13 -74 0 -29
12 -65 15 -162 12 -112 -3 -132 -6 -186 -31 -93 -44 -124 -72 -157 -146 -70
-159 -67 -156 -123 -159 -41 -3 -62 3 -124 35 -104 53 -170 116 -209 200 -49
108 -62 192 -72 468 -7 185 -14 268 -27 321 -15 58 -16 75 -6 90 6 11 17 60
23 109 15 122 43 243 81 351 56 161 91 215 247 380 l143 152 512 5 c294 3 527
9 547 15 68 19 100 15 128 -20z m-555 -1910 c12 -7 85 -15 164 -19 113 -5 148
-10 175 -26 76 -44 137 -171 124 -259 -12 -93 -107 -223 -189 -263 -63 -31
-106 -28 -148 10 -46 42 -88 59 -149 59 -61 0 -103 -17 -149 -59 -42 -38 -85
-41 -148 -10 -82 40 -177 170 -189 263 -13 88 48 215 124 259 27 16 61 21 175
26 79 4 151 12 162 19 25 14 22 14 48 0z"/>
<path d="M1855 3834 c-112 -18 -231 -72 -293 -134 -43 -43 -51 -67 -30 -88 21
-21 38 -14 94 37 91 83 250 126 390 104 44 -6 76 -7 87 -1 26 13 18 50 -14 65
-28 14 -183 25 -234 17z"/>
<path d="M2757 3830 c-55 -10 -77 -24 -77 -51 0 -30 29 -37 104 -26 140 22
299 -21 390 -104 56 -51 73 -58 94 -37 21 21 13 45 -30 88 -47 47 -125 89
-208 114 -67 20 -207 28 -273 16z"/>
<path d="M1835 3471 c-45 -20 -70 -60 -70 -112 0 -42 5 -53 33 -81 28 -28 39
-33 82 -33 43 0 54 5 82 33 28 28 33 39 33 82 0 42 -5 54 -31 81 -33 33 -92
46 -129 30z"/>
<path d="M2800 3413 c-60 -31 -117 -100 -107 -127 6 -14 15 -11 60 19 95 63
214 70 314 20 88 -45 77 14 -16 80 -37 26 -53 30 -119 33 -69 3 -83 1 -132
-25z"/>
<path d="M2030 2641 c-28 -53 40 -197 127 -267 181 -147 452 -102 570 95 38
63 58 143 43 172 -17 31 -44 23 -59 -16 -22 -61 -41 -65 -301 -65 -260 0 -279
4 -301 65 -11 29 -18 35 -41 35 -17 0 -31 -7 -38 -19z"/>
<path d="M1662 1608 c-326 -38 -651 -206 -881 -454 -78 -85 -211 -276 -211
-304 0 -23 203 -227 320 -321 434 -350 946 -529 1510 -529 564 0 1076 179
1510 529 117 94 320 298 320 321 0 28 -133 219 -211 304 -137 148 -307 269
-490 348 -107 46 -290 95 -388 104 l-66 6 0 -69 c0 -54 -6 -80 -28 -125 -56
-115 -208 -219 -393 -270 -115 -31 -373 -31 -488 0 -258 71 -417 220 -423 395
-1 38 -3 70 -5 71 -2 1 -36 -2 -76 -6z"/>
</g>
</svg>
