<svg width="18" height="18" viewBox="0 0 18 18" fill="none" xmlns="http://www.w3.org/2000/svg">
<path opacity="0.3" fill-rule="evenodd" clip-rule="evenodd" d="M6 2.25H5C3.89543 2.25 3 3.14543 3 4.25V15.25C3 16.3546 3.89543 17.25 5 17.25H13C14.1046 17.25 15 16.3546 15 15.25V4.25C15 3.14543 14.1046 2.25 13 2.25H12V2.625C12 3.24632 11.4963 3.75 10.875 3.75H7.125C6.50368 3.75 6 3.24632 6 2.625V2.25Z" fill="#505F98"/>
<path fill-rule="evenodd" clip-rule="evenodd" d="M8.25 1.5H7.25C6.97386 1.5 6.75 1.72386 6.75 2V2.5C6.75 2.77614 6.97386 3 7.25 3H10.75C11.0261 3 11.25 2.77614 11.25 2.5V2C11.25 1.72386 11.0261 1.5 10.75 1.5H9.75C9.75 1.08579 9.41421 0.75 9 0.75C8.58579 0.75 8.25 1.08579 8.25 1.5Z" fill="#505F98"/>
<rect opacity="0.3" x="5.25" y="7.5" width="3.75" height="1.5" rx="0.75" fill="#505F98"/>
<rect opacity="0.3" x="5.25" y="10.5" width="6.75" height="1.5" rx="0.75" fill="#505F98"/>
</svg>
