<svg width="104" height="104" viewBox="0 0 104 104" fill="none" xmlns="http://www.w3.org/2000/svg">
<circle cx="52" cy="52" r="52" fill="#C4C4C4"/>
<path fill-rule="evenodd" clip-rule="evenodd" d="M42 45.333C40.8954 45.333 40 46.2284 40 47.333V59.333C40 60.4376 40.8954 61.333 42 61.333H62C63.1046 61.333 64 60.4376 64 59.333V47.333C64 46.2284 63.1046 45.333 62 45.333H42ZM46.6667 53.333C46.6667 56.2785 49.0545 58.6663 52 58.6663C54.9455 58.6663 57.3333 56.2785 57.3333 53.333C57.3333 50.3875 54.9455 47.9997 52 47.9997C49.0545 47.9997 46.6667 50.3875 46.6667 53.333Z" fill="black"/>
<rect opacity="0.3" x="48" y="41.333" width="8" height="2.66667" rx="1.33333" fill="black"/>
<path opacity="0.3" fill-rule="evenodd" clip-rule="evenodd" d="M51.9997 56.0003C53.4724 56.0003 54.6663 54.8064 54.6663 53.3337C54.6663 51.8609 53.4724 50.667 51.9997 50.667C50.5269 50.667 49.333 51.8609 49.333 53.3337C49.333 54.8064 50.5269 56.0003 51.9997 56.0003Z" fill="black"/>
</svg>
