<svg width="235" height="133" viewBox="0 0 235 133" fill="none" xmlns="http://www.w3.org/2000/svg">
<g clip-path="url(#clip0_1_16078)">
<path d="M218.954 23.1138H215.384C215.1 23.1143 214.823 23.0262 214.591 22.8619C214.36 22.6976 214.185 22.4652 214.091 22.1968C213.817 21.4103 213.494 20.6422 213.123 19.8971C212.995 19.6394 212.951 19.3476 212.998 19.0634C213.044 18.7792 213.179 18.517 213.383 18.3141L215.921 15.7706C216.179 15.512 216.323 15.1613 216.323 14.7957C216.323 14.4301 216.179 14.0794 215.921 13.8207L210.438 8.32829C210.18 8.06984 209.831 7.92465 209.466 7.92465C209.101 7.92465 208.751 8.06984 208.493 8.32829L205.91 10.9176C205.709 11.1199 205.45 11.2542 205.169 11.3018C204.888 11.3493 204.599 11.3078 204.343 11.1829C203.613 10.826 202.862 10.5157 202.094 10.2539C201.823 10.1614 201.588 9.98622 201.422 9.75294C201.255 9.51966 201.166 9.24001 201.167 8.95331V5.2852C201.167 5.10424 201.131 4.92503 201.062 4.75783C200.993 4.59064 200.892 4.43871 200.764 4.31075C200.637 4.18279 200.485 4.08129 200.318 4.01205C200.151 3.94281 199.973 3.90719 199.792 3.90723H192.042C191.862 3.90719 191.683 3.94281 191.516 4.01205C191.349 4.08129 191.198 4.18279 191.07 4.31075C190.942 4.43871 190.841 4.59064 190.772 4.75783C190.703 4.92503 190.667 5.10424 190.667 5.2852V8.95331C190.668 9.24001 190.579 9.51966 190.412 9.75294C190.246 9.98622 190.011 10.1614 189.74 10.2539C188.972 10.5156 188.221 10.826 187.492 11.1829C187.236 11.3078 186.947 11.3493 186.666 11.3018C186.385 11.2542 186.126 11.1199 185.924 10.9176L183.341 8.32829C183.083 8.06988 182.733 7.92474 182.368 7.92474C182.004 7.92474 181.654 8.06988 181.396 8.32829L175.913 13.8207C175.655 14.0794 175.511 14.4301 175.511 14.7957C175.511 15.1613 175.655 15.512 175.913 15.7706L178.451 18.3141C178.655 18.5171 178.79 18.7793 178.836 19.0635C178.883 19.3477 178.839 19.6394 178.711 19.8971C178.339 20.6418 178.017 21.41 177.746 22.1968C177.651 22.4651 177.475 22.6974 177.243 22.8617C177.011 23.0259 176.734 23.114 176.45 23.1138H172.88C172.699 23.1137 172.52 23.1493 172.353 23.2185C172.187 23.2878 172.035 23.3893 171.907 23.5172C171.78 23.6452 171.678 23.7971 171.609 23.9644C171.54 24.1316 171.505 24.3108 171.505 24.4918V32.2623C171.505 32.4432 171.54 32.6225 171.609 32.7897C171.678 32.9569 171.78 33.1088 171.907 33.2368C172.035 33.3648 172.187 33.4663 172.353 33.5355C172.52 33.6047 172.699 33.6403 172.88 33.6402H176.356C176.646 33.64 176.927 33.7314 177.162 33.9013C177.396 34.0712 177.571 34.3109 177.661 34.5862C177.929 35.3939 178.25 36.1831 178.622 36.9487C178.748 37.2065 178.79 37.4974 178.744 37.7807C178.697 38.0641 178.563 38.3258 178.361 38.5294L175.913 40.9836C175.785 41.1115 175.684 41.2633 175.615 41.4305C175.545 41.5977 175.51 41.7769 175.51 41.9578C175.51 42.1388 175.545 42.318 175.615 42.4852C175.684 42.6523 175.785 42.8042 175.913 42.932L181.395 48.426C181.653 48.6844 182.003 48.8296 182.368 48.8296C182.733 48.8296 183.083 48.6844 183.341 48.426L185.741 46.02C185.945 45.8155 186.209 45.6808 186.494 45.6348C186.779 45.5887 187.072 45.6338 187.33 45.7636C188.106 46.1525 188.908 46.4879 189.73 46.7676C190.003 46.86 190.24 47.0355 190.408 47.2697C190.576 47.5039 190.666 47.7849 190.667 48.0732V51.466C190.666 51.6472 190.702 51.8266 190.771 51.9941C190.84 52.1615 190.941 52.3137 191.069 52.442C191.196 52.5702 191.348 52.6719 191.515 52.7413C191.682 52.8108 191.861 52.8465 192.042 52.8465H199.792C199.972 52.8465 200.151 52.8108 200.318 52.7413C200.485 52.6719 200.637 52.5702 200.764 52.442C200.892 52.3137 200.993 52.1615 201.062 51.9941C201.131 51.8266 201.167 51.6472 201.166 51.466V48.0737C201.167 47.7854 201.258 47.5044 201.425 47.2703C201.593 47.0361 201.83 46.8605 202.103 46.7681C202.925 46.4885 203.727 46.1531 204.503 45.7641C204.761 45.6343 205.054 45.5893 205.339 45.6353C205.624 45.6813 205.888 45.816 206.092 46.0205L208.493 48.4265C208.751 48.685 209.101 48.8302 209.465 48.8302C209.83 48.8302 210.18 48.685 210.438 48.4265L215.92 42.9315C216.048 42.8037 216.149 42.6518 216.219 42.4847C216.288 42.3175 216.323 42.1383 216.323 41.9573C216.323 41.7764 216.288 41.5972 216.219 41.43C216.149 41.2628 216.048 41.111 215.92 40.9831L213.472 38.5289C213.27 38.3253 213.136 38.0636 213.089 37.7802C213.043 37.4969 213.085 37.206 213.212 36.9482C213.583 36.1827 213.904 35.3935 214.172 34.5857C214.262 34.3104 214.437 34.0707 214.671 33.9008C214.906 33.7309 215.188 33.6395 215.477 33.6397H218.953C219.134 33.6398 219.313 33.6042 219.479 33.535C219.646 33.4657 219.798 33.3643 219.925 33.2363C220.053 33.1083 220.154 32.9564 220.223 32.7892C220.293 32.622 220.328 32.4427 220.328 32.2618V24.4918C220.328 24.3109 220.293 24.1317 220.224 23.9646C220.155 23.7974 220.053 23.6456 219.926 23.5176C219.798 23.3896 219.647 23.2881 219.48 23.2188C219.313 23.1495 219.135 23.1139 218.954 23.1138ZM195.918 39.8592C193.652 39.8594 191.437 39.1861 189.553 37.9244C187.669 36.6627 186.2 34.8692 185.333 32.7709C184.465 30.6726 184.238 28.3636 184.68 26.136C185.123 23.9084 186.214 21.8621 187.816 20.2561C189.418 18.6501 191.46 17.5564 193.682 17.1134C195.905 16.6703 198.208 16.8978 200.302 17.7671C202.395 18.6363 204.185 20.1083 205.443 21.9969C206.702 23.8855 207.374 26.1058 207.374 28.377C207.373 31.4222 206.166 34.3425 204.018 36.4958C201.87 38.649 198.956 39.8589 195.918 39.8592Z" fill="#F4F4F4"/>
<path d="M67.1173 106.942H64.4948C64.2864 106.942 64.0829 106.878 63.9128 106.757C63.7426 106.636 63.6141 106.465 63.5451 106.268C63.3443 105.69 63.1068 105.126 62.8341 104.579C62.74 104.39 62.7078 104.175 62.7421 103.967C62.7764 103.758 62.8754 103.565 63.0252 103.416L64.89 101.547C65.0794 101.357 65.1858 101.1 65.1858 100.831C65.1858 100.563 65.0794 100.305 64.89 100.115L60.8633 96.0809C60.6738 95.891 60.4168 95.7844 60.1488 95.7844C59.8809 95.7844 59.6239 95.891 59.4343 96.0809L57.537 97.9829C57.3892 98.1314 57.1989 98.23 56.9926 98.2649C56.7863 98.2998 56.5742 98.2694 56.386 98.1777C55.8504 97.9155 55.2988 97.6876 54.7345 97.4953C54.5356 97.4274 54.363 97.2987 54.2408 97.1273C54.1187 96.956 54.0532 96.7506 54.0536 96.54V93.8461C54.0536 93.7132 54.0275 93.5816 53.9768 93.4588C53.9261 93.3359 53.8517 93.2243 53.7579 93.1304C53.6641 93.0364 53.5528 92.9618 53.4303 92.911C53.3077 92.8601 53.1764 92.834 53.0438 92.834H47.3495C47.2169 92.834 47.0855 92.8601 46.963 92.911C46.8405 92.9618 46.7291 93.0364 46.6354 93.1304C46.5416 93.2243 46.4672 93.3359 46.4165 93.4588C46.3657 93.5816 46.3396 93.7132 46.3397 93.8461V96.5406C46.3401 96.7511 46.2746 96.9565 46.1525 97.1279C46.0304 97.2992 45.8577 97.4279 45.6588 97.4958C45.0945 97.6881 44.5429 97.916 44.0073 98.1782C43.8191 98.2699 43.607 98.3005 43.4007 98.2655C43.1943 98.2306 43.004 98.132 42.8563 97.9834L40.9587 96.0814C40.7691 95.8915 40.5121 95.7849 40.2442 95.7849C39.9762 95.7849 39.7192 95.8915 39.5297 96.0814L35.503 100.116C35.3136 100.306 35.2072 100.563 35.2072 100.832C35.2072 101.1 35.3136 101.358 35.503 101.548L37.3668 103.416C37.5166 103.565 37.6156 103.758 37.6499 103.967C37.6842 104.175 37.652 104.39 37.5579 104.579C37.2851 105.126 37.0482 105.69 36.8486 106.268C36.7791 106.465 36.6502 106.636 36.4799 106.757C36.3095 106.877 36.106 106.942 35.8974 106.942H33.2744C33.1418 106.942 33.0105 106.968 32.888 107.019C32.7654 107.07 32.6541 107.144 32.5603 107.238C32.4666 107.332 32.3922 107.444 32.3414 107.567C32.2907 107.689 32.2646 107.821 32.2646 107.954V113.662C32.2646 113.794 32.2907 113.926 32.3414 114.049C32.3922 114.172 32.4666 114.283 32.5603 114.377C32.6541 114.471 32.7654 114.546 32.888 114.597C33.0105 114.648 33.1418 114.674 33.2744 114.674H35.8281C36.0405 114.673 36.2476 114.741 36.4197 114.865C36.5918 114.99 36.7202 115.166 36.7865 115.368C36.9836 115.962 37.2194 116.541 37.4922 117.104C37.5848 117.293 37.6162 117.507 37.5819 117.715C37.5477 117.923 37.4495 118.115 37.3011 118.265L35.5028 120.068C35.409 120.162 35.3346 120.273 35.2838 120.396C35.233 120.518 35.2069 120.65 35.2069 120.783C35.2069 120.916 35.233 121.047 35.2838 121.17C35.3346 121.293 35.409 121.404 35.5028 121.498L39.5294 125.534C39.719 125.724 39.976 125.831 40.2439 125.831C40.5119 125.831 40.7689 125.724 40.9584 125.534L42.7215 123.767C42.8718 123.617 43.0653 123.518 43.2748 123.484C43.4843 123.45 43.699 123.484 43.8886 123.579C44.459 123.865 45.0481 124.111 45.6519 124.316C45.8521 124.384 46.026 124.513 46.1494 124.685C46.2727 124.857 46.3393 125.063 46.3397 125.275V127.768C46.3395 127.901 46.3654 128.033 46.4161 128.155C46.4668 128.278 46.5411 128.39 46.6349 128.484C46.7287 128.579 46.8401 128.653 46.9627 128.704C47.0853 128.755 47.2167 128.781 47.3495 128.781H53.0423C53.175 128.781 53.3064 128.755 53.429 128.704C53.5517 128.653 53.663 128.579 53.7568 128.484C53.8506 128.39 53.925 128.278 53.9756 128.155C54.0263 128.033 54.0523 127.901 54.0521 127.768V125.275C54.0525 125.063 54.119 124.857 54.2424 124.685C54.3657 124.513 54.5397 124.384 54.7398 124.316C55.3436 124.111 55.9328 123.865 56.5032 123.579C56.6927 123.484 56.9075 123.45 57.1169 123.484C57.3264 123.518 57.52 123.617 57.6703 123.767L59.4333 125.534C59.6229 125.724 59.8799 125.831 60.1478 125.831C60.4158 125.831 60.6728 125.724 60.8623 125.534L64.89 121.498C64.9838 121.404 65.0582 121.293 65.109 121.17C65.1597 121.047 65.1859 120.916 65.1859 120.783C65.1859 120.65 65.1597 120.518 65.109 120.396C65.0582 120.273 64.9838 120.162 64.89 120.068L63.0917 118.265C62.9433 118.115 62.8451 117.923 62.8109 117.715C62.7766 117.507 62.808 117.293 62.9006 117.104C63.1734 116.541 63.4091 115.962 63.6063 115.368C63.6726 115.166 63.8009 114.99 63.973 114.865C64.1452 114.741 64.3522 114.673 64.5647 114.674H67.1183C67.2509 114.674 67.3823 114.648 67.5048 114.597C67.6273 114.546 67.7387 114.471 67.8324 114.377C67.9262 114.283 68.0006 114.172 68.0513 114.049C68.1021 113.926 68.1281 113.794 68.1281 113.662V107.954C68.1281 107.821 68.102 107.689 68.0512 107.566C68.0004 107.444 67.926 107.332 67.8321 107.238C67.7382 107.144 67.6267 107.069 67.5041 107.019C67.3814 106.968 67.25 106.942 67.1173 106.942ZM50.1968 119.242C48.5324 119.242 46.9055 118.747 45.5216 117.82C44.1378 116.893 43.0592 115.576 42.4223 114.035C41.7854 112.494 41.6188 110.798 41.9435 109.162C42.2682 107.526 43.0696 106.023 44.2465 104.843C45.4233 103.663 46.9227 102.86 48.5551 102.535C50.1874 102.209 51.8794 102.376 53.417 103.015C54.9547 103.653 56.2689 104.734 57.1936 106.121C58.1182 107.508 58.6118 109.139 58.6118 110.807C58.6118 111.915 58.3941 113.012 57.9712 114.035C57.5483 115.058 56.9285 115.988 56.1471 116.771C55.3657 117.554 54.438 118.176 53.417 118.6C52.3961 119.023 51.3018 119.242 50.1968 119.242Z" fill="#F4F4F4"/>
<path d="M47.4496 60.3015H43.8789C43.5951 60.302 43.3183 60.2139 43.0866 60.0496C42.8549 59.8853 42.68 59.6529 42.586 59.3845C42.3126 58.598 41.9893 57.8298 41.6181 57.0846C41.4899 56.8269 41.4461 56.5351 41.4928 56.2509C41.5395 55.9667 41.6744 55.7045 41.8783 55.5016L44.4158 52.9581C44.6736 52.6995 44.8184 52.3488 44.8184 51.9832C44.8184 51.6176 44.6736 51.2669 44.4158 51.0082L38.9338 45.5158C38.6757 45.2574 38.3259 45.1122 37.9611 45.1122C37.5963 45.1122 37.2464 45.2574 36.9884 45.5158L34.405 48.1051C34.2039 48.3075 33.9448 48.4419 33.6637 48.4895C33.3827 48.537 33.0939 48.4954 32.8376 48.3704C32.1084 48.0135 31.3573 47.7032 30.5889 47.4414C30.3181 47.3489 30.0831 47.1737 29.9168 46.9404C29.7506 46.7072 29.6614 46.4275 29.6619 46.1408V42.4727C29.662 42.2917 29.6265 42.1125 29.5574 41.9453C29.4884 41.7781 29.3871 41.6261 29.2594 41.4982C29.1318 41.3702 28.9802 41.2687 28.8133 41.1995C28.6465 41.1303 28.4677 41.0947 28.2872 41.0947H20.5372C20.3566 41.0947 20.1779 41.1303 20.0111 41.1996C19.8443 41.2688 19.6927 41.3703 19.5651 41.4983C19.4374 41.6262 19.3362 41.7782 19.2671 41.9454C19.1981 42.1126 19.1626 42.2917 19.1626 42.4727V46.1408C19.1631 46.4275 19.074 46.7071 18.9077 46.9404C18.7415 47.1737 18.5064 47.3489 18.2357 47.4414C17.4673 47.7031 16.7162 48.0134 15.9869 48.3704C15.7307 48.4954 15.4419 48.537 15.1608 48.4895C14.8798 48.4419 14.6207 48.3075 14.4196 48.1051L11.8362 45.5158C11.5782 45.2574 11.2283 45.1122 10.8635 45.1122C10.4987 45.1122 10.1489 45.2574 9.89081 45.5158L4.40828 51.0082C4.15047 51.2669 4.00566 51.6176 4.00566 51.9832C4.00566 52.3488 4.15047 52.6995 4.40828 52.9581L6.94608 55.5016C7.14994 55.7046 7.28479 55.9668 7.33144 56.251C7.37809 56.5352 7.33418 56.8269 7.20594 57.0846C6.83451 57.8294 6.51206 58.5976 6.24065 59.3845C6.14578 59.6529 5.97026 59.8851 5.73826 60.0493C5.50626 60.2136 5.22918 60.3017 4.94515 60.3015H1.37479C1.19424 60.3014 1.01545 60.337 0.84862 60.4062C0.681794 60.4754 0.53021 60.5769 0.402532 60.7048C0.274855 60.8328 0.173587 60.9847 0.104518 61.1519C0.0354489 61.3191 -6.70315e-05 61.4983 2.14396e-07 61.6793V69.4498C-0.000100652 69.6308 0.0353905 69.81 0.104444 69.9772C0.173498 70.1444 0.274761 70.2964 0.402442 70.4244C0.530123 70.5523 0.681719 70.6538 0.848561 70.7231C1.0154 70.7923 1.19422 70.8278 1.37479 70.8277H4.85128C5.14041 70.8276 5.4222 70.919 5.65644 71.0889C5.89069 71.2588 6.06543 71.4984 6.15573 71.7737C6.42403 72.5815 6.74495 73.3708 7.11642 74.1364C7.24245 74.3943 7.28513 74.6851 7.23851 74.9684C7.19188 75.2517 7.05828 75.5133 6.8563 75.7169L4.40777 78.1711C4.28001 78.299 4.17865 78.4509 4.1095 78.618C4.04034 78.7852 4.00475 78.9644 4.00475 79.1453C4.00475 79.3263 4.04034 79.5055 4.1095 79.6727C4.17865 79.8398 4.28001 79.9917 4.40777 80.1195L9.89004 85.6143C10.1481 85.8727 10.498 86.0178 10.8628 86.0178C11.2275 86.0178 11.5774 85.8727 11.8355 85.6143L14.2357 83.2083C14.4402 83.0037 14.7037 82.8689 14.9889 82.8229C15.2741 82.7769 15.5666 82.822 15.8248 82.9519C16.6013 83.3407 17.4033 83.676 18.2252 83.9556C18.4978 84.048 18.7347 84.2235 18.9027 84.4577C19.0707 84.6919 19.1613 84.9728 19.1619 85.2613V88.6543C19.1616 88.8354 19.1969 89.0148 19.2658 89.1823C19.3348 89.3497 19.436 89.5019 19.5636 89.6301C19.6913 89.7582 19.8429 89.86 20.0099 89.9294C20.1768 89.9988 20.3557 90.0345 20.5364 90.0346H28.2864C28.4671 90.0346 28.6461 89.9988 28.813 89.9294C28.98 89.8601 29.1316 89.7583 29.2593 89.6301C29.387 89.5019 29.4882 89.3498 29.5572 89.1823C29.6261 89.0149 29.6615 88.8354 29.6612 88.6543V85.2613C29.6618 84.9728 29.7524 84.6919 29.9204 84.4577C30.0884 84.2235 30.3253 84.048 30.5978 83.9556C31.4197 83.676 32.2216 83.3407 32.998 82.9519C33.2562 82.822 33.5487 82.7769 33.8339 82.8229C34.1191 82.8689 34.3826 83.0037 34.5871 83.2083L36.9876 85.6143C37.2457 85.8727 37.5955 86.0178 37.9603 86.0178C38.3251 86.0178 38.6749 85.8727 38.933 85.6143L44.415 80.1195C44.5428 79.9917 44.6442 79.8398 44.7133 79.6727C44.7825 79.5055 44.8181 79.3263 44.8181 79.1453C44.8181 78.9644 44.7825 78.7852 44.7133 78.618C44.6442 78.4509 44.5428 78.299 44.415 78.1711L41.9665 75.7169C41.7645 75.5133 41.6309 75.2517 41.5843 74.9684C41.5377 74.6851 41.5804 74.3943 41.7064 74.1364C42.078 73.3708 42.3989 72.5816 42.6671 71.7737C42.7574 71.4984 42.9321 71.2588 43.1664 71.0889C43.4006 70.919 43.6824 70.8276 43.9715 70.8277H47.4483C47.6288 70.8278 47.8076 70.7922 47.9744 70.723C48.1412 70.6538 48.2928 70.5523 48.4205 70.4243C48.5481 70.2963 48.6493 70.1444 48.7184 69.9772C48.7874 69.8099 48.8229 69.6307 48.8228 69.4498V61.6793C48.8229 61.314 48.6783 60.9637 48.4208 60.7054C48.1633 60.447 47.8139 60.3017 47.4496 60.3015ZM24.4132 77.0467C22.1472 77.0469 19.932 76.3736 18.0478 75.1119C16.1636 73.8502 14.695 72.0567 13.8278 69.9584C12.9605 67.8601 12.7336 65.5511 13.1756 63.3235C13.6176 61.0959 14.7088 59.0496 16.3111 57.4436C17.9134 55.8376 19.9549 54.7439 22.1773 54.3009C24.3998 53.8578 26.7034 54.0853 28.7969 54.9546C30.8904 55.8238 32.6797 57.2958 33.9385 59.1844C35.1973 61.073 35.869 63.2933 35.8688 65.5645C35.8685 68.6097 34.6615 71.53 32.5132 73.6833C30.3649 75.8365 27.4513 77.0464 24.4132 77.0467Z" fill="#F4F4F4"/>
<path d="M36.1446 110.877L170.627 110.877C173.929 110.877 176.606 108.194 176.606 104.883V6.19355C176.606 2.88337 173.929 0.199936 170.627 0.199936L36.1446 0.199936C32.8421 0.199936 30.1649 2.88337 30.1649 6.19355V104.883C30.1649 108.194 32.8421 110.877 36.1446 110.877Z" fill="white"/>
<path d="M29.9658 104.883V6.19333C29.9678 4.55132 30.6195 2.97712 31.7779 1.81607C32.9363 0.655011 34.5069 0.00189969 36.1451 0L170.628 0C172.266 0.00189969 173.836 0.655011 174.995 1.81607C176.153 2.97712 176.805 4.55132 176.807 6.19333V104.883C176.805 106.525 176.153 108.099 174.995 109.26C173.836 110.422 172.266 111.075 170.628 111.076H36.1451C34.5068 111.075 32.9362 110.422 31.7778 109.26C30.6194 108.099 29.9677 106.525 29.9658 104.883ZM36.1451 0.399677C34.6125 0.401441 33.1433 1.01244 32.0596 2.09862C30.9759 3.18481 30.3663 4.65749 30.3646 6.19359V104.883C30.3663 106.419 30.9759 107.892 32.0596 108.978C33.1433 110.064 34.6125 110.675 36.1451 110.677H170.628C172.16 110.675 173.629 110.064 174.713 108.978C175.797 107.892 176.406 106.419 176.408 104.883V6.19333C176.406 4.65721 175.797 3.18449 174.713 2.09829C173.63 1.01209 172.16 0.401117 170.628 0.399421L36.1451 0.399677Z" fill="#292A2E"/>
<path d="M30.165 6.19284V12.2239H176.606V6.19284C176.606 4.60341 175.976 3.07907 174.855 1.95507C173.734 0.83108 172.213 0.199491 170.627 0.199219H36.1448C34.5589 0.199219 33.0379 0.830688 31.9165 1.95471C30.795 3.07873 30.165 4.60323 30.165 6.19284Z" fill="#292A2E"/>
<path d="M55.9415 67.1525C52.7393 67.1525 49.6091 66.2007 46.9465 64.4175C44.284 62.6344 42.2088 60.0999 40.9834 57.1346C39.758 54.1693 39.4374 50.9064 40.0621 47.7584C40.6868 44.6105 42.2288 41.7189 44.4931 39.4494C46.7574 37.1799 49.6422 35.6343 52.7829 35.0081C55.9236 34.382 59.1789 34.7033 62.1374 35.9316C65.0958 37.1598 67.6244 39.2398 69.4035 41.9085C71.1825 44.5772 72.1321 47.7148 72.1321 50.9244C72.1271 55.2268 70.4198 59.3516 67.3845 62.3939C64.3493 65.4362 60.234 67.1475 55.9415 67.1525ZM55.9415 35.209C52.8405 35.209 49.8091 36.1307 47.2307 37.8575C44.6523 39.5844 42.6427 42.0388 41.456 44.9104C40.2693 47.782 39.9588 50.9418 40.5638 53.9903C41.1688 57.0388 42.6621 59.839 44.8548 62.0368C47.0475 64.2346 49.8413 65.7314 52.8827 66.3378C55.9241 66.9441 59.0767 66.6329 61.9416 65.4435C64.8066 64.254 67.2553 62.2397 68.9781 59.6554C70.701 57.071 71.6205 54.0326 71.6205 50.9244C71.616 46.7577 69.9627 42.763 67.0233 39.8166C64.0839 36.8702 60.0986 35.2128 55.9415 35.208V35.209Z" fill="#292A2E"/>
<path d="M103.386 67.1525C100.184 67.1525 97.0534 66.2007 94.3909 64.4175C91.7284 62.6344 89.6532 60.0999 88.4278 57.1346C87.2023 54.1693 86.8817 50.9064 87.5064 47.7584C88.1311 44.6105 89.6731 41.7189 91.9374 39.4494C94.2017 37.1799 97.0866 35.6343 100.227 35.0081C103.368 34.382 106.623 34.7033 109.582 35.9316C112.54 37.1598 115.069 39.2398 116.848 41.9085C118.627 44.5772 119.576 47.7148 119.576 50.9244C119.571 55.2268 117.864 59.3516 114.829 62.3939C111.794 65.4362 107.678 67.1475 103.386 67.1525ZM103.386 35.209C100.285 35.209 97.2535 36.1307 94.6751 37.8575C92.0967 39.5844 90.0871 42.0388 88.9004 44.9104C87.7137 47.782 87.4032 50.9418 88.0081 53.9903C88.6131 57.0388 90.1064 59.839 92.2991 62.0368C94.4919 64.2346 97.2856 65.7314 100.327 66.3378C103.368 66.9441 106.521 66.6329 109.386 65.4435C112.251 64.254 114.7 62.2397 116.422 59.6554C118.145 57.071 119.065 54.0326 119.065 50.9244C119.06 46.7577 117.407 42.763 114.468 39.8166C111.528 36.8702 107.543 35.2128 103.386 35.208V35.209Z" fill="#292A2E"/>
<path d="M150.83 67.1525C147.628 67.1525 144.498 66.2007 141.835 64.4175C139.173 62.6344 137.098 60.0999 135.872 57.1346C134.647 54.1693 134.326 50.9064 134.951 47.7584C135.575 44.6105 137.117 41.7189 139.382 39.4494C141.646 37.1799 144.531 35.6343 147.672 35.0081C150.812 34.382 154.068 34.7033 157.026 35.9316C159.985 37.1598 162.513 39.2398 164.292 41.9085C166.071 44.5772 167.021 47.7148 167.021 50.9244C167.016 55.2268 165.308 59.3516 162.273 62.3939C159.238 65.4362 155.123 67.1475 150.83 67.1525ZM150.83 35.209C147.729 35.209 144.698 36.1307 142.119 37.8575C139.541 39.5844 137.531 42.0388 136.345 44.9104C135.158 47.782 134.848 50.9418 135.452 53.9903C136.057 57.0388 137.551 59.839 139.743 62.0368C141.936 64.2346 144.73 65.7314 147.771 66.3378C150.813 66.9441 153.965 66.6329 156.83 65.4435C159.695 64.254 162.144 62.2397 163.867 59.6554C165.59 57.071 166.509 54.0326 166.509 50.9244C166.505 46.7577 164.851 42.763 161.912 39.8166C158.973 36.8702 154.987 35.2128 150.83 35.208V35.209Z" fill="#292A2E"/>
<path opacity="0.6" d="M160.909 53.2624V43.1582H149.277V51.0861H157.878L160.909 53.2624Z" fill="#505F98"/>
<path d="M140.751 60.6049V46.9395H156.482V57.6615H144.851L140.751 60.6049Z" fill="#505F98"/>
<path d="M144.316 53.7719C145.069 53.7719 145.68 53.1602 145.68 52.4055C145.68 51.6508 145.069 51.0391 144.316 51.0391C143.563 51.0391 142.953 51.6508 142.953 52.4055C142.953 53.1602 143.563 53.7719 144.316 53.7719Z" fill="white"/>
<path d="M148.616 53.7719C149.369 53.7719 149.979 53.1602 149.979 52.4055C149.979 51.6508 149.369 51.0391 148.616 51.0391C147.863 51.0391 147.253 51.6508 147.253 52.4055C147.253 53.1602 147.863 53.7719 148.616 53.7719Z" fill="white"/>
<path d="M152.916 53.7719C153.669 53.7719 154.279 53.1602 154.279 52.4055C154.279 51.6508 153.669 51.0391 152.916 51.0391C152.163 51.0391 151.553 51.6508 151.553 52.4055C151.553 53.1602 152.163 53.7719 152.916 53.7719Z" fill="white"/>
<path d="M64.0084 55.89C64.1651 55.9948 64.2755 56.156 64.3167 56.3402C64.358 56.5244 64.327 56.7174 64.2302 56.8793L63.3483 58.3521C63.1143 58.7505 62.7364 59.0433 62.2929 59.1699C60.8271 59.573 57.5946 59.654 52.4131 54.4612C47.2316 49.2685 47.3132 46.0267 47.7153 44.5583C47.8415 44.1137 48.1335 43.7348 48.5307 43.5L50.0006 42.6163C50.1621 42.5192 50.3547 42.4882 50.5384 42.5297C50.7221 42.5712 50.8828 42.682 50.9872 42.8391L53.3306 46.3623C53.433 46.5166 53.4734 46.704 53.4437 46.8869C53.4141 47.0698 53.3166 47.2347 53.1707 47.3486L51.8545 48.374C51.7164 48.4809 51.6211 48.6337 51.5858 48.8049C51.5505 48.9761 51.5776 49.1543 51.6622 49.3072C52.0484 50.0035 52.4144 50.8241 54.2268 52.6431C56.0392 54.462 56.8613 54.8266 57.555 55.2137C57.7075 55.2984 57.8853 55.3255 58.056 55.29C58.2268 55.2545 58.3792 55.1587 58.4855 55.0201L59.5086 53.7016C59.6221 53.5553 59.7867 53.4574 59.9693 53.4277C60.1518 53.3979 60.3389 53.4386 60.4928 53.5414L64.0084 55.89Z" fill="#505F98"/>
<path opacity="0.6" d="M111.729 56.628H95.1074C94.9205 56.629 94.7408 56.5555 94.608 56.4237C94.4751 56.292 94.3999 56.1127 94.3989 55.9253L94.3408 45.9401C94.3403 45.8574 94.3561 45.7754 94.3872 45.6988C94.4184 45.6221 94.4643 45.5524 94.5223 45.4936C94.5803 45.4348 94.6494 45.3881 94.7254 45.356C94.8015 45.324 94.8832 45.3073 94.9657 45.3069L111.741 45.2207C111.907 45.2198 112.067 45.2852 112.186 45.4026C112.304 45.52 112.371 45.6796 112.372 45.8465L112.43 55.9179C112.431 56.0107 112.413 56.1026 112.378 56.1885C112.343 56.2745 112.291 56.3526 112.226 56.4186C112.161 56.4845 112.084 56.5369 111.998 56.5729C111.913 56.6088 111.821 56.6276 111.729 56.628Z" fill="#505F98"/>
<path d="M112.193 45.4094C111.201 46.1401 103.994 51.4572 103.986 51.4623C103.79 51.5723 103.569 51.6279 103.344 51.6234C103.12 51.6189 102.901 51.5544 102.71 51.4367L94.5117 45.5069C94.5701 45.4442 94.6406 45.3942 94.7189 45.3598C94.7972 45.3254 94.8817 45.3074 94.9673 45.3069L111.741 45.2197C111.825 45.2195 111.908 45.2361 111.986 45.2687C112.064 45.3013 112.134 45.3491 112.193 45.4094Z" fill="#505F98"/>
<path d="M180.991 57.7253C184.211 57.7253 186.82 55.1095 186.82 51.8827C186.82 48.6559 184.211 46.04 180.991 46.04C177.772 46.04 175.162 48.6559 175.162 51.8827C175.162 55.1095 177.772 57.7253 180.991 57.7253Z" fill="#505F98"/>
<path d="M178.259 51.3295C178.109 51.3295 177.962 51.2856 177.837 51.203C177.712 51.1205 177.613 51.0029 177.554 50.8649C177.449 50.6206 175.009 44.7836 177.659 36.221C180.53 26.9458 190.53 26.8379 190.63 26.8379C190.834 26.8379 191.029 26.9189 191.173 27.0632C191.317 27.2074 191.397 27.403 191.397 27.607C191.397 27.811 191.317 28.0066 191.173 28.1508C191.029 28.2951 190.834 28.3761 190.63 28.3761C190.265 28.3761 181.655 28.4968 179.124 36.6763C176.64 44.7006 178.938 50.2004 178.962 50.255C179.012 50.372 179.033 50.4997 179.022 50.6266C179.011 50.7536 178.968 50.8758 178.899 50.9823C178.829 51.0887 178.734 51.1762 178.622 51.2367C178.51 51.2972 178.385 51.3289 178.258 51.329L178.259 51.3295Z" fill="#505F98"/>
<path d="M178.881 57.7243C182.1 57.7243 184.71 55.1085 184.71 51.8817C184.71 48.6549 182.1 46.0391 178.881 46.0391C175.662 46.0391 173.052 48.6549 173.052 51.8817C173.052 55.1085 175.662 57.7243 178.881 57.7243Z" fill="#505F98"/>
<path opacity="0.3" d="M178.881 57.7243C182.1 57.7243 184.71 55.1085 184.71 51.8817C184.71 48.6549 182.1 46.0391 178.881 46.0391C175.662 46.0391 173.052 48.6549 173.052 51.8817C173.052 55.1085 175.662 57.7243 178.881 57.7243Z" fill="white"/>
<path d="M180.279 57.7243C183.499 57.7243 186.108 55.1085 186.108 51.8817C186.108 48.6549 183.499 46.0391 180.279 46.0391C177.06 46.0391 174.45 48.6549 174.45 51.8817C174.45 55.1085 177.06 57.7243 180.279 57.7243Z" fill="#505F98"/>
<path d="M207.776 41.3691C207.776 41.3691 209.649 50.3638 211.885 53.0851C218.324 60.919 221.151 70.3295 216.53 76.0695C211.909 81.8096 179.721 86.4458 175.606 75.2351C172.143 65.7969 175.858 64.1256 175.903 55.9475C175.924 52.2468 176.435 44.4425 176.435 44.4425" fill="#0A0A0A"/>
<path d="M180.873 70.4764C180.932 70.4688 181.585 81.3285 194.172 80.3817C202.886 79.7275 205.992 70.4603 206.193 70.4603C205.254 70.2603 203.672 69.9691 203.255 69.7461C201.882 69.0069 200.185 68.2381 199.742 65.5673C199.487 64.0291 199.92 56.1529 199.787 54.5947L186.411 57.587C186.598 60.8762 187.906 68.5019 183.322 69.8514C182.558 70.0763 181.736 70.2816 180.873 70.4764Z" fill="#E98862"/>
<path opacity="0.5" d="M186.223 66.7368C186.432 66.0601 186.567 65.3624 186.625 64.6562C186.772 63.0445 186.743 61.4216 186.538 59.8164C189.256 59.4487 191.817 58.3241 193.929 56.5703C194.178 57.4896 195.544 61.5069 195.166 62.3806C194.451 64.0324 191.092 66.7368 186.223 66.7368Z" fill="#0C0C0C"/>
<path d="M188.604 64.3514C193.899 64.1519 200.378 61.1427 200.841 53.9775L201.258 47.5124C201.72 40.3474 198.34 34.2956 191.609 33.8592C184.879 33.4234 179.473 38.9053 179.011 46.0706L178.826 48.9326C178.649 51.683 179.158 64.7064 188.604 64.3514Z" fill="#E98862"/>
<path opacity="0.1" d="M190.696 54.7623C191.57 54.7489 192.27 54.2172 192.26 53.5748C192.251 52.9323 191.534 52.4224 190.66 52.4357C189.787 52.4491 189.086 52.9808 189.096 53.6232C189.106 54.2657 189.822 54.7756 190.696 54.7623Z" fill="#0C0C0C"/>
<path opacity="0.1" d="M181.268 53.4619C181.276 54.1028 180.576 54.6348 179.702 54.6494C179.551 54.6515 179.4 54.638 179.252 54.6091C179.11 53.8618 179.011 53.1378 178.942 52.4643C179.173 52.3723 179.419 52.3242 179.668 52.3226C180.542 52.308 181.258 52.8179 181.268 53.4619Z" fill="#0C0C0C"/>
<path d="M181.03 48.6353C181.487 48.6353 181.858 48.2638 181.858 47.8055C181.858 47.3471 181.487 46.9756 181.03 46.9756C180.573 46.9756 180.202 47.3471 180.202 47.8055C180.202 48.2638 180.573 48.6353 181.03 48.6353Z" fill="#0C0C0C"/>
<path d="M189.222 49.2486C189.68 49.2486 190.05 48.8771 190.05 48.4187C190.05 47.9604 189.68 47.5889 189.222 47.5889C188.765 47.5889 188.395 47.9604 188.395 48.4187C188.395 48.8771 188.765 49.2486 189.222 49.2486Z" fill="#0C0C0C"/>
<path opacity="0.5" d="M185.331 54.9H185.318C185.045 54.8801 184.773 54.8454 184.504 54.7959C184.102 54.719 183.57 54.5749 183.594 54.2167C183.619 53.8083 185.019 49.4757 185.179 48.983C185.194 48.9415 185.225 48.9076 185.265 48.8883C185.304 48.869 185.35 48.8658 185.392 48.8794C185.434 48.8931 185.469 48.9225 185.489 48.9614C185.51 49.0004 185.515 49.0459 185.503 49.0884C184.906 50.9342 183.951 53.964 183.933 54.2388C183.992 54.3577 184.663 54.5152 185.34 54.5592C185.384 54.5625 185.425 54.5825 185.454 54.615C185.483 54.6476 185.499 54.6902 185.498 54.734C185.497 54.7779 185.479 54.8196 185.448 54.8505C185.417 54.8815 185.375 54.8993 185.331 54.9002L185.331 54.9Z" fill="#0C0C0C"/>
<path opacity="0.5" d="M186.676 57.8022C185.586 57.7954 184.513 57.5319 183.544 57.0331C183.524 57.0233 183.506 57.0096 183.491 56.9928C183.476 56.976 183.465 56.9564 183.457 56.9353C183.443 56.8925 183.446 56.8456 183.466 56.805C183.485 56.7643 183.521 56.7333 183.563 56.7186C183.606 56.704 183.653 56.7069 183.693 56.7268C185.785 57.7522 187.734 57.7194 189.33 56.6319C189.362 56.6089 189.395 56.5876 189.43 56.5681C189.47 56.5498 189.515 56.5478 189.557 56.5624C189.598 56.577 189.633 56.6071 189.652 56.6465C189.672 56.6859 189.676 56.7314 189.663 56.7735C189.65 56.8157 189.622 56.8512 189.583 56.8727C189.57 56.8798 189.55 56.8942 189.521 56.9142C188.682 57.4873 187.691 57.7965 186.676 57.8022Z" fill="#0C0C0C"/>
<path d="M206.707 49.0588L200.678 48.7027C195.99 47.4424 193.688 39.8608 193.688 39.8608C193.688 39.8608 189.938 45.8288 176.423 44.4367C176.423 44.4367 175.765 25.4737 195.855 28.6845C202.315 29.7171 207.599 35.4052 208.077 43.9268C208.412 49.8989 206.707 49.0588 206.707 49.0588Z" fill="#0A0A0A"/>
<path d="M200.282 56.1331C202.328 56.2659 204.127 54.1799 204.259 52.1297C204.392 50.0795 202.807 48.8415 200.761 48.709L199.618 50.0144L198.523 56.0193L200.282 56.1331Z" fill="#E98862"/>
<path d="M183.331 45.9287C182.785 45.643 182.174 45.5071 181.558 45.5349C181.249 45.547 180.943 45.6057 180.652 45.709C180.357 45.8119 180.077 45.9513 179.817 46.1241L179.809 46.1292C179.78 46.147 179.745 46.1527 179.712 46.1451C179.678 46.1376 179.65 46.1173 179.631 46.0887C179.613 46.0601 179.606 46.0254 179.613 45.992C179.62 45.9586 179.639 45.9292 179.667 45.91C179.941 45.7143 180.238 45.5539 180.552 45.4327C180.867 45.309 181.2 45.2337 181.538 45.2091C182.222 45.1552 182.908 45.2862 183.525 45.5885C183.571 45.6117 183.606 45.6525 183.623 45.7018C183.639 45.751 183.635 45.8048 183.612 45.8513C183.589 45.8978 183.548 45.9331 183.499 45.9496C183.45 45.966 183.396 45.9622 183.35 45.939L183.345 45.9364L183.331 45.9287Z" fill="#0C0C0C"/>
<path d="M188.797 45.9469C189.447 45.7238 190.144 45.6795 190.816 45.8187C191.148 45.8852 191.469 46.0013 191.767 46.1632C192.063 46.3227 192.338 46.5189 192.585 46.7472C192.61 46.7699 192.625 46.8013 192.628 46.835C192.63 46.8686 192.619 46.9019 192.598 46.9278C192.576 46.9537 192.545 46.9701 192.512 46.9738C192.478 46.9774 192.445 46.9679 192.418 46.9472L192.41 46.941C192.174 46.7371 191.913 46.5638 191.634 46.425C191.357 46.286 191.061 46.1897 190.755 46.1394C190.148 46.0349 189.525 46.0934 188.948 46.3088L188.934 46.3145C188.91 46.3238 188.884 46.3284 188.858 46.3279C188.833 46.3273 188.808 46.3217 188.784 46.3114C188.76 46.3011 188.739 46.2862 188.721 46.2676C188.704 46.2491 188.69 46.2272 188.68 46.2032C188.671 46.1793 188.667 46.1537 188.667 46.1279C188.668 46.1022 188.673 46.0768 188.683 46.0533C188.694 46.0297 188.709 46.0084 188.727 45.9906C188.746 45.9728 188.767 45.9588 188.791 45.9494L188.797 45.9469Z" fill="#0C0C0C"/>
<path opacity="0.52" d="M186.644 59.4208C186.447 59.4225 186.25 59.4075 186.056 59.3759C186.033 59.3724 186.012 59.3646 185.993 59.3528C185.974 59.3411 185.958 59.3258 185.945 59.3076C185.931 59.2895 185.922 59.269 185.917 59.2472C185.912 59.2254 185.911 59.2028 185.914 59.1807C185.918 59.1586 185.926 59.1374 185.937 59.1183C185.949 59.0992 185.964 59.0826 185.982 59.0694C186 59.0563 186.021 59.0468 186.043 59.0416C186.064 59.0364 186.087 59.0355 186.109 59.0391C187.279 59.2257 187.869 58.7142 187.894 58.6924C187.928 58.6621 187.972 58.6464 188.017 58.6487C188.062 58.6509 188.104 58.6711 188.134 58.7046C188.165 58.7382 188.18 58.7824 188.178 58.8276C188.176 58.8727 188.156 58.9152 188.122 58.9455C187.699 59.2703 187.177 59.4383 186.644 59.4208Z" fill="#0C0C0C"/>
<path d="M200.744 48.6129C196.597 47.6738 194.919 45.1171 194.242 43.1374C193.798 41.8162 193.634 40.4166 193.762 39.0283L193.89 39.0455C193.765 40.4156 193.927 41.7967 194.365 43.1005C195.033 45.0473 196.686 47.5613 200.774 48.488L200.744 48.6129Z" fill="#0C0C0C"/>
<path d="M136.97 74.6577L132.866 66.9003C132.776 66.7299 132.651 66.5802 132.5 66.4608C132.349 66.3414 132.175 66.2548 131.988 66.2065C131.802 66.1583 131.608 66.1495 131.418 66.1807C131.228 66.2118 131.046 66.2823 130.885 66.3876C130.593 66.5911 130.387 66.896 130.307 67.2431C130.227 67.5903 130.278 67.955 130.45 68.2665L131.33 69.9298L126.167 65.9722C125.601 65.5221 124.619 65.3329 124.157 66.003C123.962 66.2492 123.857 66.5543 123.858 66.8683C123.858 67.1823 123.965 67.4868 124.161 67.7322C124.155 67.7366 124.15 67.7414 124.145 67.7466C124.142 67.7512 124.141 67.7566 124.138 67.7612L123.265 67.0657C123.103 66.9372 122.915 66.8465 122.714 66.8003C122.513 66.754 122.304 66.7534 122.102 66.7983C121.901 66.8433 121.712 66.9328 121.549 67.0602C121.386 67.1877 121.254 67.3499 121.162 67.5351C121.023 67.8296 120.989 68.1631 121.065 68.4798C121.142 68.7965 121.325 69.0772 121.583 69.275L121.955 69.5704C121.952 69.5851 121.951 69.6004 121.952 69.6155C121.655 69.4744 121.318 69.4438 121 69.5293C120.682 69.6148 120.405 69.8107 120.218 70.0821C120.023 70.3851 119.949 70.7509 120.01 71.1065C120.072 71.4621 120.265 71.7813 120.551 72.0005L121.474 72.7339C121.454 72.7327 121.433 72.7365 121.415 72.7447C121.396 72.753 121.38 72.7657 121.367 72.7816C121.353 72.8013 121.345 72.8246 121.343 72.8488C121.044 72.7969 120.735 72.845 120.466 72.9858C120.196 73.1266 119.98 73.3523 119.851 73.6282C119.721 73.9207 119.694 74.2486 119.773 74.5587C119.852 74.8688 120.033 75.1431 120.288 75.3371L128.077 81.5261C129.166 82.3918 130.489 82.9117 131.876 83.019C133.262 83.1264 134.649 82.8163 135.858 82.1285C136.901 81.5356 137.672 80.5584 138.007 79.4048C138.343 78.2511 138.216 77.0118 137.655 75.9501L136.97 74.6577Z" fill="#E98862"/>
<g opacity="0.2">
<path opacity="0.2" d="M129.252 71.674C129.231 71.7 129.201 71.7169 129.168 71.7209C129.134 71.7248 129.101 71.7156 129.074 71.6952L124.169 67.9254C124.156 67.9151 124.145 67.9023 124.136 67.8877C124.128 67.8732 124.122 67.8571 124.12 67.8404C124.118 67.8237 124.119 67.8067 124.123 67.7904C124.128 67.7741 124.135 67.7589 124.146 67.7455C124.156 67.7322 124.169 67.7209 124.183 67.7125C124.198 67.7041 124.214 67.6986 124.23 67.6964C124.247 67.6942 124.264 67.6953 124.28 67.6997C124.296 67.704 124.312 67.7116 124.325 67.7218L129.23 71.4919C129.257 71.5126 129.275 71.5432 129.279 71.5768C129.283 71.6104 129.274 71.6445 129.254 71.6714L129.252 71.674Z" fill="#0C0C0C"/>
</g>
<g opacity="0.2">
<path opacity="0.2" d="M127.653 73.8883C127.632 73.9144 127.602 73.9313 127.569 73.9352C127.536 73.9392 127.502 73.93 127.476 73.9096L122.002 69.7024C121.975 69.6817 121.958 69.6512 121.953 69.6176C121.949 69.5839 121.958 69.5499 121.978 69.5229C122 69.497 122.03 69.4802 122.063 69.4758C122.096 69.4713 122.13 69.4797 122.157 69.4991L127.632 73.7053C127.659 73.726 127.676 73.7565 127.681 73.7901C127.685 73.8237 127.676 73.8578 127.656 73.8848L127.653 73.8883Z" fill="#0C0C0C"/>
</g>
<g opacity="0.2">
<path opacity="0.2" d="M125.935 76.2973C125.914 76.3234 125.884 76.3402 125.851 76.3442C125.818 76.3482 125.784 76.339 125.758 76.3186L121.391 72.9625C121.364 72.9418 121.346 72.9112 121.342 72.8775C121.337 72.8437 121.347 72.8096 121.367 72.7826C121.388 72.7556 121.418 72.738 121.452 72.7335C121.486 72.7291 121.52 72.7382 121.547 72.7589L125.913 76.1158C125.94 76.1365 125.958 76.167 125.962 76.2006C125.967 76.2342 125.958 76.2683 125.937 76.2953L125.935 76.2973Z" fill="#0C0C0C"/>
</g>
<path d="M166.206 75.0878L152.934 98.4052L139.37 73.5801L123.16 82.6514L144.982 121.086C145.689 122.321 146.674 123.373 147.86 124.157C149.848 125.463 152.273 125.924 154.6 125.438C156.927 124.953 158.967 123.561 160.27 121.568L160.382 121.396L183.658 85.7957L166.206 75.0878Z" fill="#505F98"/>
<path d="M136.97 74.6574L132.866 66.9C132.776 66.7296 132.651 66.58 132.5 66.4605C132.349 66.3411 132.174 66.2545 131.988 66.2062C131.802 66.158 131.607 66.1492 131.417 66.1804C131.228 66.2115 131.046 66.282 130.885 66.3873C130.593 66.5908 130.387 66.8957 130.307 67.2429C130.226 67.59 130.277 67.9547 130.45 68.2662L131.33 69.9295L132.699 72.9331" fill="#E98862"/>
<path d="M194.407 77.6681C203.127 77.2561 203.494 69.8379 203.494 69.8379C203.494 69.8379 207.814 70.1176 210.686 70.5073C215.389 71.1449 218.49 72.7431 220.959 75.2173C223.256 77.5192 224.654 80.0093 223.174 95.909C222.103 107.42 222.857 132.744 222.857 132.744H170.231C170.231 132.744 167.075 99.553 166.635 94.3707C165.796 84.4778 162.358 78.9015 167.163 73.8054C170.648 70.1096 179.645 69.8379 183.266 69.8384C183.325 69.8384 182.532 78.2293 194.407 77.6681Z" fill="#505F98"/>
<path d="M166.942 92.7161C166.939 92.6821 166.924 92.6503 166.898 92.6278C166.873 92.6053 166.84 92.5938 166.806 92.596C166.772 92.5981 166.74 92.6137 166.718 92.6392C166.695 92.6648 166.684 92.6982 166.686 92.7322L167.756 109.865C167.758 109.896 167.771 109.925 167.792 109.947C167.814 109.969 167.843 109.982 167.873 109.984C167.879 109.985 167.885 109.985 167.892 109.984C167.908 109.983 167.925 109.979 167.94 109.972C167.955 109.964 167.968 109.954 167.98 109.941C167.991 109.929 167.999 109.914 168.005 109.898C168.01 109.882 168.012 109.865 168.011 109.848" fill="#0C0C0C"/>
<path d="M178.537 117.726L170.024 115.653C169.837 115.607 169.642 115.601 169.453 115.635C169.263 115.669 169.083 115.742 168.923 115.85C168.764 115.957 168.628 116.097 168.525 116.26C168.422 116.423 168.354 116.606 168.326 116.797C168.284 117.151 168.374 117.507 168.58 117.798C168.786 118.089 169.092 118.292 169.439 118.37L171.264 118.814L164.884 120.057C164.172 120.183 163.379 120.793 163.573 121.584C163.627 121.894 163.785 122.175 164.019 122.383C164.254 122.591 164.552 122.713 164.865 122.73C164.865 122.736 164.865 122.743 164.865 122.75C164.865 122.756 164.87 122.76 164.871 122.765L163.774 122.959C163.571 122.995 163.378 123.076 163.21 123.197C163.042 123.317 162.903 123.473 162.802 123.654C162.702 123.835 162.643 124.036 162.631 124.242C162.618 124.449 162.651 124.656 162.728 124.848C162.855 125.148 163.081 125.395 163.369 125.547C163.656 125.7 163.987 125.749 164.306 125.687L164.773 125.604C164.782 125.617 164.792 125.627 164.805 125.636C164.502 125.765 164.255 125.998 164.108 126.293C163.961 126.588 163.923 126.926 164.002 127.246C164.098 127.594 164.321 127.893 164.628 128.083C164.934 128.273 165.3 128.34 165.654 128.271L166.814 128.066C166.8 128.081 166.789 128.098 166.783 128.118C166.777 128.137 166.775 128.158 166.778 128.178C166.784 128.202 166.796 128.223 166.813 128.24C166.575 128.43 166.406 128.693 166.333 128.989C166.259 129.285 166.284 129.596 166.404 129.876C166.536 130.168 166.762 130.406 167.046 130.553C167.33 130.699 167.655 130.745 167.969 130.684L177.758 128.953C179.127 128.711 180.393 128.064 181.394 127.096C182.394 126.129 183.083 124.883 183.373 123.52C183.623 122.345 183.405 121.118 182.767 120.1C182.129 119.083 181.12 118.355 179.955 118.071L178.537 117.726Z" fill="#E98862"/>
<g opacity="0.2">
<path opacity="0.2" d="M171.187 121.531C171.193 121.564 171.185 121.598 171.166 121.625C171.147 121.653 171.118 121.672 171.085 121.678L165.015 122.852C164.999 122.855 164.982 122.855 164.965 122.852C164.949 122.849 164.933 122.842 164.919 122.833C164.906 122.823 164.894 122.811 164.884 122.797C164.875 122.783 164.869 122.767 164.866 122.751C164.862 122.734 164.863 122.717 164.866 122.701C164.869 122.684 164.876 122.668 164.885 122.655C164.895 122.641 164.907 122.629 164.921 122.619C164.935 122.61 164.951 122.604 164.967 122.601L171.036 121.426C171.053 121.423 171.07 121.423 171.086 121.426C171.103 121.43 171.119 121.437 171.133 121.446C171.146 121.456 171.158 121.468 171.168 121.482C171.177 121.496 171.183 121.512 171.186 121.529L171.187 121.531Z" fill="#0C0C0C"/>
</g>
<g opacity="0.2">
<path opacity="0.2" d="M171.779 124.199C171.784 124.232 171.777 124.266 171.758 124.294C171.739 124.321 171.71 124.34 171.677 124.347L164.903 125.657C164.887 125.66 164.87 125.66 164.853 125.657C164.837 125.653 164.821 125.647 164.807 125.637C164.793 125.627 164.781 125.615 164.772 125.601C164.763 125.587 164.757 125.571 164.754 125.555C164.748 125.521 164.756 125.487 164.775 125.459C164.794 125.431 164.823 125.412 164.856 125.405L171.629 124.094C171.646 124.091 171.663 124.091 171.679 124.095C171.696 124.098 171.711 124.105 171.725 124.114C171.739 124.124 171.751 124.136 171.76 124.15C171.77 124.164 171.776 124.18 171.779 124.197V124.199Z" fill="#0C0C0C"/>
</g>
<g opacity="0.2">
<path opacity="0.2" d="M172.434 127.086C172.439 127.119 172.432 127.153 172.413 127.181C172.394 127.208 172.364 127.227 172.332 127.234L166.929 128.279C166.912 128.282 166.895 128.282 166.879 128.279C166.862 128.275 166.847 128.269 166.833 128.259C166.819 128.25 166.807 128.238 166.798 128.224C166.788 128.21 166.782 128.194 166.779 128.177C166.776 128.161 166.776 128.144 166.779 128.127C166.782 128.111 166.789 128.095 166.798 128.081C166.808 128.067 166.82 128.055 166.834 128.046C166.848 128.037 166.863 128.03 166.88 128.027L172.283 126.982C172.3 126.979 172.317 126.979 172.333 126.982C172.35 126.986 172.365 126.992 172.379 127.002C172.393 127.011 172.405 127.024 172.414 127.038C172.423 127.052 172.43 127.068 172.433 127.084L172.434 127.086Z" fill="#0C0C0C"/>
</g>
<path d="M177.688 132.308L223.431 132.559C224.904 132.719 226.394 132.536 227.785 132.022C229.175 131.509 230.428 130.679 231.445 129.599C232.462 128.518 233.216 127.216 233.646 125.795C234.077 124.373 234.173 122.871 233.927 121.407L223.737 80.4904C223.534 79.2395 223.087 78.041 222.421 76.9639C221.755 75.8869 220.883 74.9524 219.855 74.2143C218.828 73.4761 217.665 72.9489 216.433 72.663C215.201 72.3771 213.925 72.338 212.679 72.5481C211.432 72.7581 210.239 73.2132 209.168 73.8871C208.097 74.561 207.17 75.4404 206.44 76.4747C205.709 77.509 205.19 78.6779 204.912 79.9141C204.634 81.1503 204.602 82.4294 204.819 83.6778L212.635 114.502L177.91 115.647L177.688 132.308Z" fill="#505F98"/>
<path d="M218.614 114.373C218.646 114.373 218.676 114.36 218.7 114.338C218.723 114.316 218.738 114.286 218.74 114.254C218.742 114.222 218.733 114.19 218.713 114.165C218.693 114.14 218.664 114.123 218.632 114.118L212.708 114.334C212.692 114.331 212.675 114.332 212.658 114.336C212.642 114.34 212.626 114.347 212.613 114.357C212.599 114.367 212.588 114.38 212.579 114.394C212.571 114.409 212.565 114.425 212.563 114.441C212.558 114.475 212.566 114.509 212.587 114.537C212.607 114.564 212.637 114.582 212.67 114.587L218.594 114.371C218.601 114.372 218.607 114.373 218.614 114.373Z" fill="#0C0C0C"/>
<path d="M222.1 132.743C222.134 132.745 222.167 132.734 222.193 132.711C222.218 132.689 222.234 132.657 222.236 132.623C222.238 132.589 222.227 132.556 222.205 132.53C222.182 132.504 222.151 132.489 222.117 132.487L177.956 132.211L178.15 115.803L212.667 114.587C212.687 114.59 212.707 114.588 212.726 114.581C212.745 114.574 212.762 114.563 212.776 114.549C212.79 114.535 212.8 114.517 212.806 114.498C212.812 114.479 212.813 114.458 212.81 114.439L209.046 95.9109C209.043 95.8942 209.037 95.8782 209.028 95.8638C209.02 95.8494 209.008 95.8369 208.994 95.8271C208.981 95.8173 208.965 95.8104 208.949 95.8067C208.932 95.8031 208.915 95.8027 208.898 95.8058C208.865 95.8114 208.835 95.8302 208.816 95.8578C208.796 95.8855 208.788 95.9199 208.794 95.9534L212.528 114.309L178.053 115.531C178.036 115.528 178.018 115.53 178.002 115.534C177.985 115.539 177.97 115.546 177.957 115.557C177.943 115.568 177.932 115.581 177.924 115.596C177.915 115.611 177.91 115.627 177.909 115.644L177.687 132.308C177.684 132.342 177.693 132.375 177.714 132.401C177.734 132.428 177.765 132.445 177.798 132.449L222.082 132.742C222.088 132.743 222.094 132.743 222.1 132.743Z" fill="#0C0C0C"/>
<path d="M156.143 127.928L143.629 89.3736C143.409 88.6961 142.981 88.1057 142.406 87.6871C141.831 87.2684 141.138 87.0429 140.428 87.043H89.447C88.9156 87.0429 88.3917 87.169 87.9182 87.4108C87.4447 87.6527 87.0351 88.0034 86.7228 88.4344C86.4105 88.8654 86.2044 89.3644 86.1214 89.8905C86.0384 90.4166 86.0808 90.9549 86.2452 91.4615L98.7588 130.017C98.9786 130.694 99.4067 131.284 99.9818 131.703C100.557 132.122 101.25 132.347 101.96 132.347H152.941C153.472 132.347 153.996 132.221 154.47 131.979C154.943 131.737 155.353 131.387 155.665 130.956C155.977 130.525 156.183 130.026 156.266 129.5C156.349 128.973 156.307 128.435 156.143 127.928Z" fill="#292A2E"/>
<path d="M180.061 129.221H145.935C145.085 129.221 144.396 129.912 144.396 130.764V130.804C144.396 131.656 145.085 132.347 145.935 132.347H180.061C180.912 132.347 181.601 131.656 181.601 130.804V130.764C181.601 129.912 180.912 129.221 180.061 129.221Z" fill="#292A2E"/>
<path d="M120.427 116.166C123.38 116.166 125.774 113.767 125.774 110.807C125.774 107.847 123.38 105.447 120.427 105.447C117.474 105.447 115.08 107.847 115.08 110.807C115.08 113.767 117.474 116.166 120.427 116.166Z" fill="white"/>
<path d="M203.759 51.0057C203.556 51.0057 203.361 50.9247 203.217 50.7805C203.073 50.6362 202.992 50.4406 202.992 50.2366V41.4755C202.992 37.0173 201.761 33.4848 199.432 31.26C197.224 29.1512 194.056 28.1813 190.019 28.3754C189.918 28.3808 189.817 28.3661 189.722 28.3323C189.627 28.2984 189.539 28.246 189.464 28.1781C189.389 28.1101 189.328 28.028 189.285 27.9364C189.241 27.8448 189.217 27.7455 189.212 27.6443C189.207 27.5431 189.222 27.4419 189.256 27.3465C189.291 27.2512 189.343 27.1636 189.412 27.0888C189.48 27.0139 189.562 26.9533 189.654 26.9105C189.745 26.8676 189.844 26.8433 189.945 26.839C194.419 26.6223 197.968 27.7363 200.492 30.1461C203.132 32.6685 204.528 36.5861 204.528 41.4753V50.2364C204.528 50.3375 204.508 50.4376 204.469 50.531C204.431 50.6244 204.374 50.7093 204.303 50.7807C204.231 50.8522 204.147 50.9089 204.053 50.9475C203.96 50.9861 203.86 51.0059 203.759 51.0057Z" fill="#505F98"/>
<path d="M202.612 57.7253C205.832 57.7253 208.441 55.1095 208.441 51.8827C208.441 48.6559 205.832 46.04 202.612 46.04C199.393 46.04 196.783 48.6559 196.783 51.8827C196.783 55.1095 199.393 57.7253 202.612 57.7253Z" fill="#505F98"/>
<path d="M202.837 56.2596C202.796 56.23 202.75 56.2087 202.701 56.197C202.652 56.1853 202.601 56.1834 202.551 56.1914C202.501 56.1994 202.454 56.2171 202.411 56.2436C202.368 56.2701 202.331 56.3048 202.301 56.3457L201.855 56.9633C201.309 57.7183 200.592 58.333 199.763 58.7573C198.934 59.1816 198.017 59.4034 197.086 59.4047H189.989V59.2542C189.989 59.0502 189.908 58.8546 189.764 58.7104C189.62 58.5661 189.425 58.4851 189.222 58.4851H186.82C186.617 58.4851 186.421 58.5661 186.277 58.7104C186.134 58.8546 186.053 59.0502 186.053 59.2542V60.3802C186.053 60.5841 186.134 60.7798 186.277 60.924C186.421 61.0682 186.617 61.1493 186.82 61.1493H189.222C189.425 61.1493 189.62 61.0682 189.764 60.924C189.908 60.7798 189.989 60.5841 189.989 60.3802V60.1751H197.086C198.138 60.1736 199.175 59.9228 200.111 59.4433C201.048 58.9637 201.859 58.2689 202.477 57.4155L202.923 56.7979C202.953 56.757 202.974 56.7105 202.986 56.6613C202.998 56.612 203 56.5609 202.992 56.5109C202.984 56.4608 202.966 56.4129 202.939 56.3697C202.913 56.3266 202.878 56.2892 202.837 56.2596Z" fill="#505F98"/>
<path d="M204.011 57.7253C207.23 57.7253 209.84 55.1095 209.84 51.8827C209.84 48.6559 207.23 46.04 204.011 46.04C200.791 46.04 198.182 48.6559 198.182 51.8827C198.182 55.1095 200.791 57.7253 204.011 57.7253Z" fill="#505F98"/>
<path opacity="0.3" d="M204.011 57.7253C207.23 57.7253 209.84 55.1095 209.84 51.8827C209.84 48.6559 207.23 46.04 204.011 46.04C200.791 46.04 198.182 48.6559 198.182 51.8827C198.182 55.1095 200.791 57.7253 204.011 57.7253Z" fill="white"/>
<path d="M93.3007 133H234.744C234.812 133 234.877 132.973 234.925 132.925C234.973 132.877 235 132.812 235 132.744C235 132.676 234.973 132.61 234.925 132.562C234.877 132.514 234.812 132.487 234.744 132.487H93.3007C93.2329 132.487 93.1678 132.514 93.1198 132.562C93.0719 132.61 93.0449 132.676 93.0449 132.744C93.0449 132.812 93.0719 132.877 93.1198 132.925C93.1678 132.973 93.2329 133 93.3007 133Z" fill="#292A2E"/>
</g>
<defs>
<clipPath id="clip0_1_16078">
<rect width="235" height="133" fill="white"/>
</clipPath>
</defs>
</svg>
