<svg width="32" height="32" viewBox="0 0 32 32" fill="none" xmlns="http://www.w3.org/2000/svg">
<path fill-rule="evenodd" clip-rule="evenodd" d="M6 9.33301C4.89543 9.33301 4 10.2284 4 11.333V23.333C4 24.4376 4.89543 25.333 6 25.333H26C27.1046 25.333 28 24.4376 28 23.333V11.333C28 10.2284 27.1046 9.33301 26 9.33301H6ZM10.6667 17.333C10.6667 20.2785 13.0545 22.6663 16 22.6663C18.9455 22.6663 21.3333 20.2785 21.3333 17.333C21.3333 14.3875 18.9455 11.9997 16 11.9997C13.0545 11.9997 10.6667 14.3875 10.6667 17.333Z" fill="black"/>
<rect opacity="0.3" x="12" y="5.33301" width="8" height="2.66667" rx="1.33333" fill="black"/>
<path opacity="0.3" fill-rule="evenodd" clip-rule="evenodd" d="M15.9997 20.0003C17.4724 20.0003 18.6663 18.8064 18.6663 17.3337C18.6663 15.8609 17.4724 14.667 15.9997 14.667C14.5269 14.667 13.333 15.8609 13.333 17.3337C13.333 18.8064 14.5269 20.0003 15.9997 20.0003Z" fill="black"/>
</svg>
