<svg xmlns="http://www.w3.org/2000/svg" width="16" height="16" viewBox="0 0 16 16" fill="none">
<path d="M7.80474 11.5284C8.06509 11.7888 8.06509 12.2109 7.80474 12.4712C7.54439 12.7316 7.12228 12.7316 6.86193 12.4712L2.86193 8.47124C2.60954 8.21885 2.60071 7.81246 2.8419 7.54935L6.50856 3.54935C6.75736 3.27794 7.17907 3.25961 7.45048 3.5084C7.7219 3.7572 7.74023 4.17891 7.49144 4.45032L4.25609 7.97979L7.80474 11.5284Z" fill="white"/>
<path d="M12.4711 11.5284C12.7314 11.7888 12.7314 12.2109 12.4711 12.4712C12.2107 12.7316 11.7886 12.7316 11.5283 12.4712L7.52827 8.47124C7.27589 8.21886 7.26705 7.81246 7.50824 7.54935L11.1749 3.54935C11.4237 3.27794 11.8454 3.25961 12.1168 3.5084C12.3882 3.7572 12.4066 4.17891 12.1578 4.45032L8.92243 7.97979L12.4711 11.5284Z" fill="white"/>
</svg>