<?xml version="1.0" encoding="utf-8"?>
<!-- Svg Vector Icons : http://www.onlinewebfonts.com/icon -->
<!DOCTYPE svg PUBLIC "-//W3C//DTD SVG 1.1//EN" "http://www.w3.org/Graphics/SVG/1.1/DTD/svg11.dtd">
<svg version="1.1" xmlns="http://www.w3.org/2000/svg" xmlns:xlink="http://www.w3.org/1999/xlink" x="0px" y="0px" viewBox="0 0 256 256" enable-background="new 0 0 256 256" xml:space="preserve">
<metadata> Svg Vector Icons : http://www.onlinewebfonts.com/icon </metadata>
<g><g><g><path fill="#000000" d="M119.8,10.3c-54,3.5-99.2,44.4-108.3,98.1c-2,11.4-2,28,0,39.4C19.2,193,52.6,230,96.7,242c20,5.5,42.7,5.5,62.7,0c39.9-10.9,71.6-42.6,82.5-82.5c5.5-20,5.5-42.7,0-62.7c-12-44.1-49-77.5-94.2-85.2c-4.1-0.7-19.3-2-21-1.7C126.4,9.9,123.3,10.1,119.8,10.3z M80.8,69.5c1.9,0.7,53.8,52.5,54.9,54.7c1,2.2,1,5.7,0,7.8c-1.1,2.2-53,54-54.9,54.7c-2.2,0.8-5.5,0.7-7.5-0.3c-2.9-1.4-10.1-9.2-10.8-11.8c-1.3-4.8-1.4-4.7,20.5-26.6l19.9-19.9l-19.9-20c-17-17-20-20.2-20.5-22c-0.6-2.5-0.1-5.4,1.4-7.5c1.7-2.4,7.6-7.9,9.4-8.8C75.1,68.8,78.6,68.7,80.8,69.5z M148.4,69.5c1.9,0.7,53.8,52.5,54.9,54.7c1,2.2,1,5.7,0,7.8c-1.1,2.2-53,54-54.9,54.7c-1.9,0.7-5.2,0.7-7,0.1c-1.5-0.6-8.1-6.7-9.8-9.1c-1.5-2.2-2.1-5-1.4-7.5c0.5-1.8,3.5-5.1,20.5-22.1l19.9-19.9l-19.9-20c-21.9-21.9-21.8-21.8-20.5-26.6c0.7-2.5,7.8-10.4,10.7-11.8C142.8,68.8,146.3,68.7,148.4,69.5z"/></g></g></g>
</svg>