<svg width="40" height="40" viewBox="0 0 40 40" fill="none" xmlns="http://www.w3.org/2000/svg">
<path d="M27.78 6.82338C29.7823 7.95188 32.7275 10.5205 32.7275 10.5205C32.7275 10.5205 28.7832 9.72922 26.7672 9.59761C24.6958 9.4624 22.6526 9.71298 20.9222 10.136C17.4333 10.9888 14.1159 12.8277 14.1159 12.8277L11.6463 8.66573C11.6463 8.66573 18.4224 5.33382 22.4988 5.5215L22.5067 5.52186C24.8491 5.62971 25.7343 5.67046 27.78 6.82338Z" fill="white"/>
<circle cx="21.0382" cy="4.02158" r="2.15342" fill="white"/>
<path d="M31.7441 25.8952C30.884 28.0267 28.7178 31.2793 28.7178 31.2793C28.7178 31.2793 28.9923 27.2658 28.8621 25.2496C28.7283 23.1782 28.2157 21.1845 27.5724 19.5233C26.2756 16.174 24.0231 13.1223 24.0231 13.1223L27.8308 10.1353C27.8308 10.1353 32.011 16.4235 32.352 20.49L32.3527 20.4978C32.5487 22.8345 32.6227 23.7176 31.7441 25.8952Z" fill="white"/>
<circle cx="33.651" cy="18.8474" r="2.15342" transform="rotate(82.5698 33.651 18.8474)" fill="white"/>
<path d="M13.6334 31.6013C11.4 31.0586 7.86816 29.3857 7.86816 29.3857C7.86816 29.3857 11.8792 29.0768 13.8553 28.6563C15.8855 28.2242 17.7841 27.4285 19.3347 26.5517C22.4612 24.7839 25.155 22.1137 25.155 22.1137L28.6614 25.4492C28.6614 25.4492 23.0441 30.4951 19.0697 31.4209L19.0621 31.4227C16.7783 31.9546 15.9152 32.1557 13.6334 31.6013Z" fill="white"/>
<circle cx="20.883" cy="32.4679" r="2.15342" transform="rotate(164.252 20.883 32.4679)" fill="white"/>
<path d="M8.19604 12.7713C8.47326 10.4896 9.7207 6.78613 9.7207 6.78613C9.7207 6.78613 10.4975 10.7333 11.1467 12.6465C11.8137 14.6122 12.8264 16.4044 13.8789 17.8416C16.0009 20.7394 18.9684 23.1017 18.9684 23.1017L16.0668 26.9749C16.0668 26.9749 10.3973 21.9875 9.01222 18.149L9.00954 18.1416C8.21362 15.9359 7.91283 15.1023 8.19604 12.7713Z" fill="white"/>
<circle cx="8.18506" cy="20.0726" r="2.15342" transform="rotate(-112.478 8.18506 20.0726)" fill="white"/>
</svg>
