<svg width="73" height="72" viewBox="0 0 73 72" fill="none" xmlns="http://www.w3.org/2000/svg">
<path d="M50.2805 12.3494C53.9047 14.3919 59.2354 19.041 59.2354 19.041C59.2354 19.041 52.0964 17.6088 48.4474 17.3706C44.6983 17.1259 41.0002 17.5794 37.8682 18.345C31.5534 19.8886 25.549 23.217 25.549 23.217L21.0793 15.684C21.0793 15.684 33.3437 9.65335 40.7218 9.99303L40.736 9.99369C44.9757 10.1889 46.578 10.2626 50.2805 12.3494Z" fill="#21334F"/>
<circle cx="38.0773" cy="7.27845" r="3.89759" fill="#21334F"/>
<path d="M57.4569 46.8702C55.9002 50.7281 51.9795 56.6152 51.9795 56.6152C51.9795 56.6152 52.4765 49.351 52.2408 45.7018C51.9986 41.9526 51.0707 38.3442 49.9065 35.3375C47.5592 29.2753 43.4823 23.7518 43.4823 23.7518L50.3741 18.3454C50.3741 18.3454 57.9401 29.727 58.5574 37.0871L58.5585 37.1013C58.9133 41.3306 59.0473 42.9289 57.4569 46.8702Z" fill="#505F98"/>
<circle cx="60.9067" cy="34.115" r="3.89759" transform="rotate(82.5698 60.9067 34.115)" fill="#505F98"/>
<path d="M24.6771 57.1975C20.6346 56.2153 14.2422 53.1875 14.2422 53.1875C14.2422 53.1875 21.5019 52.6283 25.0786 51.8672C28.7533 51.0852 32.1895 49.645 34.9962 48.058C40.655 44.8584 45.5306 40.0253 45.5306 40.0253L51.8771 46.0625C51.8771 46.0625 41.7099 55.1954 34.5165 56.871L34.5026 56.8743C30.3691 57.8371 28.807 58.201 24.6771 57.1975Z" fill="#21334F"/>
<circle cx="37.7983" cy="58.7656" r="3.89759" transform="rotate(164.252 37.7983 58.7656)" fill="#21334F"/>
<path d="M14.8352 23.1161C15.3369 18.9864 17.5947 12.2832 17.5947 12.2832C17.5947 12.2832 19.0008 19.4274 20.1758 22.8902C21.383 26.448 23.216 29.6918 25.1209 32.2931C28.9615 37.538 34.3327 41.8137 34.3327 41.8137L29.0808 48.8239C29.0808 48.8239 18.8194 39.797 16.3124 32.8495L16.3076 32.8361C14.867 28.8439 14.3225 27.3352 14.8352 23.1161Z" fill="#505F98"/>
<circle cx="14.8154" cy="36.3302" r="3.89759" transform="rotate(-112.478 14.8154 36.3302)" fill="#505F98"/>
</svg>
