<svg width="74" height="73" viewBox="0 0 74 73" fill="none" xmlns="http://www.w3.org/2000/svg">
<g id="Group 14">
<g id="Group 1">
<path id="Vector 1" d="M51.286 12.5969C54.9826 14.6803 60.4199 19.4224 60.4199 19.4224C60.4199 19.4224 53.1381 17.9615 49.4162 17.7186C45.5922 17.4689 41.8201 17.9315 38.6254 18.7124C32.1843 20.2869 26.0599 23.6819 26.0599 23.6819L21.5008 15.9982C21.5008 15.9982 34.0104 9.84694 41.5361 10.1934L41.5506 10.1941C45.8751 10.3932 47.5094 10.4684 51.286 12.5969Z" fill="#031839"/>
<circle id="Ellipse 1" cx="38.8388" cy="7.42476" r="3.97555" fill="#031839"/>
</g>
<g id="Group 10">
<path id="Vector 1_2" d="M58.6055 47.8086C57.0177 51.7437 53.0186 57.7485 53.0186 57.7485C53.0186 57.7485 53.5255 50.339 53.2851 46.6169C53.0381 42.7927 52.0916 39.1121 50.9041 36.0452C48.5098 29.8618 44.3514 24.2278 44.3514 24.2278L51.381 18.7133C51.381 18.7133 59.0983 30.3225 59.728 37.8298L59.7292 37.8443C60.091 42.1582 60.2277 43.7885 58.6055 47.8086Z" fill="#505F98"/>
<circle id="Ellipse 1_2" cx="62.1247" cy="34.7966" r="3.97554" transform="rotate(82.5698 62.1247 34.7966)" fill="#505F98"/>
</g>
<g id="Group 4">
<path id="Vector 1_3" d="M25.1709 58.3412C21.0476 57.3393 14.5273 54.251 14.5273 54.251C14.5273 54.251 21.9323 53.6806 25.5805 52.9043C29.3287 52.1066 32.8337 50.6376 35.6964 49.0189C41.4684 45.7553 46.4415 40.8256 46.4415 40.8256L52.915 46.9835C52.915 46.9835 42.5444 56.2991 35.2072 58.0082L35.193 58.0115C30.9768 58.9936 29.3835 59.3647 25.1709 58.3412Z" fill="#031839"/>
<circle id="Ellipse 1_3" cx="38.5546" cy="59.9407" r="3.97555" transform="rotate(164.252 38.5546 59.9407)" fill="#031839"/>
</g>
<g id="Group 3">
<path id="Vector 1_4" d="M15.1325 23.5784C15.6443 19.366 17.9473 12.5288 17.9473 12.5288C17.9473 12.5288 19.3814 19.8159 20.5799 23.348C21.8113 26.9769 23.6809 30.2856 25.6239 32.9389C29.5414 38.2887 35.02 42.6499 35.02 42.6499L29.6631 49.8003C29.6631 49.8003 19.1964 40.5928 16.6393 33.5065L16.6343 33.4928C15.165 29.4207 14.6096 27.8818 15.1325 23.5784Z" fill="#505F98"/>
<circle id="Ellipse 1_4" cx="15.1116" cy="37.058" r="3.97555" transform="rotate(-112.478 15.1116 37.058)" fill="#505F98"/>
</g>
</g>
</svg>
