<svg xmlns="http://www.w3.org/2000/svg" width="161" height="160" viewBox="0 0 161 160" fill="none">
  <path d="M89.3206 136.3C124.897 136.3 153.739 107.458 153.739 71.7548C153.739 36.0516 124.77 7.20947 89.3206 7.20947C53.7445 7.20947 24.9023 36.0516 24.9023 71.7548C24.9023 107.458 53.7445 136.3 89.3206 136.3Z" fill="#EAEEF9"/>
  <path d="M149.546 29.4446C152.423 29.4446 154.756 27.1123 154.756 24.2352C154.756 21.3582 152.423 19.0259 149.546 19.0259C146.669 19.0259 144.337 21.3582 144.337 24.2352C144.337 27.1123 146.669 29.4446 149.546 29.4446Z" fill="#EAEEF9"/>
  <path d="M157.171 9.11523C159.136 9.11523 160.729 7.52244 160.729 5.55762C160.729 3.5928 159.136 2 157.171 2C155.206 2 153.613 3.5928 153.613 5.55762C153.613 7.52244 155.206 9.11523 157.171 9.11523Z" fill="#EAEEF9"/>
  <path d="M28.334 29.3174C30.2988 29.3174 31.8916 27.7246 31.8916 25.7598C31.8916 23.7949 30.2988 22.2021 28.334 22.2021C26.3692 22.2021 24.7764 23.7949 24.7764 25.7598C24.7764 27.7246 26.3692 29.3174 28.334 29.3174Z" fill="#EAEEF9"/>
  <path d="M6.607 97.9284C10.256 97.9284 13.214 94.9703 13.214 91.3214C13.214 87.6724 10.256 84.7144 6.607 84.7144C2.95806 84.7144 0 87.6724 0 91.3214C0 94.9703 2.95806 97.9284 6.607 97.9284Z" fill="#EAEEF9"/>
  <g filter="url(#filter0_d_50_6569)">
    <path d="M133.156 39.4818L134.173 121.307C134.173 124.102 131.886 126.262 129.09 126.262H49.2981C46.5029 126.262 44.2158 123.975 44.2158 121.307V16.1032C44.2158 13.3079 46.5029 11.1479 49.2981 11.1479H107.109L133.156 39.4818Z" fill="url(#paint0_linear_50_6569)"/>
  </g>
  <path d="M83.0961 109.872H80.1738C79.5385 109.872 79.0303 109.237 79.0303 108.474C79.0303 107.712 79.5385 107.077 80.1738 107.077H83.0961C83.7314 107.077 84.2396 107.712 84.2396 108.474C84.2396 109.364 83.7314 109.872 83.0961 109.872Z" fill="#CED7E2"/>
  <path d="M74.2015 109.872H57.1757C56.5405 109.872 56.0322 109.237 56.0322 108.474C56.0322 107.712 56.5405 107.077 57.1757 107.077H74.2015C74.8368 107.077 75.345 107.712 75.345 108.474C75.345 109.364 74.8368 109.872 74.2015 109.872Z" fill="#D5DDEA"/>
  <path d="M95.9284 28.3011H57.684C56.7946 28.3011 56.0322 27.5387 56.0322 26.6493C56.0322 25.7599 56.7946 24.9976 57.684 24.9976H95.9284C96.8178 24.9976 97.5801 25.7599 97.5801 26.6493C97.5801 27.5387 96.8178 28.3011 95.9284 28.3011Z" fill="#D5DDEA"/>
  <path d="M72.4227 37.449H57.684C56.7946 37.449 56.0322 36.6867 56.0322 35.7973C56.0322 34.9079 56.7946 34.1455 57.684 34.1455H72.2956C73.185 34.1455 73.9474 34.9079 73.9474 35.7973C73.9474 36.6867 73.185 37.449 72.4227 37.449Z" fill="#D5DDEA"/>
  <path d="M107.109 11.1479V33.7642C107.109 36.9407 109.905 39.4818 113.081 39.4818H133.156" fill="#D5DDEA"/>
  <path d="M139.255 128.168C137.985 128.168 136.714 127.66 135.698 126.516L114.479 105.298L113.717 105.806C106.856 110.888 98.851 113.557 90.7193 113.557C80.9359 113.557 71.1524 109.618 63.9101 102.757C56.2867 95.5144 52.0938 85.7309 52.0938 75.0581C52.0938 53.8394 69.3736 36.5596 90.5923 36.5596C105.077 36.5596 117.783 44.183 124.644 57.1429C131.378 69.9758 130.488 84.9686 122.23 97.0391L121.721 97.8014L143.067 119.147C145.227 121.307 144.719 123.467 144.338 124.611C143.321 126.644 141.288 128.168 139.255 128.168ZM90.5923 47.1054C75.0912 47.1054 62.6395 59.6841 62.6395 75.0581C62.6395 92.592 76.9971 103.138 90.9734 103.138C99.4863 103.138 107.237 99.3261 112.7 92.465C119.434 84.0792 120.578 72.771 115.877 62.9876C111.049 53.2041 101.392 47.1054 90.5923 47.1054Z" fill="#989FB0"/>
  <path d="M78.523 79.6325C80.1748 79.6325 81.5724 78.2348 81.5724 76.5831C81.5724 74.9313 80.1748 73.5337 78.523 73.5337C76.8713 73.5337 75.4736 74.9313 75.4736 76.5831C75.4736 78.2348 76.8713 79.6325 78.523 79.6325Z" fill="#989FB0"/>
  <path d="M101.901 79.6325C103.553 79.6325 104.95 78.2348 104.95 76.5831C104.95 74.9313 103.553 73.5337 101.901 73.5337C100.249 73.5337 98.8516 74.9313 98.8516 76.5831C98.8516 78.3619 100.249 79.6325 101.901 79.6325Z" fill="#989FB0"/>
  <path d="M78.4032 66.4948L71.6953 70.1167L72.6008 71.7937L79.3087 68.1718L78.4032 66.4948Z" fill="#989FB0"/>
  <path d="M101.486 66.4464L100.581 68.1235L107.29 71.7447L108.195 70.0675L101.486 66.4464Z" fill="#989FB0"/>
  <path d="M90.2119 86.7476C92.1767 86.7476 93.7695 85.553 93.7695 84.0793C93.7695 82.6057 92.1767 81.4111 90.2119 81.4111C88.2471 81.4111 86.6543 82.6057 86.6543 84.0793C86.6543 85.553 88.2471 86.7476 90.2119 86.7476Z" fill="#989FB0"/>
  <defs>
    <filter id="filter0_d_50_6569" x="22.2158" y="0.147949" width="133.957" height="159.114" filterUnits="userSpaceOnUse" color-interpolation-filters="sRGB">
      <feFlood flood-opacity="0" result="BackgroundImageFix"/>
      <feColorMatrix in="SourceAlpha" type="matrix" values="0 0 0 0 0 0 0 0 0 0 0 0 0 0 0 0 0 0 127 0" result="hardAlpha"/>
      <feOffset dy="11"/>
      <feGaussianBlur stdDeviation="11"/>
      <feColorMatrix type="matrix" values="0 0 0 0 0.397708 0 0 0 0 0.47749 0 0 0 0 0.575 0 0 0 0.27 0"/>
      <feBlend mode="normal" in2="BackgroundImageFix" result="effect1_dropShadow_50_6569"/>
      <feBlend mode="normal" in="SourceGraphic" in2="effect1_dropShadow_50_6569" result="shape"/>
    </filter>
    <linearGradient id="paint0_linear_50_6569" x1="89.165" y1="8.48524" x2="89.165" y2="127.503" gradientUnits="userSpaceOnUse">
      <stop stop-color="#FDFEFF"/>
      <stop offset="0.9964" stop-color="#ECF0F5"/>
    </linearGradient>
  </defs>
</svg>