<svg xmlns="http://www.w3.org/2000/svg" width="187" height="144" viewBox="0 0 187 144" fill="none">
  <path d="M90.1893 140.195C127.327 140.195 157.435 110.087 157.435 72.8165C157.435 35.5461 127.194 5.43799 90.1893 5.43799C53.0515 5.43799 22.9434 35.5461 22.9434 72.8165C22.9434 110.087 53.0515 140.195 90.1893 140.195Z" fill="#EAEEF9"/>
  <path d="M153.058 28.649C156.061 28.649 158.496 26.2143 158.496 23.211C158.496 20.2076 156.061 17.7729 153.058 17.7729C150.055 17.7729 147.62 20.2076 147.62 23.211C147.62 26.2143 150.055 28.649 153.058 28.649Z" fill="#EAEEF9"/>
  <path d="M161.017 7.42756C163.068 7.42756 164.73 5.76484 164.73 3.71378C164.73 1.66272 163.068 0 161.017 0C158.965 0 157.303 1.66272 157.303 3.71378C157.303 5.76484 158.965 7.42756 161.017 7.42756Z" fill="#EAEEF9"/>
  <path d="M26.5243 28.5164C28.5754 28.5164 30.2381 26.8537 30.2381 24.8026C30.2381 22.7516 28.5754 21.0889 26.5243 21.0889C24.4733 21.0889 22.8105 22.7516 22.8105 24.8026C22.8105 26.8537 24.4733 28.5164 26.5243 28.5164Z" fill="#EAEEF9"/>
  <path d="M10.897 108.798C14.7061 108.798 17.794 105.71 17.794 101.901C17.794 98.0918 14.7061 95.0039 10.897 95.0039C7.0879 95.0039 4 98.0918 4 101.901C4 105.71 7.0879 108.798 10.897 108.798Z" fill="#EAEEF9"/>
  <g filter="url(#filter0_d_1_3423)">
    <path d="M161.756 102.831H141.356C140.391 102.831 139.564 102.211 139.288 101.383C137.289 95.4562 132.878 94.0089 122.195 89.8046C121.575 89.529 121.506 88.7019 122.126 88.3573C125.228 86.841 124.677 85.5315 124.677 76.4339C124.539 76.296 124.401 76.0893 124.332 75.9514C123.643 74.9176 123.16 73.677 123.022 72.4364L122.333 72.0918C120.266 72.5743 120.403 70.3688 119.852 66.0957C119.645 64.3037 119.921 63.9591 120.679 63.6834L121.368 62.7874C117.302 53.6898 119.37 47.9693 123.367 45.9017C122.058 43.007 121.989 41.9731 121.989 41.9731C121.989 41.9731 130.466 43.4205 133.361 42.8002C137.082 42.0421 142.734 42.938 144.871 47.8315C148.386 49.2099 149.764 51.4843 150.109 53.8276C150.591 57.6872 148.454 61.8914 148.041 63.5456C148.11 63.6145 148.11 63.6834 148.179 63.7523C148.73 64.028 148.937 64.5105 148.73 66.0267C148.248 70.0931 148.317 72.6432 146.249 72.0229L144.388 75.2622C144.319 75.6757 144.25 75.8136 144.25 76.0203C144.181 76.6406 144.181 77.8123 144.181 84.5666C144.181 85.3937 144.388 86.1518 144.802 86.7721C145.215 87.5302 145.904 88.0816 146.731 88.4262H146.8C151.625 90.4249 155.071 91.7344 157.621 92.7683C163.273 95.0427 164.237 95.663 164.72 99.4536C164.858 101.315 163.548 102.831 161.756 102.831Z" fill="white"/>
  </g>
  <path d="M147.901 63.4757C148.108 62.4419 147.626 61.2013 147.212 60.3054C147.143 60.1675 147.074 60.0297 147.005 59.8229C145.42 56.5836 141.767 55.2052 138.321 55.0673C129.499 54.5849 128.672 56.3079 125.915 53.7578C126.742 55.0673 126.88 57.066 125.502 59.6161C124.606 61.4081 122.814 62.1662 121.229 62.7176C117.231 53.62 119.23 47.8995 123.227 45.8318C121.918 42.9371 121.849 41.9033 121.849 41.9033C121.849 41.9033 130.326 43.3507 133.221 42.7304C136.943 41.9722 142.594 42.8682 144.731 47.7616C148.246 49.1401 149.624 51.4145 149.969 53.7578C150.52 57.6174 148.315 61.8216 147.901 63.4757Z" fill="url(#paint0_linear_1_3423)"/>
  <path opacity="0.1" d="M159.618 102.83C161.755 99.5219 160.928 96.4204 157.481 92.7676C163.133 95.042 164.098 95.6623 164.58 99.453C164.856 101.176 163.478 102.761 161.686 102.761H159.618V102.83Z" fill="#9AA2B2"/>
  <path d="M144.662 86.8403V88.4255H124.192V86.3579C124.675 85.2551 124.537 85.324 124.537 76.4332C124.399 76.2953 124.261 76.0886 124.192 75.9507V75.4683C124.606 76.2264 125.226 76.9156 125.847 77.467L132.256 81.9469C133.772 83.1875 135.909 83.2564 137.425 82.0158L143.421 76.6399C143.628 76.4332 143.835 76.2953 144.042 76.0886C143.973 76.7088 143.973 77.8805 143.973 84.6348C144.042 85.3929 144.249 86.1511 144.662 86.8403Z" fill="url(#paint1_linear_1_3423)"/>
  <g filter="url(#filter1_d_1_3423)">
    <path d="M56.3051 87.4604C52.9969 87.3915 52.6523 86.7712 52.6523 86.7712V81.2575C56.1673 78.3628 59.1309 74.9856 59.9579 70.5746C62.1634 70.0922 63.5419 68.0935 63.3351 65.888C63.2662 64.9231 62.6459 64.0271 62.577 62.9933C62.577 62.5108 62.577 62.0284 62.577 61.5459C62.577 61.2013 62.577 60.9256 62.508 60.581C62.508 60.2364 62.4391 59.8918 62.4391 59.5472C62.2323 57.8931 61.8188 56.1701 60.7161 54.1713C57.9592 49.0022 52.5144 45.5562 46.3804 45.5562C45.1398 45.5562 43.8992 45.694 42.7276 45.9697C40.5221 46.4521 38.5234 47.417 36.7314 48.7955C36.3868 49.0711 36.0422 49.3468 35.6976 49.6225C35.6287 49.6914 35.5597 49.7604 35.4219 49.8293C33.4921 51.6212 31.9758 53.8956 31.1488 56.4457C30.3217 58.9958 30.1149 61.6149 30.4595 64.2339C30.4595 64.3028 30.4595 64.3717 30.4595 64.4406C30.4595 64.5096 30.4595 64.5785 30.4595 64.6474C30.5285 65.1299 30.6663 65.0609 30.3217 65.4745C30.2528 65.6123 30.1149 65.7501 30.046 65.9569C29.6325 66.715 29.2879 67.7489 29.7703 68.9895C30.5974 71.3328 32.2515 70.9882 33.7678 72.2977C33.6989 72.3666 33.561 72.4355 33.4921 72.4355H33.4232L31.7001 72.9869C21.3619 76.2262 20.1902 87.1847 30.8042 89.1834C30.046 89.2524 29.3568 89.6659 28.8744 90.0105C25.4972 92.6295 23.3606 96.627 22.8093 100.555C22.6025 101.727 23.5674 102.83 24.808 102.83H41.2113C41.5559 102.83 41.9005 102.554 42.0384 102.21C43.5546 96.6959 47.0007 94.7661 54.1685 91.8714L58.3038 90.2173C58.993 89.9416 59.7512 89.6659 60.5782 89.3213C61.3364 89.0456 61.2674 87.9429 60.4404 87.7361C59.6133 87.5293 58.7863 87.4604 57.9592 87.3915C57.27 87.4604 56.7186 87.4604 56.3051 87.4604ZM35.284 80.4304C35.284 79.7412 35.7665 78.9831 36.8003 78.156C37.2139 78.7074 37.7652 79.3277 38.3855 79.879C38.868 80.2926 39.3504 80.7061 39.9018 81.1196C40.2464 81.3264 40.591 81.6021 40.9356 81.8778C41.0045 81.9467 41.0735 82.0156 41.1424 82.0156C41.2113 82.0845 41.3491 82.1535 41.4181 82.2224V85.5995C41.3491 85.5306 41.2802 85.4617 41.2113 85.4617C40.8667 85.186 40.591 84.9103 40.3153 84.7035C39.8329 84.3589 39.3504 84.0833 38.868 83.8076C38.6612 83.6697 38.5234 83.6008 38.3855 83.463C36.8003 82.4291 35.353 81.4642 35.284 80.4304Z" fill="white"/>
  </g>
  <path d="M56.305 87.4603C55.7536 89.4591 55.1333 90.6996 55.1333 90.6996L37.3516 87.8739L38.3854 83.4629C38.5232 83.6007 38.73 83.6697 38.8678 83.7386C39.3503 84.0143 39.9017 84.3589 40.3152 84.7035C40.5909 84.9102 40.9355 85.117 41.2112 85.4616C41.2801 85.5305 41.349 85.5995 41.349 85.5995V82.2223C41.2112 82.1534 41.1422 82.0845 41.0733 82.0155C43.968 83.4629 47.5519 84.221 52.721 81.1885C52.6521 81.1885 52.6521 81.2574 52.5832 81.2574V86.7711C52.5832 86.7711 52.9967 87.3914 56.305 87.4603Z" fill="url(#paint2_linear_1_3423)"/>
  <path d="M62.439 60.581C59.4754 61.6148 56.305 62.0283 53.1346 61.7526C48.1723 61.3391 43.3478 59.3404 39.626 56.0321C38.3854 59.6161 35.2839 62.304 31.769 63.8892C31.2865 64.096 30.8041 64.3027 30.3216 64.4406C30.3216 64.3716 30.3216 64.3027 30.3216 64.3027C29.977 61.6837 30.1838 59.0647 31.0108 56.5146C31.8379 53.9645 33.3541 51.6901 35.2839 49.8981C35.3529 49.8292 35.4218 49.7603 35.5596 49.6914C35.9042 49.4157 36.2488 49.14 36.5935 48.8643C38.3854 47.5548 40.4531 46.5899 42.5896 46.0385C43.8302 45.7628 45.0019 45.625 46.2425 45.625C52.3765 45.625 57.8213 49.0711 60.5781 54.2402C61.6119 56.2389 62.0944 57.9619 62.3012 59.5471C62.439 59.8917 62.439 60.2364 62.439 60.581Z" fill="url(#paint3_linear_1_3423)"/>
  <path d="M37.0068 78.3628C37.4204 78.9142 37.9028 79.3966 38.3163 79.8101C37.8339 79.3966 37.3514 78.9142 37.0068 78.3628Z" fill="#3973F4"/>
  <path d="M43.4853 95.7999C42.1758 97.454 39.6946 97.523 37.627 97.454C39.8324 95.3175 38.5919 88.3564 30.8727 89.1835H30.8037C20.1898 87.1847 21.3615 76.2262 31.6308 72.9869L33.3538 72.4355C33.4917 72.5045 33.5606 72.5734 33.6295 72.7112C34.4566 74.8478 35.5593 76.6398 36.731 78.0871C32.5268 81.6021 38.3851 82.7048 41.2109 85.3928C43.692 86.8401 45.7597 92.9052 43.4853 95.7999Z" fill="url(#paint4_linear_1_3423)"/>
  <path d="M36.9376 78.363C36.8687 78.2941 36.7998 78.2252 36.7998 78.1562C36.7998 78.1562 36.8687 78.2941 36.9376 78.363Z" fill="#3973F4"/>
  <g filter="url(#filter2_d_1_3423)">
    <path d="M135.358 106C135.703 108.55 133.704 110.894 131.085 110.894H50.3089C47.6899 110.894 45.6912 108.55 46.0358 106C46.7939 100.693 47.9656 99.5904 55.8226 96.42L57.7524 95.6619C61.4053 94.2145 66.1609 92.4226 72.5706 89.7346C74.0179 89.1143 75.1896 88.0116 75.8099 86.5643C76.1545 85.8061 76.3612 84.9101 76.3612 84.0142V71.9529C76.1545 71.6772 75.9477 71.4705 75.8099 71.1948C74.776 69.6785 74.0868 67.8865 73.8801 65.9567L72.8462 65.4743C69.7448 66.2324 70.0205 62.9242 69.1934 56.5834C68.8488 53.9644 69.2623 53.413 70.434 52.9995L71.3989 51.69C65.4716 38.2503 68.4353 29.8419 74.2936 26.8783C72.5016 22.6051 72.3638 21.0889 72.3638 21.0889C72.3638 21.0889 84.8386 23.1565 89.1117 22.3295C94.5565 21.2267 102.965 22.5362 106.066 29.773C111.236 31.8406 113.234 35.0799 113.717 38.6638C114.475 44.3154 111.236 50.5183 110.615 52.9306C110.684 53.0684 110.684 53.1373 110.753 53.2063C111.58 53.6198 111.856 54.309 111.58 56.5834C110.822 62.5796 111.029 66.3013 107.927 65.4743L105.17 70.2988C105.033 70.8502 105.033 71.0569 104.964 71.4705C104.826 72.3664 104.895 74.1584 104.895 84.0142C104.895 85.1858 105.239 86.3575 105.86 87.2535C106.549 88.2873 107.514 89.1833 108.685 89.6657C108.754 89.6657 108.754 89.6657 108.823 89.7346C115.922 92.6983 121.022 94.6281 124.744 96.0754C133.221 99.3837 134.531 100.417 135.358 106Z" fill="white"/>
  </g>
  <path d="M110.684 52.9306C110.96 51.4143 110.27 49.5534 109.719 48.2439C109.65 48.0372 109.512 47.8304 109.443 47.5547C107.031 42.7302 101.724 40.8004 96.6239 40.5247C83.5977 39.8355 82.4261 42.3167 78.3597 38.5949C79.6003 40.5247 79.7381 43.4883 77.8083 47.2101C76.4299 49.8291 73.8109 51.0008 71.5365 51.7589C65.6092 38.3192 68.5728 29.9108 74.4312 26.9472C72.5014 22.6051 72.3635 21.0889 72.3635 21.0889C72.3635 21.0889 84.8383 23.1565 89.1114 22.3295C94.5562 21.2267 102.965 22.5362 106.066 29.773C111.235 31.8406 113.234 35.0799 113.716 38.6638C114.543 44.2465 111.304 50.4494 110.684 52.9306Z" fill="url(#paint5_linear_1_3423)"/>
  <path opacity="0.1" d="M128.052 110.824C131.223 106 129.982 101.451 124.882 96.0752C133.221 99.3834 134.6 100.417 135.358 105.931C135.703 108.481 133.704 110.824 131.085 110.824H128.052Z" fill="#9AA2B2"/>
  <path d="M105.929 87.2533V89.5966H75.8789V86.5641C76.2235 85.8059 76.4303 84.91 76.4303 84.014V71.9527C76.2235 71.677 76.0167 71.4703 75.8789 71.1946V70.5054C76.4992 71.6081 77.3263 72.6419 78.3601 73.469L87.8023 80.0855C90.0078 81.9463 93.1782 82.0153 95.4526 80.2233L104.275 72.2973C104.55 72.0216 104.895 71.746 105.171 71.4703C105.033 72.3663 105.102 74.1582 105.102 84.014C105.033 85.1856 105.377 86.2884 105.929 87.2533Z" fill="url(#paint6_linear_1_3423)"/>
  <path d="M114.059 123.477C113.631 125.295 112.989 127.22 112.241 128.824C110.209 132.781 107.001 135.882 103.044 137.914C98.98 139.946 94.1677 140.802 89.3553 139.732C78.0196 137.379 70.7476 126.258 73.1003 114.922C75.453 103.586 86.4679 96.2071 97.8037 98.6667C101.867 99.5223 105.397 101.554 108.391 104.335C113.417 109.361 115.556 116.633 114.059 123.477Z" fill="url(#paint7_linear_1_3423)"/>
  <path d="M100.264 117.381H95.4519V112.569C95.4519 111.607 94.7033 110.751 93.6339 110.751C92.6714 110.751 91.8159 111.5 91.8159 112.569V117.381H87.0036C86.0411 117.381 85.1855 118.13 85.1855 119.199C85.1855 120.269 85.9341 121.017 87.0036 121.017H91.8159V125.83C91.8159 126.792 92.5645 127.648 93.6339 127.648C94.5964 127.648 95.4519 126.899 95.4519 125.83V121.017H100.264C101.227 121.017 102.082 120.269 102.082 119.199C102.082 118.13 101.227 117.381 100.264 117.381Z" fill="white"/>
  <defs>
    <filter id="filter0_d_1_3423" x="97.1592" y="30.9731" width="89.5703" height="104.857" filterUnits="userSpaceOnUse" color-interpolation-filters="sRGB">
      <feFlood flood-opacity="0" result="BackgroundImageFix"/>
      <feColorMatrix in="SourceAlpha" type="matrix" values="0 0 0 0 0 0 0 0 0 0 0 0 0 0 0 0 0 0 127 0" result="hardAlpha"/>
      <feOffset dy="11"/>
      <feGaussianBlur stdDeviation="11"/>
      <feColorMatrix type="matrix" values="0 0 0 0 0.397708 0 0 0 0 0.47749 0 0 0 0 0.575 0 0 0 0.27 0"/>
      <feBlend mode="normal" in2="BackgroundImageFix" result="effect1_dropShadow_1_3423"/>
      <feBlend mode="normal" in="SourceGraphic" in2="effect1_dropShadow_1_3423" result="shape"/>
    </filter>
    <filter id="filter1_d_1_3423" x="0.78125" y="34.5562" width="84.5742" height="101.274" filterUnits="userSpaceOnUse" color-interpolation-filters="sRGB">
      <feFlood flood-opacity="0" result="BackgroundImageFix"/>
      <feColorMatrix in="SourceAlpha" type="matrix" values="0 0 0 0 0 0 0 0 0 0 0 0 0 0 0 0 0 0 127 0" result="hardAlpha"/>
      <feOffset dy="11"/>
      <feGaussianBlur stdDeviation="11"/>
      <feColorMatrix type="matrix" values="0 0 0 0 0.397708 0 0 0 0 0.47749 0 0 0 0 0.575 0 0 0 0.27 0"/>
      <feBlend mode="normal" in2="BackgroundImageFix" result="effect1_dropShadow_1_3423"/>
      <feBlend mode="normal" in="SourceGraphic" in2="effect1_dropShadow_1_3423" result="shape"/>
    </filter>
    <filter id="filter2_d_1_3423" x="23.9971" y="10.0889" width="133.399" height="133.805" filterUnits="userSpaceOnUse" color-interpolation-filters="sRGB">
      <feFlood flood-opacity="0" result="BackgroundImageFix"/>
      <feColorMatrix in="SourceAlpha" type="matrix" values="0 0 0 0 0 0 0 0 0 0 0 0 0 0 0 0 0 0 127 0" result="hardAlpha"/>
      <feOffset dy="11"/>
      <feGaussianBlur stdDeviation="11"/>
      <feColorMatrix type="matrix" values="0 0 0 0 0.397708 0 0 0 0 0.47749 0 0 0 0 0.575 0 0 0 0.27 0"/>
      <feBlend mode="normal" in2="BackgroundImageFix" result="effect1_dropShadow_1_3423"/>
      <feBlend mode="normal" in="SourceGraphic" in2="effect1_dropShadow_1_3423" result="shape"/>
    </filter>
    <linearGradient id="paint0_linear_1_3423" x1="119.036" y1="52.6919" x2="150.063" y2="52.6919" gradientUnits="userSpaceOnUse">
      <stop stop-color="#B0BACC"/>
      <stop offset="1" stop-color="#969EAE"/>
    </linearGradient>
    <linearGradient id="paint1_linear_1_3423" x1="134.433" y1="88.5044" x2="134.433" y2="81.3663" gradientUnits="userSpaceOnUse">
      <stop stop-color="white"/>
      <stop offset="1" stop-color="#E2E5EC"/>
    </linearGradient>
    <linearGradient id="paint2_linear_1_3423" x1="46.834" y1="90.7575" x2="46.834" y2="85.5179" gradientUnits="userSpaceOnUse">
      <stop stop-color="white"/>
      <stop offset="1" stop-color="#E2E5EC"/>
    </linearGradient>
    <linearGradient id="paint3_linear_1_3423" x1="30.1473" y1="55.0348" x2="62.4449" y2="55.0348" gradientUnits="userSpaceOnUse">
      <stop stop-color="#B0BACC"/>
      <stop offset="1" stop-color="#969EAE"/>
    </linearGradient>
    <linearGradient id="paint4_linear_1_3423" x1="23.3585" y1="84.956" x2="44.4699" y2="84.956" gradientUnits="userSpaceOnUse">
      <stop stop-color="#B0BACC"/>
      <stop offset="1" stop-color="#969EAE"/>
    </linearGradient>
    <linearGradient id="paint5_linear_1_3423" x1="68.2809" y1="37.0132" x2="113.859" y2="37.0132" gradientUnits="userSpaceOnUse">
      <stop stop-color="#B0BACC"/>
      <stop offset="1" stop-color="#969EAE"/>
    </linearGradient>
    <linearGradient id="paint6_linear_1_3423" x1="90.9129" y1="89.7128" x2="90.9129" y2="79.1955" gradientUnits="userSpaceOnUse">
      <stop stop-color="white"/>
      <stop offset="1" stop-color="#E2E5EC"/>
    </linearGradient>
    <linearGradient id="paint7_linear_1_3423" x1="72.639" y1="119.199" x2="114.535" y2="119.199" gradientUnits="userSpaceOnUse">
      <stop stop-color="#B0BACC"/>
      <stop offset="1" stop-color="#969EAE"/>
    </linearGradient>
  </defs>
</svg>