<svg width="252" height="80" viewBox="0 0 252 80" fill="none" xmlns="http://www.w3.org/2000/svg">
<path d="M87.876 49V34.544H82.312V30.67H98.25V34.544H92.686V49H87.876ZM100.27 49V30.67H105.08V49H100.27ZM117.675 49.286C115.682 49.286 113.957 48.896 112.501 48.116C111.063 47.336 109.945 46.2353 109.147 44.814C108.367 43.3927 107.977 41.7287 107.977 39.822C107.977 37.9153 108.367 36.26 109.147 34.856C109.945 33.4347 111.063 32.334 112.501 31.554C113.957 30.774 115.682 30.384 117.675 30.384C118.941 30.384 120.093 30.5573 121.133 30.904C122.173 31.2333 123.049 31.71 123.759 32.334L122.329 36.104C121.532 35.532 120.795 35.1333 120.119 34.908C119.461 34.6653 118.707 34.544 117.857 34.544C116.297 34.544 115.093 35.0033 114.243 35.922C113.411 36.8233 112.995 38.1233 112.995 39.822C112.995 41.538 113.411 42.8553 114.243 43.774C115.093 44.6753 116.297 45.126 117.857 45.126C118.707 45.126 119.461 45.0133 120.119 44.788C120.795 44.5453 121.532 44.138 122.329 43.566L123.759 47.336C123.049 47.96 122.173 48.4453 121.133 48.792C120.093 49.1213 118.941 49.286 117.675 49.286ZM126.27 49V30.67H131.08V38.522H131.132L138.152 30.67H143.768L134.876 40.316V38.418L144.262 49H138.464L131.132 40.732H131.08V49H126.27ZM144.577 49V30.67H157.733V34.336H149.179V37.846H157.109V41.538H149.179V45.308H157.733V49H144.577ZM164.556 49V34.544H158.992V30.67H174.93V34.544H169.366V49H164.556ZM184.465 49V30.67H197.621V34.336H189.067V37.846H196.997V41.538H189.067V45.308H197.621V49H184.465ZM197.59 49L206.17 30.67H210.07L218.702 49H213.892L211.682 43.956L213.528 45.282H202.764L204.584 43.956L202.4 49H197.59ZM208.094 35.61L205.052 42.864L204.324 41.642H211.942L211.292 42.864L208.224 35.61H208.094ZM226.496 49.286C225.023 49.286 223.619 49.1127 222.284 48.766C220.967 48.402 219.857 47.9167 218.956 47.31L220.308 43.592C220.88 43.956 221.504 44.268 222.18 44.528C222.856 44.788 223.558 44.996 224.286 45.152C225.031 45.2907 225.785 45.36 226.548 45.36C227.692 45.36 228.481 45.2127 228.914 44.918C229.365 44.6233 229.59 44.242 229.59 43.774C229.59 43.358 229.443 43.0373 229.148 42.812C228.853 42.5693 228.299 42.3613 227.484 42.188L224.312 41.538C222.631 41.1913 221.374 40.5933 220.542 39.744C219.71 38.8773 219.294 37.7507 219.294 36.364C219.294 35.1507 219.615 34.102 220.256 33.218C220.915 32.3167 221.833 31.6233 223.012 31.138C224.191 30.6353 225.569 30.384 227.146 30.384C228.446 30.384 229.668 30.566 230.812 30.93C231.956 31.2767 232.892 31.762 233.62 32.386L232.268 35.87C231.575 35.3673 230.795 34.986 229.928 34.726C229.061 34.4487 228.099 34.31 227.042 34.31C226.037 34.31 225.274 34.466 224.754 34.778C224.251 35.0727 224 35.4973 224 36.052C224 36.4333 224.147 36.7627 224.442 37.04C224.754 37.3 225.317 37.5167 226.132 37.69L229.252 38.314C230.933 38.6433 232.19 39.2327 233.022 40.082C233.871 40.9313 234.296 42.0407 234.296 43.41C234.296 44.5887 233.967 45.62 233.308 46.504C232.667 47.388 231.765 48.0727 230.604 48.558C229.443 49.0433 228.073 49.286 226.496 49.286ZM237.049 49V30.67H250.205V34.336H241.651V37.846H249.581V41.538H241.651V45.308H250.205V49H237.049Z" fill="#21334F"/>
<path d="M55.559 13.6467C59.5637 15.9038 65.4541 21.041 65.4541 21.041C65.4541 21.041 57.5655 19.4584 53.5334 19.1952C49.3907 18.9248 45.3042 19.4259 41.8434 20.2719C34.8655 21.9776 28.2307 25.6555 28.2307 25.6555L23.2917 17.3315C23.2917 17.3315 36.8438 10.6676 44.9966 11.043L45.0124 11.0437C49.6972 11.2594 51.4677 11.3409 55.559 13.6467Z" fill="#21334F"/>
<circle cx="42.0744" cy="8.04317" r="4.30684" fill="#21334F"/>
<path d="M63.4901 51.7933C61.7699 56.0562 57.4375 62.5615 57.4375 62.5615C57.4375 62.5615 57.9867 54.5345 57.7262 50.5022C57.4587 46.3594 56.4333 42.372 55.1468 39.0496C52.5531 32.3509 48.0481 26.2474 48.0481 26.2474L55.6635 20.2734C55.6635 20.2734 64.0239 32.85 64.706 40.9829L64.7074 40.9986C65.0993 45.672 65.2474 47.4382 63.4901 51.7933Z" fill="#505F98"/>
<circle cx="67.3019" cy="37.6968" r="4.30684" transform="rotate(82.5698 67.3019 37.6968)" fill="#505F98"/>
<path d="M27.2669 63.2035C22.7999 62.1181 15.7363 58.7725 15.7363 58.7725C15.7363 58.7725 23.7583 58.1546 27.7105 57.3135C31.7711 56.4494 35.5682 54.858 38.6695 53.1044C44.9225 49.5689 50.31 44.2283 50.31 44.2283L57.3229 50.8993C57.3229 50.8993 46.0881 60.9912 38.1395 62.8427L38.1241 62.8463C33.5566 63.9103 31.8305 64.3123 27.2669 63.2035Z" fill="#21334F"/>
<circle cx="41.7669" cy="64.9359" r="4.30684" transform="rotate(164.252 41.7669 64.9359)" fill="#21334F"/>
<path d="M16.3931 25.5436C16.9475 20.9802 19.4424 13.5732 19.4424 13.5732C19.4424 13.5732 20.9961 21.4676 22.2944 25.294C23.6284 29.2253 25.6539 32.8097 27.7588 35.6842C32.0027 41.4798 37.9378 46.2044 37.9378 46.2044L32.1345 53.9507C32.1345 53.9507 20.7956 43.976 18.0254 36.299L18.0201 36.2842C16.4282 31.8728 15.8266 30.2057 16.3931 25.5436Z" fill="#505F98"/>
<circle cx="16.3711" cy="40.1462" r="4.30684" transform="rotate(-112.478 16.3711 40.1462)" fill="#505F98"/>
</svg>
